STARTFONT 2.3
FONT -FontForge-Rajdhani-Book-R-Normal--18-180-72-72-P-110-ISO10646-1
SIZE 18 72 72  2
FONTBOUNDINGBOX 45 22 -8 -6
COMMENT "Generated by fontforge, http://fontforge.sourceforge.net"
COMMENT "Copyright (c) 2014 Indian Type Foundry (info@indiantypefoundry.com)"
STARTPROPERTIES 41
FOUNDRY "FontForge"
FAMILY_NAME "Rajdhani"
WEIGHT_NAME "Book"
SLANT "R"
SETWIDTH_NAME "Normal"
ADD_STYLE_NAME ""
PIXEL_SIZE 18
POINT_SIZE 180
RESOLUTION_X 72
RESOLUTION_Y 72
SPACING "P"
AVERAGE_WIDTH 110
CHARSET_REGISTRY "ISO10646"
CHARSET_ENCODING "1"
FONTNAME_REGISTRY ""
CHARSET_COLLECTIONS "ISO8859-2 ISO8859-9 ISO8859-4 ISO10646-1"
BITS_PER_PIXEL 2
FONT_NAME "Rajdhani-Regular"
FACE_NAME "Rajdhani Regular"
COPYRIGHT "Copyright (c) 2014 Indian Type Foundry (info@indiantypefoundry.com)"
FONT_VERSION "1.201;PS 1.0;hotconv 1.0.78;makeotf.lib2.5.61930; ttfautohint (v1.1) -l 7 -r 28 -G 50 -x 13 -D latn -f deva -w G"
FONT_ASCENT 14
FONT_DESCENT 4
UNDERLINE_POSITION -2
UNDERLINE_THICKNESS 1
X_HEIGHT 8
CAP_HEIGHT 10
DEFAULT_CHAR 3
RAW_ASCENT 800
RAW_DESCENT 200
NORM_SPACE 5
RELATIVE_WEIGHT 40
RELATIVE_SETWIDTH 50
SUPERSCRIPT_X 0
SUPERSCRIPT_Y 6
SUPERSCRIPT_SIZE 10
SUBSCRIPT_X 0
SUBSCRIPT_Y 1
SUBSCRIPT_SIZE 10
AVG_LOWERCASE_WIDTH 81
AVG_UPPERCASE_WIDTH 94
ENDPROPERTIES
CHARS 1043
STARTCHAR NULL.dup1
ENCODING 0
SWIDTH 0 0
DWIDTH 0 0
BBX 1 1 0 0
BITMAP
00
ENDCHAR
STARTCHAR CR
ENCODING 13
SWIDTH 0 0
DWIDTH 0 0
BBX 1 1 0 0
BITMAP
00
ENDCHAR
STARTCHAR space
ENCODING 32
SWIDTH 267 0
DWIDTH 5 0
BBX 1 1 0 0
BITMAP
00
ENDCHAR
STARTCHAR exclam
ENCODING 33
SWIDTH 237 0
DWIDTH 4 0
BBX 2 11 1 0
BITMAP
60
60
60
60
60
60
60
50
50
60
60
ENDCHAR
STARTCHAR quotedbl
ENCODING 34
SWIDTH 330 0
DWIDTH 6 0
BBX 4 4 1 7
BITMAP
82
82
82
81
ENDCHAR
STARTCHAR numbersign
ENCODING 35
SWIDTH 677 0
DWIDTH 12 0
BBX 10 11 1 0
BITMAP
008080
014080
2BABE0
020200
060200
090500
080900
AEAE80
140800
241400
202000
ENDCHAR
STARTCHAR dollar
ENCODING 36
SWIDTH 504 0
DWIDTH 9 0
BBX 7 15 1 -2
BITMAP
0200
0200
2AA0
9018
8008
8000
9000
2AE0
0018
0008
8008
9018
2AA0
0200
0100
ENDCHAR
STARTCHAR percent
ENCODING 37
SWIDTH 717 0
DWIDTH 13 0
BBX 11 11 1 0
BITMAP
6A0200
814200
814900
814800
6A1400
002000
0052A4
008508
014908
020508
0602A4
ENDCHAR
STARTCHAR ampersand
ENCODING 38
SWIDTH 597 0
DWIDTH 11 0
BBX 9 11 1 0
BITMAP
0AA000
181800
240C00
240400
180000
2E0000
92EA80
909000
902400
901D00
2AA240
ENDCHAR
STARTCHAR quotesingle
ENCODING 39
SWIDTH 186 0
DWIDTH 3 0
BBX 1 3 1 8
BITMAP
80
80
80
ENDCHAR
STARTCHAR parenleft
ENCODING 40
SWIDTH 283 0
DWIDTH 5 0
BBX 3 13 1 -2
BITMAP
28
90
80
80
80
80
80
80
80
80
80
90
28
ENDCHAR
STARTCHAR parenright
ENCODING 41
SWIDTH 283 0
DWIDTH 5 0
BBX 3 13 1 -2
BITMAP
A0
18
08
08
08
08
08
08
08
08
08
18
A0
ENDCHAR
STARTCHAR asterisk
ENCODING 42
SWIDTH 406 0
DWIDTH 7 0
BBX 5 4 1 7
BITMAP
0800
A580
0500
2200
ENDCHAR
STARTCHAR plus
ENCODING 43
SWIDTH 523 0
DWIDTH 9 0
BBX 7 7 1 2
BITMAP
0200
0200
0200
ABE8
0200
0200
0200
ENDCHAR
STARTCHAR comma
ENCODING 44
SWIDTH 191 0
DWIDTH 3 0
BBX 2 4 1 -1
BITMAP
90
90
80
80
ENDCHAR
STARTCHAR hyphen
ENCODING 45
SWIDTH 312 0
DWIDTH 6 0
BBX 5 1 0 5
BITMAP
6A80
ENDCHAR
STARTCHAR period
ENCODING 46
SWIDTH 191 0
DWIDTH 3 0
BBX 2 3 1 0
BITMAP
80
90
90
ENDCHAR
STARTCHAR slash
ENCODING 47
SWIDTH 396 0
DWIDTH 7 0
BBX 5 11 1 0
BITMAP
00C0
0180
0240
0200
0900
0C00
1800
2400
3000
6000
8000
ENDCHAR
STARTCHAR zero
ENCODING 48
SWIDTH 514 0
DWIDTH 9 0
BBX 7 11 1 0
BITMAP
2AA4
901C
800C
800C
800C
800C
800C
800C
800C
901C
2AA4
ENDCHAR
STARTCHAR one
ENCODING 49
SWIDTH 317 0
DWIDTH 6 0
BBX 4 11 1 0
BITMAP
1C
A9
09
09
09
09
09
09
09
09
08
ENDCHAR
STARTCHAR two
ENCODING 50
SWIDTH 478 0
DWIDTH 9 0
BBX 7 11 1 0
BITMAP
6AE0
9024
C018
4014
0030
0190
0A00
2400
9000
C000
EAA4
ENDCHAR
STARTCHAR three
ENCODING 51
SWIDTH 496 0
DWIDTH 9 0
BBX 7 11 1 0
BITMAP
2AA0
9018
C018
4018
0024
02E0
0024
4018
C018
9018
2AA0
ENDCHAR
STARTCHAR four
ENCODING 52
SWIDTH 520 0
DWIDTH 9 0
BBX 8 11 1 0
BITMAP
0074
00A4
0264
0624
0824
2424
6024
9024
EABE
0024
0024
ENDCHAR
STARTCHAR five
ENCODING 53
SWIDTH 482 0
DWIDTH 9 0
BBX 7 11 1 0
BITMAP
BAA4
8000
8000
8000
AAA0
9024
0018
0018
8018
9024
2AA0
ENDCHAR
STARTCHAR six
ENCODING 54
SWIDTH 497 0
DWIDTH 9 0
BBX 7 11 1 0
BITMAP
2AA0
9000
C000
C000
EAA0
C028
C008
C008
C008
9018
2AA0
ENDCHAR
STARTCHAR seven
ENCODING 55
SWIDTH 380 0
DWIDTH 7 0
BBX 7 11 0 0
BITMAP
AAB4
0024
0020
0090
00C0
0180
0240
0200
0900
0C00
1800
ENDCHAR
STARTCHAR eight
ENCODING 56
SWIDTH 519 0
DWIDTH 9 0
BBX 7 11 1 0
BITMAP
2AA4
900C
8008
8008
901C
3EF4
900C
8008
8008
900C
2AA4
ENDCHAR
STARTCHAR nine
ENCODING 57
SWIDTH 497 0
DWIDTH 9 0
BBX 7 11 1 0
BITMAP
2AA0
9018
C008
C008
C008
9008
2AB8
0008
0008
0018
6AA0
ENDCHAR
STARTCHAR colon
ENCODING 58
SWIDTH 191 0
DWIDTH 3 0
BBX 2 9 1 0
BITMAP
90
90
80
00
00
00
80
90
90
ENDCHAR
STARTCHAR semicolon
ENCODING 59
SWIDTH 191 0
DWIDTH 3 0
BBX 2 11 1 -2
BITMAP
90
90
80
00
00
00
00
90
90
80
40
ENDCHAR
STARTCHAR less
ENCODING 60
SWIDTH 513 0
DWIDTH 9 0
BBX 7 6 1 3
BITMAP
0018
02A4
6900
A400
1A80
0068
ENDCHAR
STARTCHAR equal
ENCODING 61
SWIDTH 531 0
DWIDTH 10 0
BBX 7 4 1 4
BITMAP
AAA8
0000
0000
AAA8
ENDCHAR
STARTCHAR greater
ENCODING 62
SWIDTH 531 0
DWIDTH 10 0
BBX 7 6 1 3
BITMAP
5000
1A40
00A8
001C
0690
6400
ENDCHAR
STARTCHAR question
ENCODING 63
SWIDTH 473 0
DWIDTH 9 0
BBX 7 11 1 0
BITMAP
2A90
9030
9024
0020
0090
0200
0200
0000
0200
0300
0300
ENDCHAR
STARTCHAR at
ENCODING 64
SWIDTH 753 0
DWIDTH 14 0
BBX 11 12 1 -1
BITMAP
06AAA0
190018
200008
50AB48
524248
930248
930248
530248
524348
20A9E0
190000
06AA40
ENDCHAR
STARTCHAR A
ENCODING 65
SWIDTH 533 0
DWIDTH 10 0
BBX 9 11 0 0
BITMAP
00E000
01B000
026400
031800
060C00
090900
0C0600
1EAB00
240240
300180
6000C0
ENDCHAR
STARTCHAR B
ENCODING 66
SWIDTH 546 0
DWIDTH 10 0
BBX 8 11 1 0
BITMAP
7AB4
5009
5005
5005
5009
7AB8
5009
5006
5006
5009
7AA8
ENDCHAR
STARTCHAR C
ENCODING 67
SWIDTH 542 0
DWIDTH 10 0
BBX 8 11 1 0
BITMAP
2AA8
6009
9006
9001
9000
9000
9000
9001
9006
6009
2AA8
ENDCHAR
STARTCHAR D
ENCODING 68
SWIDTH 557 0
DWIDTH 10 0
BBX 8 11 1 0
BITMAP
7AA8
5009
5006
5006
5006
5006
5006
5006
5006
5009
7AA8
ENDCHAR
STARTCHAR E
ENCODING 69
SWIDTH 481 0
DWIDTH 9 0
BBX 7 11 1 0
BITMAP
7AA4
5000
5000
5000
5000
7AA0
5000
5000
5000
5000
7AA4
ENDCHAR
STARTCHAR F
ENCODING 70
SWIDTH 459 0
DWIDTH 8 0
BBX 7 11 1 0
BITMAP
7AA4
5000
5000
5000
5000
7AA0
5000
5000
5000
5000
5000
ENDCHAR
STARTCHAR G
ENCODING 71
SWIDTH 539 0
DWIDTH 10 0
BBX 8 11 1 0
BITMAP
2AA4
6009
9009
9000
9000
90AD
9009
9009
9009
6008
2AA4
ENDCHAR
STARTCHAR H
ENCODING 72
SWIDTH 570 0
DWIDTH 10 0
BBX 8 11 1 0
BITMAP
5002
5006
5006
5006
5006
7AAE
5006
5006
5006
5006
5002
ENDCHAR
STARTCHAR I
ENCODING 73
SWIDTH 230 0
DWIDTH 4 0
BBX 2 11 1 0
BITMAP
50
60
60
60
60
60
60
60
60
60
50
ENDCHAR
STARTCHAR J
ENCODING 74
SWIDTH 499 0
DWIDTH 9 0
BBX 8 11 0 0
BITMAP
0006
0006
0006
0006
0006
0006
0006
6006
6006
3009
1AB8
ENDCHAR
STARTCHAR K
ENCODING 75
SWIDTH 530 0
DWIDTH 10 0
BBX 8 11 1 0
BITMAP
5009
5024
5060
51C0
5340
5B40
74C0
6060
5024
5008
5006
ENDCHAR
STARTCHAR L
ENCODING 76
SWIDTH 451 0
DWIDTH 8 0
BBX 7 11 1 0
BITMAP
5000
5000
5000
5000
5000
5000
5000
5000
5000
5000
7AA4
ENDCHAR
STARTCHAR M
ENCODING 77
SWIDTH 696 0
DWIDTH 13 0
BBX 10 11 1 0
BITMAP
700070
7400F0
5C01B0
590230
520630
524930
519830
50A430
506030
500030
500030
ENDCHAR
STARTCHAR N
ENCODING 78
SWIDTH 579 0
DWIDTH 10 0
BBX 8 11 1 0
BITMAP
6003
7403
6803
5903
5303
5183
5093
5023
501B
500B
5007
ENDCHAR
STARTCHAR O
ENCODING 79
SWIDTH 553 0
DWIDTH 10 0
BBX 8 11 1 0
BITMAP
2AA8
6009
9006
9006
9006
9006
9006
9006
9006
6009
2AA8
ENDCHAR
STARTCHAR P
ENCODING 80
SWIDTH 524 0
DWIDTH 9 0
BBX 8 11 1 0
BITMAP
7AA4
5009
5009
5009
5009
500C
7AA4
5000
5000
5000
5000
ENDCHAR
STARTCHAR Q
ENCODING 81
SWIDTH 556 0
DWIDTH 10 0
BBX 8 13 1 -2
BITMAP
2AA8
6009
9006
9006
9006
9006
9006
9006
9006
6009
2AB8
0060
0024
ENDCHAR
STARTCHAR R
ENCODING 82
SWIDTH 534 0
DWIDTH 10 0
BBX 8 11 1 0
BITMAP
7AB4
5009
5009
5009
5009
7AF4
5060
5030
5018
500C
5009
ENDCHAR
STARTCHAR S
ENCODING 83
SWIDTH 562 0
DWIDTH 10 0
BBX 8 11 1 0
BITMAP
2EB8
6009
9006
9000
7400
0AA4
001D
0006
9006
6009
2EB8
ENDCHAR
STARTCHAR T
ENCODING 84
SWIDTH 420 0
DWIDTH 8 0
BBX 7 11 0 0
BITMAP
ABE8
0240
0240
0240
0240
0240
0240
0240
0240
0240
0240
ENDCHAR
STARTCHAR U
ENCODING 85
SWIDTH 552 0
DWIDTH 10 0
BBX 8 11 1 0
BITMAP
9005
9006
9006
9006
9006
9006
9006
9006
9005
6009
2EB8
ENDCHAR
STARTCHAR V
ENCODING 86
SWIDTH 500 0
DWIDTH 9 0
BBX 9 11 0 0
BITMAP
600240
300300
200200
140500
080800
080800
091800
062400
033000
02A000
01D000
ENDCHAR
STARTCHAR W
ENCODING 87
SWIDTH 794 0
DWIDTH 14 0
BBX 14 11 0 0
BITMAP
600A0060
300A0090
30094090
241580C0
18248180
18309140
0C605240
08502300
05802200
06802A00
03401D00
ENDCHAR
STARTCHAR X
ENCODING 88
SWIDTH 504 0
DWIDTH 9 0
BBX 9 11 0 0
BITMAP
200200
180900
090800
062400
02A000
01D000
027000
062400
0C0C00
240600
600240
ENDCHAR
STARTCHAR Y
ENCODING 89
SWIDTH 493 0
DWIDTH 9 0
BBX 9 11 0 0
BITMAP
600240
240600
180900
091800
062000
02A000
01C000
00C000
00C000
00C000
00C000
ENDCHAR
STARTCHAR Z
ENCODING 90
SWIDTH 482 0
DWIDTH 9 0
BBX 8 11 0 0
BITMAP
2AAE
0009
0018
0030
0090
0180
0340
0A00
1C00
2400
7AAA
ENDCHAR
STARTCHAR bracketleft
ENCODING 91
SWIDTH 287 0
DWIDTH 5 0
BBX 3 13 1 -2
BITMAP
A8
80
80
80
80
80
80
80
80
80
80
80
A8
ENDCHAR
STARTCHAR backslash
ENCODING 92
SWIDTH 396 0
DWIDTH 7 0
BBX 5 11 1 0
BITMAP
8000
6000
3000
2400
1800
0C00
0900
0200
0240
0180
00C0
ENDCHAR
STARTCHAR bracketright
ENCODING 93
SWIDTH 287 0
DWIDTH 5 0
BBX 3 13 1 -2
BITMAP
AC
08
08
08
08
08
08
08
08
08
08
08
A8
ENDCHAR
STARTCHAR asciicircum
ENCODING 94
SWIDTH 465 0
DWIDTH 8 0
BBX 6 5 1 6
BITMAP
0B00
1980
2080
6060
8020
ENDCHAR
STARTCHAR underscore
ENCODING 95
SWIDTH 372 0
DWIDTH 7 0
BBX 7 1 0 -2
BITMAP
AAA8
ENDCHAR
STARTCHAR grave
ENCODING 96
SWIDTH 269 0
DWIDTH 5 0
BBX 3 3 1 9
BITMAP
A0
24
04
ENDCHAR
STARTCHAR a
ENCODING 97
SWIDTH 502 0
DWIDTH 9 0
BBX 7 9 1 0
BITMAP
2AB8
9018
8018
8018
8018
8018
8018
9028
2AA8
ENDCHAR
STARTCHAR b
ENCODING 98
SWIDTH 504 0
DWIDTH 9 0
BBX 7 12 1 0
BITMAP
9000
9000
9000
9AA0
A018
900C
900C
900C
900C
900C
9018
BAA0
ENDCHAR
STARTCHAR c
ENCODING 99
SWIDTH 394 0
DWIDTH 7 0
BBX 6 9 1 0
BITMAP
2A90
9000
8000
8000
8000
8000
8000
9000
2A90
ENDCHAR
STARTCHAR d
ENCODING 100
SWIDTH 504 0
DWIDTH 9 0
BBX 7 12 1 0
BITMAP
0008
0018
0018
2A98
9028
8018
8018
8018
8018
8018
9028
2A98
ENDCHAR
STARTCHAR e
ENCODING 101
SWIDTH 492 0
DWIDTH 9 0
BBX 7 9 1 0
BITMAP
2AA0
9018
8008
8008
BAB8
8000
8000
9000
2AA4
ENDCHAR
STARTCHAR f
ENCODING 102
SWIDTH 303 0
DWIDTH 5 0
BBX 5 12 0 0
BITMAP
0680
0900
0C00
6F80
0C00
0C00
0C00
0C00
0C00
0C00
0C00
0800
ENDCHAR
STARTCHAR g
ENCODING 103
SWIDTH 506 0
DWIDTH 9 0
BBX 7 11 1 -2
BITMAP
2AB8
9008
8008
8008
8008
8008
A028
2A98
0018
0018
2AA0
ENDCHAR
STARTCHAR h
ENCODING 104
SWIDTH 507 0
DWIDTH 9 0
BBX 7 12 1 0
BITMAP
9000
9000
9000
AAA0
A018
900C
900C
900C
900C
900C
900C
9008
ENDCHAR
STARTCHAR i
ENCODING 105
SWIDTH 210 0
DWIDTH 4 0
BBX 2 12 1 0
BITMAP
90
90
00
90
90
90
90
90
90
90
90
90
ENDCHAR
STARTCHAR j
ENCODING 106
SWIDTH 210 0
DWIDTH 4 0
BBX 4 14 -1 -2
BITMAP
09
09
00
09
09
09
09
09
09
09
09
09
0C
B4
ENDCHAR
STARTCHAR k
ENCODING 107
SWIDTH 431 0
DWIDTH 8 0
BBX 7 12 1 0
BITMAP
9000
9000
9000
9030
9090
9180
9300
9600
9240
9180
9060
9024
ENDCHAR
STARTCHAR l
ENCODING 108
SWIDTH 210 0
DWIDTH 4 0
BBX 2 12 1 0
BITMAP
90
90
90
90
90
90
90
90
90
90
90
90
ENDCHAR
STARTCHAR m
ENCODING 109
SWIDTH 769 0
DWIDTH 14 0
BBX 12 9 1 0
BITMAP
9AD6B8
A02809
902406
901406
901406
901406
901406
901406
901406
ENDCHAR
STARTCHAR n
ENCODING 110
SWIDTH 507 0
DWIDTH 9 0
BBX 7 9 1 0
BITMAP
9AA0
A018
900C
900C
900C
900C
900C
900C
9008
ENDCHAR
STARTCHAR o
ENCODING 111
SWIDTH 496 0
DWIDTH 9 0
BBX 7 9 1 0
BITMAP
2AA0
9018
8008
8008
8008
8008
8008
9018
2AA0
ENDCHAR
STARTCHAR p
ENCODING 112
SWIDTH 504 0
DWIDTH 9 0
BBX 7 11 1 -2
BITMAP
9AA0
A018
900C
900C
900C
900C
900C
A018
AAA0
9000
9000
ENDCHAR
STARTCHAR q
ENCODING 113
SWIDTH 502 0
DWIDTH 9 0
BBX 7 11 1 -2
BITMAP
2AB8
9018
8018
8018
8018
8018
8018
9028
2AA8
0018
0018
ENDCHAR
STARTCHAR r
ENCODING 114
SWIDTH 313 0
DWIDTH 6 0
BBX 4 9 1 0
BITMAP
9A
A0
90
90
90
90
90
90
90
ENDCHAR
STARTCHAR s
ENCODING 115
SWIDTH 431 0
DWIDTH 8 0
BBX 6 9 1 0
BITMAP
7A90
C000
C000
A400
0A40
00A0
0060
0060
AA90
ENDCHAR
STARTCHAR t
ENCODING 116
SWIDTH 347 0
DWIDTH 6 0
BBX 6 11 0 0
BITMAP
0800
0C00
7E90
0800
0800
0800
0800
0800
0C00
0D00
0690
ENDCHAR
STARTCHAR u
ENCODING 117
SWIDTH 507 0
DWIDTH 9 0
BBX 7 9 1 0
BITMAP
8008
8008
8008
8008
8008
8008
9008
9018
2A98
ENDCHAR
STARTCHAR v
ENCODING 118
SWIDTH 416 0
DWIDTH 7 0
BBX 7 9 0 0
BITMAP
900C
6018
3024
2420
1820
0C50
0980
0680
0340
ENDCHAR
STARTCHAR w
ENCODING 119
SWIDTH 683 0
DWIDTH 12 0
BBX 12 9 0 0
BITMAP
901802
602C06
302909
24660C
189218
088224
088160
0641A0
0740D0
ENDCHAR
STARTCHAR x
ENCODING 120
SWIDTH 413 0
DWIDTH 7 0
BBX 7 9 0 0
BITMAP
6018
2430
0C90
0680
0340
0A80
0860
2424
6018
ENDCHAR
STARTCHAR y
ENCODING 121
SWIDTH 459 0
DWIDTH 8 0
BBX 8 11 0 -2
BITMAP
6006
3009
240C
1818
0C20
0520
0290
02C0
0180
0240
2900
ENDCHAR
STARTCHAR z
ENCODING 122
SWIDTH 405 0
DWIDTH 7 0
BBX 7 9 0 0
BITMAP
6AB8
0030
0090
0180
0340
0A00
1C00
2400
7AA8
ENDCHAR
STARTCHAR braceleft
ENCODING 123
SWIDTH 298 0
DWIDTH 5 0
BBX 5 13 0 -2
BITMAP
0640
0800
0800
0800
0800
1800
7400
1800
0800
0800
0800
0800
0640
ENDCHAR
STARTCHAR bar
ENCODING 124
SWIDTH 207 0
DWIDTH 4 0
BBX 2 11 1 0
BITMAP
90
90
90
90
90
90
90
90
90
90
90
ENDCHAR
STARTCHAR braceright
ENCODING 125
SWIDTH 298 0
DWIDTH 5 0
BBX 5 13 0 -2
BITMAP
6400
0800
0800
0800
0800
0800
0740
0900
0800
0800
0800
0800
6400
ENDCHAR
STARTCHAR asciitilde
ENCODING 126
SWIDTH 523 0
DWIDTH 9 0
BBX 7 1 1 5
BITMAP
6AA8
ENDCHAR
STARTCHAR uni00A0
ENCODING 160
SWIDTH 267 0
DWIDTH 5 0
BBX 1 1 0 0
BITMAP
00
ENDCHAR
STARTCHAR exclamdown
ENCODING 161
SWIDTH 237 0
DWIDTH 4 0
BBX 2 11 1 0
BITMAP
60
60
50
50
60
60
60
60
60
60
60
ENDCHAR
STARTCHAR cent
ENCODING 162
SWIDTH 414 0
DWIDTH 7 0
BBX 6 13 1 -2
BITMAP
0200
0200
2AA0
9000
8000
8000
8000
8000
8000
9000
2AA0
0200
0100
ENDCHAR
STARTCHAR sterling
ENCODING 163
SWIDTH 528 0
DWIDTH 10 0
BBX 9 11 0 0
BITMAP
06A900
0C0300
0C0200
0C0000
0C0000
6EA000
0C0000
0C0000
0C0000
180000
7EAA40
ENDCHAR
STARTCHAR yen
ENCODING 165
SWIDTH 499 0
DWIDTH 9 0
BBX 9 11 0 0
BITMAP
600240
240600
180900
091800
062400
6B7A40
00C000
6AEA40
00C000
00C000
00C000
ENDCHAR
STARTCHAR brokenbar
ENCODING 166
SWIDTH 201 0
DWIDTH 4 0
BBX 2 11 1 0
BITMAP
90
90
90
90
90
00
90
90
90
90
90
ENDCHAR
STARTCHAR section
ENCODING 167
SWIDTH 454 0
DWIDTH 8 0
BBX 6 11 1 0
BITMAP
6A90
9000
C000
E500
C6A0
C030
6520
05B0
0030
0030
AA90
ENDCHAR
STARTCHAR dieresis
ENCODING 168
SWIDTH 345 0
DWIDTH 6 0
BBX 4 2 1 10
BITMAP
82
83
ENDCHAR
STARTCHAR copyright
ENCODING 169
SWIDTH 723 0
DWIDTH 13 0
BBX 11 11 1 0
BITMAP
2AAAA0
900018
81A908
820208
820108
820008
820208
820208
81A908
900018
2AAAA0
ENDCHAR
STARTCHAR guillemotleft
ENCODING 171
SWIDTH 431 0
DWIDTH 8 0
BBX 6 6 1 2
BITMAP
0410
1890
6240
8600
6240
1890
ENDCHAR
STARTCHAR registered
ENCODING 174
SWIDTH 439 0
DWIDTH 8 0
BBX 6 6 1 6
BITMAP
6A80
8E20
8520
8E20
8520
2A80
ENDCHAR
STARTCHAR macron
ENCODING 175
SWIDTH 358 0
DWIDTH 6 0
BBX 4 1 1 10
BITMAP
AA
ENDCHAR
STARTCHAR degree
ENCODING 176
SWIDTH 298 0
DWIDTH 5 0
BBX 3 4 1 8
BITMAP
78
88
88
78
ENDCHAR
STARTCHAR plusminus
ENCODING 177
SWIDTH 523 0
DWIDTH 9 0
BBX 7 7 1 2
BITMAP
0200
0200
ABE8
0200
0200
0000
AAA8
ENDCHAR
STARTCHAR acute
ENCODING 180
SWIDTH 269 0
DWIDTH 5 0
BBX 3 3 1 9
BITMAP
24
60
40
ENDCHAR
STARTCHAR paragraph
ENCODING 182
SWIDTH 513 0
DWIDTH 9 0
BBX 7 11 1 0
BITMAP
7EB8
FC08
FC08
FC08
FC08
1C08
0808
0808
0808
0808
0808
ENDCHAR
STARTCHAR periodcentered
ENCODING 183
SWIDTH 207 0
DWIDTH 4 0
BBX 2 3 1 4
BITMAP
90
90
90
ENDCHAR
STARTCHAR cedilla
ENCODING 184
SWIDTH 257 0
DWIDTH 5 0
BBX 3 4 1 -3
BITMAP
60
A0
14
A0
ENDCHAR
STARTCHAR guillemotright
ENCODING 187
SWIDTH 431 0
DWIDTH 8 0
BBX 6 6 1 2
BITMAP
4400
6200
1880
0860
2580
9200
ENDCHAR
STARTCHAR questiondown
ENCODING 191
SWIDTH 473 0
DWIDTH 9 0
BBX 7 11 1 0
BITMAP
0600
0600
0600
0000
0600
0900
2800
5000
9024
9030
2A90
ENDCHAR
STARTCHAR Agrave
ENCODING 192
SWIDTH 532 0
DWIDTH 10 0
BBX 9 15 0 0
BITMAP
070000
018000
004000
000000
00E000
01B000
026400
031800
060C00
090900
0C0600
1EAB00
240240
300180
6000C0
ENDCHAR
STARTCHAR Aacute
ENCODING 193
SWIDTH 532 0
DWIDTH 10 0
BBX 9 15 0 0
BITMAP
001800
002000
005000
000000
00E000
01B000
026400
031800
060C00
090900
0C0600
1EAB00
240240
300180
6000C0
ENDCHAR
STARTCHAR Acircumflex
ENCODING 194
SWIDTH 532 0
DWIDTH 10 0
BBX 9 15 0 0
BITMAP
009000
016000
010400
000000
00E000
01B000
026400
031800
060C00
090900
0C0600
1EAB00
240240
300180
6000C0
ENDCHAR
STARTCHAR Atilde
ENCODING 195
SWIDTH 532 0
DWIDTH 10 0
BBX 9 15 0 0
BITMAP
012400
014800
024400
000000
00E000
01B000
026400
031800
060C00
090900
0C0600
1EAB00
240240
300180
6000C0
ENDCHAR
STARTCHAR Adieresis
ENCODING 196
SWIDTH 532 0
DWIDTH 10 0
BBX 9 15 0 0
BITMAP
021800
021800
000000
000000
00E000
01B000
026400
031800
060C00
090900
0C0600
1EAB00
240240
300180
6000C0
ENDCHAR
STARTCHAR Aring
ENCODING 197
SWIDTH 532 0
DWIDTH 10 0
BBX 9 16 0 0
BITMAP
01A000
021400
021400
021400
01A000
00E000
01B000
026400
031800
060C00
090900
0C0600
1EAB00
240240
300180
6000C0
ENDCHAR
STARTCHAR AE
ENCODING 198
SWIDTH 773 0
DWIDTH 14 0
BBX 13 11 0 0
BITMAP
000FAA80
002A0000
00660000
00960000
01860000
0207AA00
05060000
0EAE0000
24060000
60060000
9007AA80
ENDCHAR
STARTCHAR Ccedilla
ENCODING 199
SWIDTH 542 0
DWIDTH 10 0
BBX 8 14 1 -3
BITMAP
2AA8
6009
9006
9001
9000
9000
9000
9001
9006
6009
2AA8
0240
0090
0280
ENDCHAR
STARTCHAR Egrave
ENCODING 200
SWIDTH 481 0
DWIDTH 9 0
BBX 7 15 1 0
BITMAP
1C00
0600
0100
0000
7AA4
5000
5000
5000
5000
7AA0
5000
5000
5000
5000
7AA4
ENDCHAR
STARTCHAR Eacute
ENCODING 201
SWIDTH 481 0
DWIDTH 9 0
BBX 7 15 1 0
BITMAP
00D0
0140
0100
0000
7AA4
5000
5000
5000
5000
7AA0
5000
5000
5000
5000
7AA4
ENDCHAR
STARTCHAR Ecircumflex
ENCODING 202
SWIDTH 481 0
DWIDTH 9 0
BBX 7 15 1 0
BITMAP
0640
0880
0440
0000
7AA4
5000
5000
5000
5000
7AA0
5000
5000
5000
5000
7AA4
ENDCHAR
STARTCHAR Edieresis
ENCODING 203
SWIDTH 481 0
DWIDTH 9 0
BBX 7 15 1 0
BITMAP
1450
1450
0000
0000
7AA4
5000
5000
5000
5000
7AA0
5000
5000
5000
5000
7AA4
ENDCHAR
STARTCHAR Igrave
ENCODING 204
SWIDTH 230 0
DWIDTH 4 0
BBX 3 15 0 0
BITMAP
90
20
10
00
14
18
18
18
18
18
18
18
18
18
14
ENDCHAR
STARTCHAR Iacute
ENCODING 205
SWIDTH 231 0
DWIDTH 4 0
BBX 3 15 1 0
BITMAP
1C
24
10
00
50
60
60
60
60
60
60
60
60
60
50
ENDCHAR
STARTCHAR Icircumflex
ENCODING 206
SWIDTH 229 0
DWIDTH 4 0
BBX 4 15 0 0
BITMAP
28
65
41
00
14
18
18
18
18
18
18
18
18
18
14
ENDCHAR
STARTCHAR Idieresis
ENCODING 207
SWIDTH 230 0
DWIDTH 4 0
BBX 4 15 0 0
BITMAP
83
C3
00
00
14
18
18
18
18
18
18
18
18
18
14
ENDCHAR
STARTCHAR Eth
ENCODING 208
SWIDTH 514 0
DWIDTH 9 0
BBX 9 11 0 0
BITMAP
1EAA00
140180
140180
140180
140180
7E9180
140180
140180
140180
140180
1EAA00
ENDCHAR
STARTCHAR Ntilde
ENCODING 209
SWIDTH 579 0
DWIDTH 10 0
BBX 8 15 1 0
BITMAP
04A0
0890
0610
0000
6003
7403
6803
5903
5303
5183
5093
5023
501B
500B
5007
ENDCHAR
STARTCHAR Ograve
ENCODING 210
SWIDTH 553 0
DWIDTH 10 0
BBX 8 15 1 0
BITMAP
0900
0200
0100
0000
2AA8
6009
9006
9006
9006
9006
9006
9006
9006
6009
2AA8
ENDCHAR
STARTCHAR Oacute
ENCODING 211
SWIDTH 553 0
DWIDTH 10 0
BBX 8 15 1 0
BITMAP
0060
0080
0140
0000
2AA8
6009
9006
9006
9006
9006
9006
9006
9006
6009
2AA8
ENDCHAR
STARTCHAR Ocircumflex
ENCODING 212
SWIDTH 553 0
DWIDTH 10 0
BBX 8 15 1 0
BITMAP
0280
0590
0410
0000
2AA8
6009
9006
9006
9006
9006
9006
9006
9006
6009
2AA8
ENDCHAR
STARTCHAR Otilde
ENCODING 213
SWIDTH 553 0
DWIDTH 10 0
BBX 8 15 1 0
BITMAP
04A0
0960
0A10
0000
2AA8
6009
9006
9006
9006
9006
9006
9006
9006
6009
2AA8
ENDCHAR
STARTCHAR Odieresis
ENCODING 214
SWIDTH 553 0
DWIDTH 10 0
BBX 8 15 1 0
BITMAP
0C30
0C30
0000
0000
2AA8
6009
9006
9006
9006
9006
9006
9006
9006
6009
2AA8
ENDCHAR
STARTCHAR multiply
ENCODING 215
SWIDTH 493 0
DWIDTH 9 0
BBX 5 6 2 3
BITMAP
4040
9180
2A00
2D00
6240
8080
ENDCHAR
STARTCHAR Oslash
ENCODING 216
SWIDTH 559 0
DWIDTH 10 0
BBX 8 11 1 0
BITMAP
2AA9
600A
900E
9026
9096
9146
9606
9806
B406
A009
AEA8
ENDCHAR
STARTCHAR Ugrave
ENCODING 217
SWIDTH 552 0
DWIDTH 10 0
BBX 8 15 1 0
BITMAP
0900
0200
0140
0000
9005
9006
9006
9006
9006
9006
9006
9006
9005
6009
2EB8
ENDCHAR
STARTCHAR Uacute
ENCODING 218
SWIDTH 552 0
DWIDTH 10 0
BBX 8 15 1 0
BITMAP
0060
0080
0140
0000
9005
9006
9006
9006
9006
9006
9006
9006
9005
6009
2EB8
ENDCHAR
STARTCHAR Ucircumflex
ENCODING 219
SWIDTH 552 0
DWIDTH 10 0
BBX 8 15 1 0
BITMAP
0280
0590
0410
0000
9005
9006
9006
9006
9006
9006
9006
9006
9005
6009
2EB8
ENDCHAR
STARTCHAR Udieresis
ENCODING 220
SWIDTH 552 0
DWIDTH 10 0
BBX 8 15 1 0
BITMAP
0C30
0C30
0000
0000
9005
9006
9006
9006
9006
9006
9006
9006
9005
6009
2EB8
ENDCHAR
STARTCHAR Yacute
ENCODING 221
SWIDTH 493 0
DWIDTH 9 0
BBX 9 15 0 0
BITMAP
003400
005000
004000
000000
600240
240600
180900
091800
062000
02A000
01C000
00C000
00C000
00C000
00C000
ENDCHAR
STARTCHAR Thorn
ENCODING 222
SWIDTH 501 0
DWIDTH 9 0
BBX 6 11 2 0
BITMAP
C000
C000
EA80
C0A0
C060
C020
C060
C090
EA80
C000
C000
ENDCHAR
STARTCHAR germandbls
ENCODING 223
SWIDTH 540 0
DWIDTH 10 0
BBX 8 11 1 0
BITMAP
2EA4
600C
9009
9009
900C
91F4
9009
9005
9005
9009
92B8
ENDCHAR
STARTCHAR agrave
ENCODING 224
SWIDTH 502 0
DWIDTH 9 0
BBX 7 12 1 0
BITMAP
0900
0200
0000
2AB8
9018
8018
8018
8018
8018
8018
9028
2AA8
ENDCHAR
STARTCHAR aacute
ENCODING 225
SWIDTH 502 0
DWIDTH 9 0
BBX 7 12 1 0
BITMAP
0090
0140
0000
2AB8
9018
8018
8018
8018
8018
8018
9028
2AA8
ENDCHAR
STARTCHAR acircumflex
ENCODING 226
SWIDTH 502 0
DWIDTH 9 0
BBX 7 12 1 0
BITMAP
0240
0890
0000
2AB8
9018
8018
8018
8018
8018
8018
9028
2AA8
ENDCHAR
STARTCHAR atilde
ENCODING 227
SWIDTH 504 0
DWIDTH 9 0
BBX 7 12 1 0
BITMAP
09E0
0A10
0000
2AB8
9018
8018
8018
8018
8018
8018
9028
2AA8
ENDCHAR
STARTCHAR adieresis
ENCODING 228
SWIDTH 502 0
DWIDTH 9 0
BBX 7 12 1 0
BITMAP
0820
0860
0000
2AB8
9018
8018
8018
8018
8018
8018
9028
2AA8
ENDCHAR
STARTCHAR aring
ENCODING 229
SWIDTH 502 0
DWIDTH 9 0
BBX 7 13 1 0
BITMAP
0A80
0880
0A80
0000
2AB8
9018
8018
8018
8018
8018
8018
9028
2AA8
ENDCHAR
STARTCHAR ae
ENCODING 230
SWIDTH 795 0
DWIDTH 14 0
BBX 12 9 1 0
BITMAP
2AA6A9
002C03
001802
2AB802
901EAB
801800
801800
902C00
2A97AA
ENDCHAR
STARTCHAR ccedilla
ENCODING 231
SWIDTH 394 0
DWIDTH 7 0
BBX 6 12 1 -3
BITMAP
2A90
9000
8000
8000
8000
8000
8000
9000
2A90
0600
0180
0740
ENDCHAR
STARTCHAR egrave
ENCODING 232
SWIDTH 492 0
DWIDTH 9 0
BBX 7 12 1 0
BITMAP
1C00
0600
0000
2AA0
9018
8008
8008
BAB8
8000
8000
9000
2AA4
ENDCHAR
STARTCHAR eacute
ENCODING 233
SWIDTH 492 0
DWIDTH 9 0
BBX 7 12 1 0
BITMAP
0180
0200
0000
2AA0
9018
8008
8008
BAB8
8000
8000
9000
2AA4
ENDCHAR
STARTCHAR ecircumflex
ENCODING 234
SWIDTH 492 0
DWIDTH 9 0
BBX 7 12 1 0
BITMAP
0640
0880
0000
2AA0
9018
8008
8008
BAB8
8000
8000
9000
2AA4
ENDCHAR
STARTCHAR edieresis
ENCODING 235
SWIDTH 492 0
DWIDTH 9 0
BBX 7 12 1 0
BITMAP
1450
1450
0000
2AA0
9018
8008
8008
BAB8
8000
8000
9000
2AA4
ENDCHAR
STARTCHAR igrave
ENCODING 236
SWIDTH 210 0
DWIDTH 4 0
BBX 3 12 0 0
BITMAP
90
20
00
24
24
24
24
24
24
24
24
24
ENDCHAR
STARTCHAR iacute
ENCODING 237
SWIDTH 208 0
DWIDTH 4 0
BBX 3 12 1 0
BITMAP
18
60
00
90
90
90
90
90
90
90
90
90
ENDCHAR
STARTCHAR icircumflex
ENCODING 238
SWIDTH 210 0
DWIDTH 4 0
BBX 4 12 0 0
BITMAP
28
95
00
24
24
24
24
24
24
24
24
24
ENDCHAR
STARTCHAR idieresis
ENCODING 239
SWIDTH 210 0
DWIDTH 4 0
BBX 4 12 0 0
BITMAP
82
C2
00
24
24
24
24
24
24
24
24
24
ENDCHAR
STARTCHAR eth
ENCODING 240
SWIDTH 488 0
DWIDTH 9 0
BBX 7 12 1 0
BITMAP
1860
0A80
0740
2490
0034
2AA8
9028
8018
8018
8018
9024
2AA0
ENDCHAR
STARTCHAR ntilde
ENCODING 241
SWIDTH 507 0
DWIDTH 9 0
BBX 7 12 1 0
BITMAP
16D0
1E10
0000
9AA0
A018
900C
900C
900C
900C
900C
900C
9008
ENDCHAR
STARTCHAR ograve
ENCODING 242
SWIDTH 496 0
DWIDTH 9 0
BBX 7 12 1 0
BITMAP
1800
0600
0000
2AA0
9018
8008
8008
8008
8008
8008
9018
2AA0
ENDCHAR
STARTCHAR oacute
ENCODING 243
SWIDTH 496 0
DWIDTH 9 0
BBX 7 12 1 0
BITMAP
0090
0240
0000
2AA0
9018
8008
8008
8008
8008
8008
9018
2AA0
ENDCHAR
STARTCHAR ocircumflex
ENCODING 244
SWIDTH 496 0
DWIDTH 9 0
BBX 7 12 1 0
BITMAP
0640
0880
0000
2AA0
9018
8008
8008
8008
8008
8008
9018
2AA0
ENDCHAR
STARTCHAR otilde
ENCODING 245
SWIDTH 496 0
DWIDTH 9 0
BBX 7 12 1 0
BITMAP
12D0
1D50
0000
2AA0
9018
8008
8008
8008
8008
8008
9018
2AA0
ENDCHAR
STARTCHAR odieresis
ENCODING 246
SWIDTH 496 0
DWIDTH 9 0
BBX 7 12 1 0
BITMAP
1450
1490
0000
2AA0
9018
8008
8008
8008
8008
8008
9018
2AA0
ENDCHAR
STARTCHAR divide
ENCODING 247
SWIDTH 510 0
DWIDTH 9 0
BBX 7 7 1 2
BITMAP
0200
0200
0000
6AA8
0000
0000
0200
ENDCHAR
STARTCHAR oslash
ENCODING 248
SWIDTH 521 0
DWIDTH 9 0
BBX 9 9 0 0
BITMAP
0AA840
180740
240B00
242700
249300
264300
2D0300
280600
5BA800
ENDCHAR
STARTCHAR ugrave
ENCODING 249
SWIDTH 507 0
DWIDTH 9 0
BBX 7 12 1 0
BITMAP
1800
0600
0000
8008
8008
8008
8008
8008
8008
9008
9018
2A98
ENDCHAR
STARTCHAR uacute
ENCODING 250
SWIDTH 507 0
DWIDTH 9 0
BBX 7 12 1 0
BITMAP
0090
0240
0000
8008
8008
8008
8008
8008
8008
9008
9018
2A98
ENDCHAR
STARTCHAR ucircumflex
ENCODING 251
SWIDTH 507 0
DWIDTH 9 0
BBX 7 12 1 0
BITMAP
0640
0880
0000
8008
8008
8008
8008
8008
8008
9008
9018
2A98
ENDCHAR
STARTCHAR udieresis
ENCODING 252
SWIDTH 507 0
DWIDTH 9 0
BBX 7 12 1 0
BITMAP
1450
1450
0000
8008
8008
8008
8008
8008
8008
9008
9018
2A98
ENDCHAR
STARTCHAR yacute
ENCODING 253
SWIDTH 459 0
DWIDTH 8 0
BBX 8 14 0 -2
BITMAP
0060
0080
0000
6006
3009
240C
1818
0C20
0520
0290
02C0
0180
0240
2900
ENDCHAR
STARTCHAR thorn
ENCODING 254
SWIDTH 508 0
DWIDTH 9 0
BBX 7 14 1 -2
BITMAP
9000
9000
9000
AAA0
A018
900C
900C
900C
900C
900C
A018
AAA0
9000
9000
ENDCHAR
STARTCHAR ydieresis
ENCODING 255
SWIDTH 459 0
DWIDTH 8 0
BBX 8 14 0 -2
BITMAP
0820
0820
0000
6006
3009
240C
1818
0C20
0520
0290
02C0
0180
0240
2900
ENDCHAR
STARTCHAR Amacron
ENCODING 256
SWIDTH 532 0
DWIDTH 10 0
BBX 9 14 0 0
BITMAP
02A800
000000
000000
00E000
01B000
026400
031800
060C00
090900
0C0600
1EAB00
240240
300180
6000C0
ENDCHAR
STARTCHAR amacron
ENCODING 257
SWIDTH 502 0
DWIDTH 9 0
BBX 7 11 1 0
BITMAP
0AA0
0000
2AB8
9018
8018
8018
8018
8018
8018
9028
2AA8
ENDCHAR
STARTCHAR Abreve
ENCODING 258
SWIDTH 532 0
DWIDTH 10 0
BBX 9 15 0 0
BITMAP
020800
021400
01A000
000000
00E000
01B000
026400
031800
060C00
090900
0C0600
1EAB00
240240
300180
6000C0
ENDCHAR
STARTCHAR abreve
ENCODING 259
SWIDTH 502 0
DWIDTH 9 0
BBX 7 12 1 0
BITMAP
0820
0680
0000
2AB8
9018
8018
8018
8018
8018
8018
9028
2AA8
ENDCHAR
STARTCHAR Aogonek
ENCODING 260
SWIDTH 532 0
DWIDTH 10 0
BBX 9 13 0 -2
BITMAP
00E000
01B000
026400
031800
060C00
090900
0C0600
1EAB00
240240
300180
6000C0
000100
000240
ENDCHAR
STARTCHAR aogonek
ENCODING 261
SWIDTH 502 0
DWIDTH 9 0
BBX 7 11 1 -2
BITMAP
2AB8
9018
8018
8018
8018
8018
8018
9028
2AA8
0020
0064
ENDCHAR
STARTCHAR Cacute
ENCODING 262
SWIDTH 542 0
DWIDTH 10 0
BBX 8 15 1 0
BITMAP
0060
0080
0140
0000
2AA8
6009
9006
9001
9000
9000
9000
9001
9006
6009
2AA8
ENDCHAR
STARTCHAR cacute
ENCODING 263
SWIDTH 394 0
DWIDTH 7 0
BBX 6 12 1 0
BITMAP
0180
0200
0000
2A90
9000
8000
8000
8000
8000
8000
9000
2A90
ENDCHAR
STARTCHAR Cdotaccent
ENCODING 266
SWIDTH 542 0
DWIDTH 10 0
BBX 8 15 1 0
BITMAP
0140
0140
0000
0000
2AA8
6009
9006
9001
9000
9000
9000
9001
9006
6009
2AA8
ENDCHAR
STARTCHAR cdotaccent
ENCODING 267
SWIDTH 394 0
DWIDTH 7 0
BBX 6 12 1 0
BITMAP
0600
0600
0000
2A90
9000
8000
8000
8000
8000
8000
9000
2A90
ENDCHAR
STARTCHAR Ccaron
ENCODING 268
SWIDTH 542 0
DWIDTH 10 0
BBX 8 15 1 0
BITMAP
0960
0280
0140
0000
2AA8
6009
9006
9001
9000
9000
9000
9001
9006
6009
2AA8
ENDCHAR
STARTCHAR ccaron
ENCODING 269
SWIDTH 394 0
DWIDTH 7 0
BBX 6 12 1 0
BITMAP
1880
0A00
0000
2A90
9000
8000
8000
8000
8000
8000
9000
2A90
ENDCHAR
STARTCHAR Dcaron
ENCODING 270
SWIDTH 557 0
DWIDTH 10 0
BBX 8 15 1 0
BITMAP
0950
0280
0140
0000
7AA8
5009
5006
5006
5006
5006
5006
5006
5006
5009
7AA8
ENDCHAR
STARTCHAR dcaron
ENCODING 271
SWIDTH 534 0
DWIDTH 10 0
BBX 9 12 1 0
BITMAP
000980
001980
001940
2FD940
A02800
801800
801800
801800
801800
801800
902800
2A9800
ENDCHAR
STARTCHAR Dcroat
ENCODING 272
SWIDTH 514 0
DWIDTH 9 0
BBX 9 11 0 0
BITMAP
1EAA00
140180
140180
140180
7E9180
140180
140180
140180
140180
140180
1EAA00
ENDCHAR
STARTCHAR dcroat
ENCODING 273
SWIDTH 539 0
DWIDTH 10 0
BBX 8 12 1 0
BITMAP
0008
06BE
0018
0018
2A98
9028
8018
8018
8018
8018
9028
2A98
ENDCHAR
STARTCHAR Emacron
ENCODING 274
SWIDTH 481 0
DWIDTH 9 0
BBX 7 14 1 0
BITMAP
1A90
0000
0000
7AA4
5000
5000
5000
5000
7AA0
5000
5000
5000
5000
7AA4
ENDCHAR
STARTCHAR emacron
ENCODING 275
SWIDTH 492 0
DWIDTH 9 0
BBX 7 11 1 0
BITMAP
1A90
0000
2AA0
9018
8008
8008
BAB8
8000
8000
9000
2AA4
ENDCHAR
STARTCHAR Ebreve
ENCODING 276
SWIDTH 481 0
DWIDTH 9 0
BBX 7 15 1 0
BITMAP
1440
1480
0640
0000
7AA4
5000
5000
5000
5000
7AA0
5000
5000
5000
5000
7AA4
ENDCHAR
STARTCHAR ebreve
ENCODING 277
SWIDTH 492 0
DWIDTH 9 0
BBX 7 12 1 0
BITMAP
1450
0A40
0000
2AA0
9018
8008
8008
BAB8
8000
8000
9000
2AA4
ENDCHAR
STARTCHAR Edotaccent
ENCODING 278
SWIDTH 496 0
DWIDTH 9 0
BBX 7 15 1 0
BITMAP
0300
0300
0000
0000
7AA4
5000
5000
5000
5000
7AA0
5000
5000
5000
5000
7AA4
ENDCHAR
STARTCHAR edotaccent
ENCODING 279
SWIDTH 492 0
DWIDTH 9 0
BBX 7 12 1 0
BITMAP
0300
0300
0000
2AA0
9018
8008
8008
BAB8
8000
8000
9000
2AA4
ENDCHAR
STARTCHAR Eogonek
ENCODING 280
SWIDTH 481 0
DWIDTH 9 0
BBX 7 13 1 -2
BITMAP
7AA4
5000
5000
5000
5000
7AA0
5000
5000
5000
5000
7AA4
0080
0190
ENDCHAR
STARTCHAR eogonek
ENCODING 281
SWIDTH 492 0
DWIDTH 9 0
BBX 7 11 1 -2
BITMAP
2AA0
9018
8008
8008
BAB8
8000
8000
9000
2AA4
0040
0090
ENDCHAR
STARTCHAR Ecaron
ENCODING 282
SWIDTH 481 0
DWIDTH 9 0
BBX 7 15 1 0
BITMAP
0880
0680
0100
0000
7AA4
5000
5000
5000
5000
7AA0
5000
5000
5000
5000
7AA4
ENDCHAR
STARTCHAR ecaron
ENCODING 283
SWIDTH 492 0
DWIDTH 9 0
BBX 7 12 1 0
BITMAP
0880
0640
0000
2AA0
9018
8008
8008
BAB8
8000
8000
9000
2AA4
ENDCHAR
STARTCHAR Gcircumflex
ENCODING 284
SWIDTH 539 0
DWIDTH 10 0
BBX 8 15 1 0
BITMAP
0280
0580
0410
0000
2AA4
6009
9009
9000
9000
90AD
9009
9009
9009
6008
2AA4
ENDCHAR
STARTCHAR gcircumflex
ENCODING 285
SWIDTH 506 0
DWIDTH 9 0
BBX 7 14 1 -2
BITMAP
0280
0850
0000
2AB8
9008
8008
8008
8008
8008
A028
2A98
0018
0018
2AA0
ENDCHAR
STARTCHAR Gbreve
ENCODING 286
SWIDTH 539 0
DWIDTH 10 0
BBX 8 15 1 0
BITMAP
0820
0810
0680
0000
2AA4
6009
9009
9000
9000
90AD
9009
9009
9009
6008
2AA4
ENDCHAR
STARTCHAR gbreve
ENCODING 287
SWIDTH 506 0
DWIDTH 9 0
BBX 7 14 1 -2
BITMAP
0820
0690
0000
2AB8
9008
8008
8008
8008
8008
A028
2A98
0018
0018
2AA0
ENDCHAR
STARTCHAR Gdotaccent
ENCODING 288
SWIDTH 539 0
DWIDTH 10 0
BBX 8 15 1 0
BITMAP
0240
0240
0000
0000
2AA4
6009
9009
9000
9000
90AD
9009
9009
9009
6008
2AA4
ENDCHAR
STARTCHAR gdotaccent
ENCODING 289
SWIDTH 506 0
DWIDTH 9 0
BBX 7 14 1 -2
BITMAP
0140
0140
0000
2AB8
9008
8008
8008
8008
8008
A028
2A98
0018
0018
2AA0
ENDCHAR
STARTCHAR uni0122
ENCODING 290
SWIDTH 539 0
DWIDTH 10 0
BBX 8 15 1 -4
BITMAP
2AA4
6009
9009
9000
9000
90AD
9009
9009
9009
6008
2AA4
0180
0180
0140
0100
ENDCHAR
STARTCHAR uni0123
ENCODING 291
SWIDTH 506 0
DWIDTH 9 0
BBX 7 16 1 -2
BITMAP
0040
0140
0240
0240
0000
2AB8
9008
8008
8008
8008
8008
A028
2A98
0018
0018
2AA0
ENDCHAR
STARTCHAR hcircumflex
ENCODING 293
SWIDTH 507 0
DWIDTH 9 0
BBX 7 14 1 0
BITMAP
0140
0280
9950
9000
9000
AAA0
A018
900C
900C
900C
900C
900C
900C
9008
ENDCHAR
STARTCHAR Hbar
ENCODING 294
SWIDTH 523 0
DWIDTH 9 0
BBX 10 11 0 0
BITMAP
140080
180080
7EABE0
180080
180080
1EAB80
180080
180080
180080
180080
140080
ENDCHAR
STARTCHAR hbar
ENCODING 295
SWIDTH 544 0
DWIDTH 10 0
BBX 9 12 0 0
BITMAP
0C0000
7EA000
0C0000
0C0000
0DA900
0D0240
0C0180
0C0180
0C0180
0C0180
0C0180
0C0180
ENDCHAR
STARTCHAR Itilde
ENCODING 296
SWIDTH 230 0
DWIDTH 4 0
BBX 4 15 0 0
BITMAP
4A
96
A1
00
14
18
18
18
18
18
18
18
18
18
14
ENDCHAR
STARTCHAR itilde
ENCODING 297
SWIDTH 210 0
DWIDTH 4 0
BBX 4 12 0 0
BITMAP
9E
A1
00
24
24
24
24
24
24
24
24
24
ENDCHAR
STARTCHAR Imacron
ENCODING 298
SWIDTH 230 0
DWIDTH 4 0
BBX 4 14 0 0
BITMAP
AA
00
00
14
18
18
18
18
18
18
18
18
18
14
ENDCHAR
STARTCHAR imacron
ENCODING 299
SWIDTH 208 0
DWIDTH 4 0
BBX 4 11 0 0
BITMAP
AA
00
24
24
24
24
24
24
24
24
24
ENDCHAR
STARTCHAR Ibreve
ENCODING 300
SWIDTH 231 0
DWIDTH 4 0
BBX 4 15 0 0
BITMAP
82
82
29
00
14
18
18
18
18
18
18
18
18
18
14
ENDCHAR
STARTCHAR ibreve
ENCODING 301
SWIDTH 211 0
DWIDTH 4 0
BBX 4 12 0 0
BITMAP
82
69
00
24
24
24
24
24
24
24
24
24
ENDCHAR
STARTCHAR Iogonek
ENCODING 302
SWIDTH 230 0
DWIDTH 4 0
BBX 3 13 0 -2
BITMAP
14
18
18
18
18
18
18
18
18
18
14
20
64
ENDCHAR
STARTCHAR iogonek
ENCODING 303
SWIDTH 210 0
DWIDTH 4 0
BBX 3 14 0 -2
BITMAP
24
24
00
24
24
24
24
24
24
24
24
24
10
60
ENDCHAR
STARTCHAR Idotaccent
ENCODING 304
SWIDTH 230 0
DWIDTH 4 0
BBX 2 14 1 0
BITMAP
60
50
00
50
60
60
60
60
60
60
60
60
60
50
ENDCHAR
STARTCHAR dotlessi
ENCODING 305
SWIDTH 212 0
DWIDTH 4 0
BBX 2 9 1 0
BITMAP
90
90
90
90
90
90
90
90
90
ENDCHAR
STARTCHAR IJ
ENCODING 306
SWIDTH 721 0
DWIDTH 13 0
BBX 11 11 1 0
BITMAP
600018
600018
600018
600018
600018
600018
600018
618018
618018
60C024
606AE0
ENDCHAR
STARTCHAR ij
ENCODING 307
SWIDTH 419 0
DWIDTH 8 0
BBX 5 14 1 -2
BITMAP
9080
9080
0000
9080
9080
9080
9080
9080
9080
9080
9080
9080
00C0
0A40
ENDCHAR
STARTCHAR Jcircumflex
ENCODING 308
SWIDTH 494 0
DWIDTH 9 0
BBX 9 15 0 0
BITMAP
000A00
001940
001040
000000
000600
000600
000600
000600
000600
000600
000600
600600
600600
300900
1AB800
ENDCHAR
STARTCHAR jcircumflex
ENCODING 309
SWIDTH 209 0
DWIDTH 4 0
BBX 5 14 -1 -2
BITMAP
0A00
2540
0000
0900
0900
0900
0900
0900
0900
0900
0900
0900
0C00
B400
ENDCHAR
STARTCHAR uni0136
ENCODING 310
SWIDTH 530 0
DWIDTH 10 0
BBX 8 15 1 -4
BITMAP
5009
5024
5060
51C0
5340
5B40
74C0
6060
5024
5008
5006
0040
0180
0180
0140
ENDCHAR
STARTCHAR uni0137
ENCODING 311
SWIDTH 431 0
DWIDTH 8 0
BBX 7 16 1 -4
BITMAP
9000
9000
9000
9030
9090
9180
9300
9600
9240
9180
9060
9024
0200
0600
0500
0500
ENDCHAR
STARTCHAR Lacute
ENCODING 313
SWIDTH 451 0
DWIDTH 8 0
BBX 7 15 1 0
BITMAP
1800
2000
1000
0000
5000
5000
5000
5000
5000
5000
5000
5000
5000
5000
7AA4
ENDCHAR
STARTCHAR lacute
ENCODING 314
SWIDTH 207 0
DWIDTH 4 0
BBX 3 16 1 0
BITMAP
04
24
60
00
90
90
90
90
90
90
90
90
90
90
90
90
ENDCHAR
STARTCHAR uni013B
ENCODING 315
SWIDTH 451 0
DWIDTH 8 0
BBX 7 15 1 -4
BITMAP
5000
5000
5000
5000
5000
5000
5000
5000
5000
5000
7AA4
0300
0300
0200
0100
ENDCHAR
STARTCHAR uni013C
ENCODING 316
SWIDTH 211 0
DWIDTH 4 0
BBX 2 16 1 -4
BITMAP
90
90
90
90
90
90
90
90
90
90
90
90
90
90
80
40
ENDCHAR
STARTCHAR Lcaron
ENCODING 317
SWIDTH 451 0
DWIDTH 8 0
BBX 7 11 1 0
BITMAP
5050
5050
5050
5040
5000
5000
5000
5000
5000
5000
7AA4
ENDCHAR
STARTCHAR lcaron
ENCODING 318
SWIDTH 274 0
DWIDTH 5 0
BBX 4 12 1 0
BITMAP
96
96
95
94
90
90
90
90
90
90
90
90
ENDCHAR
STARTCHAR Ldot
ENCODING 319
SWIDTH 500 0
DWIDTH 9 0
BBX 7 11 1 0
BITMAP
5000
5000
5000
5000
50C0
50C0
5000
5000
5000
5000
7AA8
ENDCHAR
STARTCHAR ldot
ENCODING 320
SWIDTH 314 0
DWIDTH 6 0
BBX 4 12 1 0
BITMAP
90
90
90
90
90
93
93
90
90
90
90
90
ENDCHAR
STARTCHAR Lslash
ENCODING 321
SWIDTH 504 0
DWIDTH 9 0
BBX 8 11 0 0
BITMAP
1800
1800
1940
1E00
7800
5800
1800
1800
1800
1800
1EAA
ENDCHAR
STARTCHAR lslash
ENCODING 322
SWIDTH 296 0
DWIDTH 5 0
BBX 5 12 0 0
BITMAP
0800
0800
0800
0940
0E40
6C00
4800
0800
0800
0800
0800
0800
ENDCHAR
STARTCHAR Nacute
ENCODING 323
SWIDTH 579 0
DWIDTH 10 0
BBX 8 15 1 0
BITMAP
0034
0090
0040
0000
6003
7403
6803
5903
5303
5183
5093
5023
501B
500B
5007
ENDCHAR
STARTCHAR nacute
ENCODING 324
SWIDTH 507 0
DWIDTH 9 0
BBX 7 12 1 0
BITMAP
0090
0140
0000
9AA0
A018
900C
900C
900C
900C
900C
900C
9008
ENDCHAR
STARTCHAR uni0145
ENCODING 325
SWIDTH 579 0
DWIDTH 10 0
BBX 8 15 1 -4
BITMAP
6003
7403
6803
5903
5303
5183
5093
5023
501B
500B
5007
0180
0180
0140
0140
ENDCHAR
STARTCHAR uni0146
ENCODING 326
SWIDTH 505 0
DWIDTH 9 0
BBX 7 13 1 -4
BITMAP
9AA0
A018
900C
900C
900C
900C
900C
900C
9008
0300
0300
0200
0100
ENDCHAR
STARTCHAR Ncaron
ENCODING 327
SWIDTH 579 0
DWIDTH 10 0
BBX 8 15 1 0
BITMAP
0520
0290
0040
0000
6003
7403
6803
5903
5303
5183
5093
5023
501B
500B
5007
ENDCHAR
STARTCHAR ncaron
ENCODING 328
SWIDTH 507 0
DWIDTH 9 0
BBX 7 12 1 0
BITMAP
0880
0640
0000
9AA0
A018
900C
900C
900C
900C
900C
900C
9008
ENDCHAR
STARTCHAR Eng
ENCODING 330
SWIDTH 519 0
DWIDTH 9 0
BBX 8 13 1 -2
BITMAP
6003
7403
6C03
5A03
5303
5183
5093
5033
501B
500B
5007
0006
0068
ENDCHAR
STARTCHAR eng
ENCODING 331
SWIDTH 507 0
DWIDTH 9 0
BBX 7 11 1 -2
BITMAP
9AA0
A018
900C
900C
900C
900C
900C
900C
900C
0018
01A0
ENDCHAR
STARTCHAR Omacron
ENCODING 332
SWIDTH 553 0
DWIDTH 10 0
BBX 8 14 1 0
BITMAP
0AA0
0000
0000
2AA8
6009
9006
9006
9006
9006
9006
9006
9006
6009
2AA8
ENDCHAR
STARTCHAR omacron
ENCODING 333
SWIDTH 496 0
DWIDTH 9 0
BBX 7 11 1 0
BITMAP
1A90
0000
2AA0
9018
8008
8008
8008
8008
8008
9018
2AA0
ENDCHAR
STARTCHAR Obreve
ENCODING 334
SWIDTH 553 0
DWIDTH 10 0
BBX 8 15 1 0
BITMAP
0820
0820
0280
0000
2AA8
6009
9006
9006
9006
9006
9006
9006
9006
6009
2AA8
ENDCHAR
STARTCHAR obreve
ENCODING 335
SWIDTH 496 0
DWIDTH 9 0
BBX 7 12 1 0
BITMAP
1450
0A80
0000
2AA0
9018
8008
8008
8008
8008
8008
9018
2AA0
ENDCHAR
STARTCHAR Ohungarumlaut
ENCODING 336
SWIDTH 553 0
DWIDTH 10 0
BBX 8 15 1 0
BITMAP
0258
0620
0000
0000
2AA8
6009
9006
9006
9006
9006
9006
9006
9006
6009
2AA8
ENDCHAR
STARTCHAR ohungarumlaut
ENCODING 337
SWIDTH 496 0
DWIDTH 9 0
BBX 7 12 1 0
BITMAP
0224
0950
0000
2AA0
9018
8008
8008
8008
8008
8008
9018
2AA0
ENDCHAR
STARTCHAR OE
ENCODING 338
SWIDTH 775 0
DWIDTH 14 0
BBX 12 11 1 0
BITMAP
2ABEA9
601800
901800
901800
901800
901EA8
901800
901800
901800
601800
2ABEA9
ENDCHAR
STARTCHAR oe
ENCODING 339
SWIDTH 812 0
DWIDTH 15 0
BBX 13 9 1 0
BITMAP
2AA6A900
901C0240
80080140
80080140
800EAB40
80080000
80080000
901C0000
2AA6AA40
ENDCHAR
STARTCHAR Racute
ENCODING 340
SWIDTH 534 0
DWIDTH 10 0
BBX 8 15 1 0
BITMAP
00D0
0140
0100
0000
7AB4
5009
5009
5009
5009
7AF4
5060
5030
5018
500C
5009
ENDCHAR
STARTCHAR racute
ENCODING 341
SWIDTH 313 0
DWIDTH 6 0
BBX 4 12 1 0
BITMAP
09
14
00
9A
A0
90
90
90
90
90
90
90
ENDCHAR
STARTCHAR uni0156
ENCODING 342
SWIDTH 534 0
DWIDTH 10 0
BBX 8 15 1 -4
BITMAP
7AB4
5009
5009
5009
5009
7AF4
5060
5030
5018
500C
5009
0240
0240
0200
0100
ENDCHAR
STARTCHAR uni0157
ENCODING 343
SWIDTH 313 0
DWIDTH 6 0
BBX 4 13 1 -4
BITMAP
9A
A0
90
90
90
90
90
90
90
90
90
80
40
ENDCHAR
STARTCHAR Rcaron
ENCODING 344
SWIDTH 534 0
DWIDTH 10 0
BBX 8 15 1 0
BITMAP
0880
0680
0100
0000
7AB4
5009
5009
5009
5009
7AF4
5060
5030
5018
500C
5009
ENDCHAR
STARTCHAR rcaron
ENCODING 345
SWIDTH 313 0
DWIDTH 6 0
BBX 4 12 1 0
BITMAP
56
28
00
9A
A0
90
90
90
90
90
90
90
ENDCHAR
STARTCHAR Sacute
ENCODING 346
SWIDTH 562 0
DWIDTH 10 0
BBX 8 15 1 0
BITMAP
0060
0080
0140
0000
2EB8
6009
9006
9000
7400
0AA4
001D
0006
9006
6009
2EB8
ENDCHAR
STARTCHAR sacute
ENCODING 347
SWIDTH 427 0
DWIDTH 8 0
BBX 6 12 1 0
BITMAP
0240
0900
0000
7A90
C000
C000
A400
0A40
00A0
0060
0060
AA90
ENDCHAR
STARTCHAR Scircumflex
ENCODING 348
SWIDTH 562 0
DWIDTH 10 0
BBX 8 15 1 0
BITMAP
0280
0650
0410
0000
2EB8
6009
9006
9000
7400
0AA4
001D
0006
9006
6009
2EB8
ENDCHAR
STARTCHAR scircumflex
ENCODING 349
SWIDTH 427 0
DWIDTH 8 0
BBX 6 12 1 0
BITMAP
0A00
2140
0000
7A90
C000
C000
A400
0A40
00A0
0060
0060
AA90
ENDCHAR
STARTCHAR uni015E
ENCODING 350
SWIDTH 562 0
DWIDTH 10 0
BBX 8 14 1 -3
BITMAP
2EB8
6009
9006
9000
7400
0AA4
001D
0006
9006
6009
2EB8
0140
0290
0190
ENDCHAR
STARTCHAR uni015F
ENCODING 351
SWIDTH 427 0
DWIDTH 8 0
BBX 6 12 1 -3
BITMAP
7A90
C000
C000
A400
0A40
00A0
0060
0060
AB90
0900
0E00
0A00
ENDCHAR
STARTCHAR Scaron
ENCODING 352
SWIDTH 562 0
DWIDTH 10 0
BBX 8 15 1 0
BITMAP
0960
0280
0140
0000
2EB8
6009
9006
9000
7400
0AA4
001D
0006
9006
6009
2EB8
ENDCHAR
STARTCHAR scaron
ENCODING 353
SWIDTH 427 0
DWIDTH 8 0
BBX 6 12 1 0
BITMAP
2140
0A00
0000
7A90
C000
C000
A400
0A40
00A0
0060
0060
AA90
ENDCHAR
STARTCHAR uni0162
ENCODING 354
SWIDTH 420 0
DWIDTH 8 0
BBX 7 15 0 -4
BITMAP
ABE8
0240
0240
0240
0240
0240
0240
0240
0240
0240
0240
0100
0240
0200
0100
ENDCHAR
STARTCHAR uni0163
ENCODING 355
SWIDTH 347 0
DWIDTH 6 0
BBX 6 15 0 -4
BITMAP
0800
0C00
7E90
0800
0800
0800
0800
0800
0C00
0D00
0690
0100
0240
0200
0100
ENDCHAR
STARTCHAR Tcaron
ENCODING 356
SWIDTH 420 0
DWIDTH 8 0
BBX 7 15 0 0
BITMAP
0850
0680
0140
0000
ABE8
0240
0240
0240
0240
0240
0240
0240
0240
0240
0240
ENDCHAR
STARTCHAR tcaron
ENCODING 357
SWIDTH 396 0
DWIDTH 7 0
BBX 7 11 0 0
BITMAP
040C
0C0C
7E98
0804
0800
0800
0800
0800
0C00
0D00
0690
ENDCHAR
STARTCHAR Tbar
ENCODING 358
SWIDTH 501 0
DWIDTH 9 0
BBX 8 11 0 0
BITMAP
6BE9
0240
0240
0240
1BE4
0240
0240
0240
0240
0240
0240
ENDCHAR
STARTCHAR tbar
ENCODING 359
SWIDTH 350 0
DWIDTH 6 0
BBX 6 11 0 0
BITMAP
0800
0C00
7E90
0C00
0C00
7E90
0C00
0C00
0C00
0900
0690
ENDCHAR
STARTCHAR Utilde
ENCODING 360
SWIDTH 552 0
DWIDTH 10 0
BBX 8 15 1 0
BITMAP
04A0
0960
0A10
0000
9005
9006
9006
9006
9006
9006
9006
9006
9005
6009
2EB8
ENDCHAR
STARTCHAR utilde
ENCODING 361
SWIDTH 507 0
DWIDTH 9 0
BBX 7 12 1 0
BITMAP
12D0
1D10
0000
8008
8008
8008
8008
8008
8008
9008
9018
2A98
ENDCHAR
STARTCHAR Umacron
ENCODING 362
SWIDTH 552 0
DWIDTH 10 0
BBX 8 14 1 0
BITMAP
0AA0
0000
0000
9005
9006
9006
9006
9006
9006
9006
9006
9005
6009
2EB8
ENDCHAR
STARTCHAR umacron
ENCODING 363
SWIDTH 507 0
DWIDTH 9 0
BBX 7 11 1 0
BITMAP
1A90
0000
8008
8008
8008
8008
8008
8008
9008
9018
2A98
ENDCHAR
STARTCHAR Ubreve
ENCODING 364
SWIDTH 552 0
DWIDTH 10 0
BBX 8 15 1 0
BITMAP
0820
0820
0280
0000
9005
9006
9006
9006
9006
9006
9006
9006
9005
6009
2EB8
ENDCHAR
STARTCHAR ubreve
ENCODING 365
SWIDTH 507 0
DWIDTH 9 0
BBX 7 12 1 0
BITMAP
1450
0A80
0000
8008
8008
8008
8008
8008
8008
9008
9018
2A98
ENDCHAR
STARTCHAR Uring
ENCODING 366
SWIDTH 552 0
DWIDTH 10 0
BBX 8 16 1 0
BITMAP
0280
0550
0810
0550
0280
9005
9006
9006
9006
9006
9006
9006
9006
9005
6009
2EB8
ENDCHAR
STARTCHAR uring
ENCODING 367
SWIDTH 507 0
DWIDTH 9 0
BBX 7 13 1 0
BITMAP
0A40
1480
0A40
0000
8008
8008
8008
8008
8008
8008
9008
9018
2A98
ENDCHAR
STARTCHAR Uhungarumlaut
ENCODING 368
SWIDTH 552 0
DWIDTH 10 0
BBX 8 15 1 0
BITMAP
0258
0620
0000
0000
9005
9006
9006
9006
9006
9006
9006
9006
9005
6009
2EB8
ENDCHAR
STARTCHAR uhungarumlaut
ENCODING 369
SWIDTH 507 0
DWIDTH 9 0
BBX 7 12 1 0
BITMAP
0224
0950
0000
8008
8008
8008
8008
8008
8008
9008
9018
2A98
ENDCHAR
STARTCHAR Uogonek
ENCODING 370
SWIDTH 552 0
DWIDTH 10 0
BBX 8 13 1 -2
BITMAP
9005
9006
9006
9006
9006
9006
9006
9006
9005
6009
2EB8
0140
0280
ENDCHAR
STARTCHAR uogonek
ENCODING 371
SWIDTH 503 0
DWIDTH 9 0
BBX 7 11 1 -2
BITMAP
8008
8008
8008
8008
8008
8008
9008
9018
2AA8
0020
0064
ENDCHAR
STARTCHAR Wcircumflex
ENCODING 372
SWIDTH 795 0
DWIDTH 14 0
BBX 14 15 0 0
BITMAP
000A0000
00094000
00104000
00000000
600A0060
300A0090
30094090
241580C0
18248180
18309140
0C605240
08502300
05802200
06802A00
03401D00
ENDCHAR
STARTCHAR wcircumflex
ENCODING 373
SWIDTH 682 0
DWIDTH 12 0
BBX 12 12 0 0
BITMAP
002800
005600
000000
901802
602C06
302909
24660C
189218
088224
088160
0641A0
0740D0
ENDCHAR
STARTCHAR Ycircumflex
ENCODING 374
SWIDTH 493 0
DWIDTH 9 0
BBX 9 15 0 0
BITMAP
018000
022000
011000
000000
600240
240600
180900
091800
062000
02A000
01C000
00C000
00C000
00C000
00C000
ENDCHAR
STARTCHAR ycircumflex
ENCODING 375
SWIDTH 459 0
DWIDTH 8 0
BBX 8 14 0 -2
BITMAP
0180
0620
0000
6006
3009
240C
1818
0C20
0520
0290
02C0
0180
0240
2900
ENDCHAR
STARTCHAR Ydieresis
ENCODING 376
SWIDTH 493 0
DWIDTH 9 0
BBX 9 15 0 0
BITMAP
052400
052400
000000
000000
600240
240600
180900
091800
062000
02A000
01C000
00C000
00C000
00C000
00C000
ENDCHAR
STARTCHAR Zacute
ENCODING 377
SWIDTH 482 0
DWIDTH 9 0
BBX 8 15 0 0
BITMAP
0024
0060
0040
0000
2AAE
0009
0018
0030
0090
0180
0340
0A00
1C00
2400
7AAA
ENDCHAR
STARTCHAR zacute
ENCODING 378
SWIDTH 405 0
DWIDTH 7 0
BBX 7 12 0 0
BITMAP
0060
0080
0000
6AB8
0030
0090
0180
0340
0A00
1C00
2400
7AA8
ENDCHAR
STARTCHAR Zdotaccent
ENCODING 379
SWIDTH 482 0
DWIDTH 9 0
BBX 8 15 0 0
BITMAP
0080
0080
0000
0000
2AAE
0009
0018
0030
0090
0180
0340
0A00
1C00
2400
7AAA
ENDCHAR
STARTCHAR zdotaccent
ENCODING 380
SWIDTH 405 0
DWIDTH 7 0
BBX 7 12 0 0
BITMAP
0140
0140
0000
6AB8
0030
0090
0180
0340
0A00
1C00
2400
7AA8
ENDCHAR
STARTCHAR Zcaron
ENCODING 381
SWIDTH 482 0
DWIDTH 9 0
BBX 8 15 0 0
BITMAP
0220
01A0
0040
0000
2AAE
0009
0018
0030
0090
0180
0340
0A00
1C00
2400
7AAA
ENDCHAR
STARTCHAR zcaron
ENCODING 382
SWIDTH 405 0
DWIDTH 7 0
BBX 7 12 0 0
BITMAP
0550
0280
0000
6AB8
0030
0090
0180
0340
0A00
1C00
2400
7AA8
ENDCHAR
STARTCHAR florin
ENCODING 402
SWIDTH 494 0
DWIDTH 9 0
BBX 9 14 0 -2
BITMAP
000A40
002400
002000
006000
06F900
00C000
008000
018000
014000
024000
030000
020000
090000
680000
ENDCHAR
STARTCHAR AEacute
ENCODING 508
SWIDTH 773 0
DWIDTH 14 0
BBX 13 15 0 0
BITMAP
00009000
00018000
00010000
00000000
000FAA80
002A0000
00660000
00960000
01860000
0207AA00
05060000
0EAE0000
24060000
60060000
9007AA80
ENDCHAR
STARTCHAR aeacute
ENCODING 509
SWIDTH 795 0
DWIDTH 14 0
BBX 12 12 1 0
BITMAP
000300
000800
000000
2AA6A9
002C03
001802
2AB802
901EAB
801800
801800
902C00
2A97AA
ENDCHAR
STARTCHAR Oslashacute
ENCODING 510
SWIDTH 558 0
DWIDTH 10 0
BBX 8 15 1 0
BITMAP
0060
0080
0140
0000
2AA9
600A
900E
9026
9096
9146
9606
9806
B406
A009
AEA8
ENDCHAR
STARTCHAR oslashacute
ENCODING 511
SWIDTH 521 0
DWIDTH 9 0
BBX 9 12 0 0
BITMAP
002800
006000
000000
0AA840
180740
240B00
242700
249300
264300
2D0300
280600
5BA800
ENDCHAR
STARTCHAR uni0218
ENCODING 536
SWIDTH 562 0
DWIDTH 10 0
BBX 8 15 1 -4
BITMAP
2EB8
6009
9006
9000
7400
0AA4
001D
0006
9006
6009
2EB8
0180
0180
0140
0100
ENDCHAR
STARTCHAR uni0219
ENCODING 537
SWIDTH 427 0
DWIDTH 8 0
BBX 6 13 1 -4
BITMAP
7A90
C000
C000
A400
0A40
00A0
0060
0060
AA90
0500
0600
0500
0400
ENDCHAR
STARTCHAR circumflex
ENCODING 710
SWIDTH 326 0
DWIDTH 6 0
BBX 4 3 1 9
BITMAP
28
59
41
ENDCHAR
STARTCHAR caron
ENCODING 711
SWIDTH 326 0
DWIDTH 6 0
BBX 4 3 1 9
BITMAP
95
28
14
ENDCHAR
STARTCHAR uni02C9
ENCODING 713
SWIDTH 358 0
DWIDTH 6 0
BBX 4 1 1 10
BITMAP
AA
ENDCHAR
STARTCHAR breve
ENCODING 728
SWIDTH 332 0
DWIDTH 6 0
BBX 4 3 1 9
BITMAP
82
82
28
ENDCHAR
STARTCHAR dotaccent
ENCODING 729
SWIDTH 183 0
DWIDTH 3 0
BBX 1 2 1 10
BITMAP
80
80
ENDCHAR
STARTCHAR ring
ENCODING 730
SWIDTH 297 0
DWIDTH 5 0
BBX 3 3 1 10
BITMAP
A8
48
A8
ENDCHAR
STARTCHAR ogonek
ENCODING 731
SWIDTH 243 0
DWIDTH 4 0
BBX 2 3 1 -2
BITMAP
10
50
A0
ENDCHAR
STARTCHAR tilde
ENCODING 732
SWIDTH 369 0
DWIDTH 7 0
BBX 4 3 1 9
BITMAP
8A
96
61
ENDCHAR
STARTCHAR hungarumlaut
ENCODING 733
SWIDTH 377 0
DWIDTH 7 0
BBX 5 2 1 10
BITMAP
2240
5600
ENDCHAR
STARTCHAR Mu
ENCODING 924
SWIDTH 527 0
DWIDTH 9 0
BBX 7 12 1 -3
BITMAP
900C
900C
900C
900C
900C
900C
900C
A01C
AA98
9000
9000
4000
ENDCHAR
STARTCHAR Pi
ENCODING 928
SWIDTH 605 0
DWIDTH 11 0
BBX 10 11 0 0
BITMAP
6FABE0
060240
060240
060240
060240
060240
060240
060240
060240
060240
060240
ENDCHAR
STARTCHAR Sigma
ENCODING 931
SWIDTH 481 0
DWIDTH 9 0
BBX 7 11 1 0
BITMAP
EAA4
6000
2400
0C00
0600
0300
0600
0C00
2400
6000
AAA4
ENDCHAR
STARTCHAR uni0901
ENCODING 2305
SWIDTH 0 0
DWIDTH 0 0
BBX 6 3 -5 12
BITMAP
0500
8020
6A90
ENDCHAR
STARTCHAR uni0902
ENCODING 2306
SWIDTH 0 0
DWIDTH 0 0
BBX 2 1 -3 13
BITMAP
50
ENDCHAR
STARTCHAR uni0903
ENCODING 2307
SWIDTH 247 0
DWIDTH 4 0
BBX 1 6 2 1
BITMAP
80
00
00
00
00
80
ENDCHAR
STARTCHAR uni0905
ENCODING 2309
SWIDTH 598 0
DWIDTH 11 0
BBX 11 12 0 -1
BITMAP
2A80A8
009080
006080
006080
009080
0BC080
007AC0
006080
006080
6A8080
000080
000040
ENDCHAR
STARTCHAR uni0906
ENCODING 2310
SWIDTH 828 0
DWIDTH 15 0
BBX 15 12 0 -1
BITMAP
2A80AAF8
00908090
00608090
00608090
00908090
1B808090
00BAC090
00608090
00908090
6A808090
00008090
00004000
ENDCHAR
STARTCHAR uni0907
ENCODING 2311
SWIDTH 478 0
DWIDTH 9 0
BBX 9 12 0 -1
BITMAP
AAAE80
000C00
000C00
0AA800
240000
240000
0AA800
000900
200500
240900
2AA800
200000
ENDCHAR
STARTCHAR uni0908
ENCODING 2312
SWIDTH 478 0
DWIDTH 9 0
BBX 9 16 0 -1
BITMAP
002A00
006000
005000
005000
AAAE80
000C00
000C00
0AA800
240000
240000
0AA800
000900
200500
240900
2AA800
200000
ENDCHAR
STARTCHAR uni0909
ENCODING 2313
SWIDTH 471 0
DWIDTH 8 0
BBX 9 11 0 0
BITMAP
AABE80
000800
000800
000800
000C00
01B400
000C00
200900
200900
340C00
1AA400
ENDCHAR
STARTCHAR uni090A
ENCODING 2314
SWIDTH 661 0
DWIDTH 12 0
BBX 12 11 0 0
BITMAP
AABEAA
000800
000800
000800
000800
01BEA4
000C08
200909
200909
240808
1AA464
ENDCHAR
STARTCHAR uni090B
ENCODING 2315
SWIDTH 753 0
DWIDTH 14 0
BBX 14 11 0 0
BITMAP
AAAFAAA0
00090000
00090000
0AA90B00
240D6640
300A8240
100A1A00
002D3000
01993000
06093000
18091A40
ENDCHAR
STARTCHAR uni090C
ENCODING 2316
SWIDTH 676 0
DWIDTH 12 0
BBX 13 15 0 -4
BITMAP
AAAABE40
00001800
00001800
0A96A800
24282800
20241800
20241800
20001800
24001800
0A801800
0000A400
00024000
00024000
00014140
0000A900
ENDCHAR
STARTCHAR uni090D
ENCODING 2317
SWIDTH 521 0
DWIDTH 9 0
BBX 10 15 0 0
BITMAP
080600
06A900
000000
000000
BEABE0
180240
180240
180240
180300
182900
180000
180000
180000
080000
06AA00
ENDCHAR
STARTCHAR uni090E
ENCODING 2318
SWIDTH 522 0
DWIDTH 9 0
BBX 10 15 0 0
BITMAP
014000
009000
002900
000200
BEABE0
180240
180240
180240
180300
182900
180000
180000
180000
080000
06AA00
ENDCHAR
STARTCHAR uni090F
ENCODING 2319
SWIDTH 526 0
DWIDTH 9 0
BBX 10 11 0 0
BITMAP
BEABE0
180240
180240
180240
180300
182900
180000
180000
180000
080000
06AA00
ENDCHAR
STARTCHAR uni0910
ENCODING 2320
SWIDTH 526 0
DWIDTH 9 0
BBX 10 15 0 0
BITMAP
006000
002400
000800
000200
BEABE0
180240
180240
180240
180300
182900
180000
180000
180000
080000
06AA00
ENDCHAR
STARTCHAR uni0911
ENCODING 2321
SWIDTH 829 0
DWIDTH 15 0
BBX 15 16 0 -1
BITMAP
00008010
00008050
00006A80
00000000
2A80AAF8
00908090
00608090
00608090
00908090
0BC08090
007AC090
00608090
00608090
6A808090
00008090
00004000
ENDCHAR
STARTCHAR uni0912
ENCODING 2322
SWIDTH 828 0
DWIDTH 15 0
BBX 15 16 0 -1
BITMAP
00005000
00002400
00000A40
00000090
2A80AAF8
00908090
00608090
00608090
00908090
0BC08090
007AC090
00608090
00608090
6A808090
00008090
00004000
ENDCHAR
STARTCHAR uni0913
ENCODING 2323
SWIDTH 829 0
DWIDTH 15 0
BBX 15 16 0 -1
BITMAP
00001800
00000900
00000240
00000080
2A80AAF8
00908090
00608090
00608090
00908090
0BC08090
007AC090
00608090
00608090
6A808090
00008090
00004000
ENDCHAR
STARTCHAR uni0914
ENCODING 2324
SWIDTH 829 0
DWIDTH 15 0
BBX 15 16 0 -1
BITMAP
00002490
00000990
00000290
00000190
2A80AAF8
00908090
00608090
00608090
00908090
0BC08090
007AC090
00608090
00608090
6A808090
00008090
00004000
ENDCHAR
STARTCHAR uni0915
ENCODING 2325
SWIDTH 725 0
DWIDTH 13 0
BBX 14 12 0 -1
BITMAP
AAAEAA90
000C0000
0A8DA800
240D0600
300C0300
300C0300
300C0300
241C0600
0AACA800
000C0000
000C0000
00040000
ENDCHAR
STARTCHAR uni0916
ENCODING 2326
SWIDTH 696 0
DWIDTH 13 0
BBX 13 12 0 -1
BITMAP
ABEAAE80
01800C00
01800C00
01868C00
024C0C00
7A180C00
30180C00
180C1C00
09069C00
03000C00
01800C00
00400400
ENDCHAR
STARTCHAR uni0917
ENCODING 2327
SWIDTH 494 0
DWIDTH 9 0
BBX 9 11 0 0
BITMAP
AFAF80
090900
090900
090900
090900
0C0900
640900
000900
000900
000900
000900
ENDCHAR
STARTCHAR uni0918
ENCODING 2328
SWIDTH 559 0
DWIDTH 10 0
BBX 11 11 0 0
BITMAP
AEABE4
240140
200140
240140
0F8140
140140
240140
240240
180340
0AAA40
000140
ENDCHAR
STARTCHAR uni0919
ENCODING 2329
SWIDTH 505 0
DWIDTH 9 0
BBX 10 11 0 0
BITMAP
AAAE90
000C00
000C00
0AA800
240000
240140
0AA800
000900
100500
240900
0AA800
ENDCHAR
STARTCHAR uni091A
ENCODING 2330
SWIDTH 563 0
DWIDTH 10 0
BBX 11 11 0 0
BITMAP
AAABE4
000180
000180
6BA180
090180
080180
080180
090280
02AA80
000180
000180
ENDCHAR
STARTCHAR uni091B
ENCODING 2331
SWIDTH 581 0
DWIDTH 10 0
BBX 11 10 0 1
BITMAP
AEABE8
140180
240180
240B80
1800C0
0F4080
140080
240080
140080
0AAA40
ENDCHAR
STARTCHAR uni091C
ENCODING 2332
SWIDTH 547 0
DWIDTH 10 0
BBX 10 11 0 0
BITMAP
AAABE0
000240
000240
000240
2BAB40
018240
00C240
00C240
018240
6A4240
000240
ENDCHAR
STARTCHAR uni091D
ENCODING 2333
SWIDTH 664 0
DWIDTH 12 0
BBX 12 12 0 -1
BITMAP
AABEBE
002424
0AB424
240024
240024
240024
0ABEB4
000824
200824
2AA424
200024
200000
ENDCHAR
STARTCHAR uni091E
ENCODING 2334
SWIDTH 592 0
DWIDTH 11 0
BBX 11 12 0 -1
BITMAP
AAAAE8
0000C0
0000C0
2A40C0
0080C0
0090C0
00BAC0
0090C0
0080C0
2A40C0
0000C0
000040
ENDCHAR
STARTCHAR uni091F
ENCODING 2335
SWIDTH 485 0
DWIDTH 9 0
BBX 9 10 0 1
BITMAP
AAAE80
000800
000800
0AA800
240000
200000
200100
200200
240600
0AA800
ENDCHAR
STARTCHAR uni0920
ENCODING 2336
SWIDTH 512 0
DWIDTH 9 0
BBX 10 10 0 1
BITMAP
AAAE90
000800
000C00
0AB800
240600
200300
200300
200300
240600
0AA800
ENDCHAR
STARTCHAR uni0921
ENCODING 2337
SWIDTH 475 0
DWIDTH 9 0
BBX 9 11 0 0
BITMAP
AAAE80
000C00
000C00
0AA800
240000
240000
0AA800
000900
100500
240900
0AA800
ENDCHAR
STARTCHAR uni0922
ENCODING 2338
SWIDTH 485 0
DWIDTH 9 0
BBX 9 10 0 1
BITMAP
AAAE80
000C00
000C00
0AA800
240000
200000
206900
208200
240200
0AA900
ENDCHAR
STARTCHAR uni0923
ENCODING 2339
SWIDTH 681 0
DWIDTH 12 0
BBX 13 11 0 0
BITMAP
BEBEBE40
24181800
24181800
24181800
24181800
24181800
18241800
0AA01800
00001800
00001800
00001800
ENDCHAR
STARTCHAR uni0924
ENCODING 2340
SWIDTH 496 0
DWIDTH 9 0
BBX 9 11 0 0
BITMAP
AAAF80
000900
000900
000900
0AAD00
240900
200900
200900
200900
240900
0A0900
ENDCHAR
STARTCHAR uni0925
ENCODING 2341
SWIDTH 593 0
DWIDTH 11 0
BBX 10 12 1 -1
BITMAP
2A42A0
608300
50C300
018300
AA4300
C00300
800300
A00700
2AAB00
000300
000300
000100
ENDCHAR
STARTCHAR uni0926
ENCODING 2342
SWIDTH 489 0
DWIDTH 9 0
BBX 9 11 0 0
BITMAP
AAAF80
000900
000900
0AAC00
280000
200000
200500
200500
240900
0AA900
000500
ENDCHAR
STARTCHAR uni0927
ENCODING 2343
SWIDTH 560 0
DWIDTH 10 0
BBX 11 11 0 0
BITMAP
AE0BE4
240140
240140
240140
0F8140
140140
240140
240140
180240
0AAA40
000140
ENDCHAR
STARTCHAR uni0928
ENCODING 2344
SWIDTH 473 0
DWIDTH 9 0
BBX 9 12 0 -1
BITMAP
AAAE80
000C00
000C00
000C00
2AAC00
200C00
200C00
100C00
000C00
000C00
000C00
000400
ENDCHAR
STARTCHAR uni0928093C
ENCODING 2345
SWIDTH 473 0
DWIDTH 9 0
BBX 9 11 0 0
BITMAP
AAAE80
000C00
000C00
000C00
2AAC00
200C00
200C00
100C00
000C00
000C00
050400
ENDCHAR
STARTCHAR uni092A
ENCODING 2346
SWIDTH 503 0
DWIDTH 9 0
BBX 10 11 0 0
BITMAP
BEAF90
240500
240500
240500
240500
240500
180900
06A900
000500
000500
000500
ENDCHAR
STARTCHAR uni092B
ENCODING 2347
SWIDTH 739 0
DWIDTH 13 0
BBX 14 11 0 0
BITMAP
BEAFAA90
24090000
240AA900
240A0300
24090200
24090240
180D0200
06A90300
00096900
00090000
00090000
ENDCHAR
STARTCHAR uni092C
ENCODING 2348
SWIDTH 491 0
DWIDTH 9 0
BBX 9 11 0 0
BITMAP
AAAF80
000900
0A8900
280900
260900
314900
309900
202D00
241D00
0AA900
000900
ENDCHAR
STARTCHAR uni092D
ENCODING 2349
SWIDTH 491 0
DWIDTH 9 0
BBX 9 11 0 0
BITMAP
A06F80
240900
240900
240900
240900
2EAD00
240900
240900
000900
000900
000900
ENDCHAR
STARTCHAR uni092E
ENCODING 2350
SWIDTH 490 0
DWIDTH 9 0
BBX 9 11 0 0
BITMAP
BEAE80
240800
240800
240800
240800
2EAC00
240800
240800
000800
000800
000800
ENDCHAR
STARTCHAR uni092F
ENCODING 2351
SWIDTH 564 0
DWIDTH 10 0
BBX 11 11 0 0
BITMAP
ABABE4
018180
008180
018180
2A0180
200180
200180
180280
06AA80
000180
000180
ENDCHAR
STARTCHAR uni0930
ENCODING 2352
SWIDTH 337 0
DWIDTH 6 0
BBX 7 12 0 -1
BITMAP
ABE4
0180
0180
0180
0240
7A00
3000
1800
0900
0300
0180
0040
ENDCHAR
STARTCHAR uni0930093C
ENCODING 2353
SWIDTH 347 0
DWIDTH 6 0
BBX 7 12 0 -1
BITMAP
AAE4
0080
0080
0080
0180
3A00
2400
1800
0900
0200
0180
8040
ENDCHAR
STARTCHAR uni0932
ENCODING 2354
SWIDTH 676 0
DWIDTH 12 0
BBX 13 11 0 0
BITMAP
AAAABE40
00001800
00001800
0A96A800
24282800
20241800
20241800
20001800
24001800
0A801800
00001800
ENDCHAR
STARTCHAR uni0933
ENCODING 2355
SWIDTH 672 0
DWIDTH 12 0
BBX 13 10 0 1
BITMAP
AAABEA40
00018000
00018000
0A96E000
24281800
20140800
20140800
20140800
24281800
0A96A000
ENDCHAR
STARTCHAR uni0933093C
ENCODING 2356
SWIDTH 672 0
DWIDTH 12 0
BBX 13 12 0 -1
BITMAP
AAABEA40
00018000
00018000
0A96E000
24281800
20140800
20140800
20140800
24281800
0A96A000
00000000
02000000
ENDCHAR
STARTCHAR uni0935
ENCODING 2357
SWIDTH 484 0
DWIDTH 9 0
BBX 9 12 0 -1
BITMAP
AAAE80
000800
0A8800
280800
200800
300800
300800
200C00
241C00
0AA800
000800
000400
ENDCHAR
STARTCHAR uni0936
ENCODING 2358
SWIDTH 614 0
DWIDTH 11 0
BBX 11 12 1 -1
BITMAP
2A41E4
90C140
908140
00C140
018140
EA4140
900140
600140
240140
0C0140
060140
010000
ENDCHAR
STARTCHAR uni0937
ENCODING 2359
SWIDTH 505 0
DWIDTH 9 0
BBX 10 11 0 0
BITMAP
BEAF90
280500
260500
248500
246500
241D00
180D00
06A900
000500
000500
000500
ENDCHAR
STARTCHAR uni0938
ENCODING 2360
SWIDTH 575 0
DWIDTH 10 0
BBX 11 11 0 0
BITMAP
ABEAE4
024180
024180
024180
020180
7FAB80
300180
180180
080180
060180
024180
ENDCHAR
STARTCHAR uni0939
ENCODING 2361
SWIDTH 481 0
DWIDTH 9 0
BBX 9 12 0 -1
BITMAP
AAAE80
000800
000800
0AAC00
140000
140000
0BA400
180900
240500
240000
180000
06A800
ENDCHAR
STARTCHAR uni093C
ENCODING 2364
SWIDTH 0 0
DWIDTH 0 0
BBX 1 1 -3 -2
BITMAP
80
ENDCHAR
STARTCHAR uni093D
ENCODING 2365
SWIDTH 529 0
DWIDTH 10 0
BBX 6 11 2 0
BITMAP
6A80
9000
8000
6000
2900
0680
0060
0030
4030
9060
2A90
ENDCHAR
STARTCHAR uni093E
ENCODING 2366
SWIDTH 231 0
DWIDTH 4 0
BBX 5 11 0 0
BITMAP
BE40
1800
1800
1800
1800
1800
1800
1800
1800
1800
1800
ENDCHAR
STARTCHAR uni093F
ENCODING 2367
SWIDTH 231 0
DWIDTH 4 0
BBX 12 15 0 0
BITMAP
0AAAA4
180008
180009
180000
BE4000
180000
180000
180000
180000
180000
180000
180000
180000
180000
180000
ENDCHAR
STARTCHAR uni0940
ENCODING 2368
SWIDTH 231 0
DWIDTH 4 0
BBX 8 15 -3 0
BITMAP
2A80
5090
9060
0060
02F9
0060
0060
0060
0060
0060
0060
0060
0060
0060
0060
ENDCHAR
STARTCHAR uni0941
ENCODING 2369
SWIDTH 0 0
DWIDTH 0 0
BBX 7 5 -6 -4
BITMAP
01A0
4014
8018
6014
1AA0
ENDCHAR
STARTCHAR uni0942
ENCODING 2370
SWIDTH 0 0
DWIDTH 0 0
BBX 7 5 -5 -4
BITMAP
2A80
9060
8020
9014
2908
ENDCHAR
STARTCHAR uni0943
ENCODING 2371
SWIDTH 0 0
DWIDTH 0 0
BBX 6 5 -5 -4
BITMAP
6900
9000
8000
8050
6A40
ENDCHAR
STARTCHAR uni0945
ENCODING 2373
SWIDTH 0 0
DWIDTH 0 0
BBX 6 3 -5 12
BITMAP
4010
9060
2A80
ENDCHAR
STARTCHAR uni0946
ENCODING 2374
SWIDTH 0 0
DWIDTH 0 0
BBX 6 5 -7 10
BITMAP
6000
2400
0640
0090
00A0
ENDCHAR
STARTCHAR uni0947
ENCODING 2375
SWIDTH 0 0
DWIDTH 0 0
BBX 5 5 -6 10
BITMAP
6000
2400
0D00
0700
0180
ENDCHAR
STARTCHAR uni0948
ENCODING 2376
SWIDTH 0 0
DWIDTH 0 0
BBX 5 5 -6 10
BITMAP
6140
2540
0D40
0740
0180
ENDCHAR
STARTCHAR uni0949
ENCODING 2377
SWIDTH 231 0
DWIDTH 4 0
BBX 6 15 -1 0
BITMAP
4020
9020
2A80
0000
2F90
0600
0600
0600
0600
0600
0600
0600
0600
0600
0600
ENDCHAR
STARTCHAR uni094A
ENCODING 2378
SWIDTH 231 0
DWIDTH 4 0
BBX 7 15 -2 0
BITMAP
8000
9000
1900
0240
0BE4
0180
0180
0180
0180
0180
0180
0180
0180
0180
0180
ENDCHAR
STARTCHAR uni094B
ENCODING 2379
SWIDTH 231 0
DWIDTH 4 0
BBX 6 15 -1 0
BITMAP
8000
6000
2400
0800
2F90
0600
0600
0600
0600
0600
0600
0600
0600
0600
0600
ENDCHAR
STARTCHAR uni094C
ENCODING 2380
SWIDTH 231 0
DWIDTH 4 0
BBX 7 15 -2 0
BITMAP
6140
2580
0980
0280
0BE4
0180
0180
0180
0180
0180
0180
0180
0180
0180
0180
ENDCHAR
STARTCHAR uni094D
ENCODING 2381
SWIDTH 0 0
DWIDTH 0 0
BBX 3 3 -3 -4
BITMAP
60
24
08
ENDCHAR
STARTCHAR uni0950
ENCODING 2384
SWIDTH 847 0
DWIDTH 15 0
BBX 13 14 1 0
BITMAP
00008000
00000000
00000140
1A80AA00
00600000
00200000
0060AA00
0B800180
00900080
003A8080
80208080
C0208080
9090C180
2A806A00
ENDCHAR
STARTCHAR uni0951
ENCODING 2385
SWIDTH 0 0
DWIDTH 0 0
BBX 2 3 -3 12
BITMAP
50
90
50
ENDCHAR
STARTCHAR uni0952
ENCODING 2386
SWIDTH 0 0
DWIDTH 0 0
BBX 7 1 -8 -2
BITMAP
6AA4
ENDCHAR
STARTCHAR uni0953
ENCODING 2387
SWIDTH 0 0
DWIDTH 0 0
BBX 3 4 -5 11
BITMAP
60
24
18
04
ENDCHAR
STARTCHAR uni0954
ENCODING 2388
SWIDTH 0 0
DWIDTH 0 0
BBX 4 4 -3 11
BITMAP
09
18
30
50
ENDCHAR
STARTCHAR uni0915093C
ENCODING 2392
SWIDTH 725 0
DWIDTH 13 0
BBX 14 12 0 -1
BITMAP
AAAEAA90
000C0000
0A8DA800
240D0600
300C0300
300C0300
300C0300
241C0600
0AACA800
000C0000
000C0000
05040000
ENDCHAR
STARTCHAR uni0916093C
ENCODING 2393
SWIDTH 696 0
DWIDTH 13 0
BBX 13 12 0 -1
BITMAP
ABEAAE80
01800C00
01800C00
01868C00
024C0C00
7A180C00
30180C00
180C1C00
09069C00
03000C00
01800C00
20400400
ENDCHAR
STARTCHAR uni0917093C
ENCODING 2394
SWIDTH 494 0
DWIDTH 9 0
BBX 9 12 0 -1
BITMAP
AFAF80
090900
090900
090900
090900
0C0900
640900
000900
000900
000900
000900
080400
ENDCHAR
STARTCHAR uni091C093C
ENCODING 2395
SWIDTH 547 0
DWIDTH 10 0
BBX 10 12 0 -1
BITMAP
AAABE0
000240
000240
000240
2BAB40
018240
00C240
00C240
018240
6A4240
000240
140000
ENDCHAR
STARTCHAR uni0921093C
ENCODING 2396
SWIDTH 475 0
DWIDTH 9 0
BBX 9 13 0 -2
BITMAP
AAAE80
000C00
000C00
0AA800
240000
240000
0AA800
000900
100500
240900
0AA800
000000
008000
ENDCHAR
STARTCHAR uni0922093C
ENCODING 2397
SWIDTH 485 0
DWIDTH 9 0
BBX 9 13 0 -2
BITMAP
AAAE80
000C00
000C00
0AA800
240000
200000
206900
208200
240200
0AA900
000000
000000
008000
ENDCHAR
STARTCHAR uni092B093C
ENCODING 2398
SWIDTH 739 0
DWIDTH 13 0
BBX 14 12 0 -1
BITMAP
BEAFAA90
24090000
240AA900
240A0300
24090200
24090240
180D0200
06A90300
00096900
00090000
00090000
05040000
ENDCHAR
STARTCHAR uni092F093C
ENCODING 2399
SWIDTH 564 0
DWIDTH 10 0
BBX 11 12 0 -1
BITMAP
ABABE4
018180
008180
018180
2A0180
200180
200180
180280
06AA80
000180
000180
080000
ENDCHAR
STARTCHAR uni0960
ENCODING 2400
SWIDTH 753 0
DWIDTH 14 0
BBX 14 13 0 -2
BITMAP
AAAFAAA0
00090000
00090000
0AA90B00
240D2640
20099240
200B5A00
001D3000
00A93000
06491E40
18093000
00003000
00001A40
ENDCHAR
STARTCHAR uni0961
ENCODING 2401
SWIDTH 676 0
DWIDTH 12 0
BBX 13 15 0 -4
BITMAP
AAAABE40
00001800
00001800
0A96A800
24282800
20241800
20241800
20141800
2400B400
0A824000
00024000
0000E800
00024000
00024000
0001A800
ENDCHAR
STARTCHAR uni0964
ENCODING 2404
SWIDTH 286 0
DWIDTH 5 0
BBX 2 11 2 0
BITMAP
50
50
50
50
50
50
50
50
50
50
50
ENDCHAR
STARTCHAR uni0965
ENCODING 2405
SWIDTH 518 0
DWIDTH 9 0
BBX 6 11 2 0
BITMAP
5060
5060
5060
5060
5060
5060
5060
5060
5060
5060
5060
ENDCHAR
STARTCHAR uni0966
ENCODING 2406
SWIDTH 519 0
DWIDTH 9 0
BBX 7 11 1 0
BITMAP
2AA4
900C
8008
8008
8008
8008
8008
8008
8008
A018
2AA4
ENDCHAR
STARTCHAR uni0967
ENCODING 2407
SWIDTH 288 0
DWIDTH 5 0
BBX 4 12 0 -1
BITMAP
0A
66
42
02
02
02
02
02
02
02
02
01
ENDCHAR
STARTCHAR uni0968
ENCODING 2408
SWIDTH 453 0
DWIDTH 8 0
BBX 7 11 1 0
BITMAP
6A90
C024
8014
4024
0060
0180
0900
6400
C000
C000
EAA4
ENDCHAR
STARTCHAR uni0969
ENCODING 2409
SWIDTH 489 0
DWIDTH 9 0
BBX 7 11 1 0
BITMAP
6AA0
8024
C018
0018
0024
06E0
0024
4018
C018
9024
2A90
ENDCHAR
STARTCHAR uni096A
ENCODING 2410
SWIDTH 453 0
DWIDTH 8 0
BBX 8 12 0 -1
BITMAP
0038
00A8
0198
0218
0518
0818
2418
6018
AAAE
0018
0018
0004
ENDCHAR
STARTCHAR uni096B
ENCODING 2411
SWIDTH 480 0
DWIDTH 9 0
BBX 7 11 1 0
BITMAP
AAA4
8000
8000
8000
AAA0
9024
0018
4018
8018
9024
2AA0
ENDCHAR
STARTCHAR uni096C
ENCODING 2412
SWIDTH 495 0
DWIDTH 9 0
BBX 7 11 1 0
BITMAP
2AA4
9000
8000
8000
9AA0
A018
800C
800C
800C
A018
2AA0
ENDCHAR
STARTCHAR uni096D
ENCODING 2413
SWIDTH 380 0
DWIDTH 7 0
BBX 7 11 0 0
BITMAP
AAB4
0024
0020
0090
00C0
0180
0240
0300
0600
0C00
1800
ENDCHAR
STARTCHAR uni096E
ENCODING 2414
SWIDTH 523 0
DWIDTH 9 0
BBX 7 11 1 0
BITMAP
2AA4
900C
8008
8008
A008
2EB4
900C
8008
8008
900C
2AA4
ENDCHAR
STARTCHAR uni096F
ENCODING 2415
SWIDTH 493 0
DWIDTH 9 0
BBX 7 11 1 0
BITMAP
6AA0
C024
8018
8018
8018
9018
2AB8
0018
0018
0024
6AA0
ENDCHAR
STARTCHAR uni0970
ENCODING 2416
SWIDTH 391 0
DWIDTH 7 0
BBX 7 6 0 2
BITMAP
1A90
2020
6024
6024
2020
1A90
ENDCHAR
STARTCHAR uni0972
ENCODING 2418
SWIDTH 598 0
DWIDTH 11 0
BBX 12 16 0 -1
BITMAP
000405
000C09
0006A8
000000
2A80A8
009080
006080
006080
009080
0BC080
007AC0
006080
006080
6A8080
000080
000040
ENDCHAR
STARTCHAR Wgrave
ENCODING 7808
SWIDTH 795 0
DWIDTH 14 0
BBX 14 15 0 0
BITMAP
00240000
00080000
00050000
00000000
600A0060
300A0090
30094090
241580C0
18248180
18309140
0C605240
08502300
05802200
06802A00
03401D00
ENDCHAR
STARTCHAR wgrave
ENCODING 7809
SWIDTH 682 0
DWIDTH 12 0
BBX 12 12 0 0
BITMAP
009000
002400
000000
901802
602C06
302909
24660C
189218
088224
088160
0641A0
0740D0
ENDCHAR
STARTCHAR Wacute
ENCODING 7810
SWIDTH 795 0
DWIDTH 14 0
BBX 14 15 0 0
BITMAP
0000C000
00024000
00010000
00000000
600A0060
300A0090
30094090
241580C0
18248180
18309140
0C605240
08502300
05802200
06802A00
03401D00
ENDCHAR
STARTCHAR wacute
ENCODING 7811
SWIDTH 682 0
DWIDTH 12 0
BBX 12 12 0 0
BITMAP
000600
000800
000000
901802
602C06
302909
24660C
189218
088224
088160
0641A0
0740D0
ENDCHAR
STARTCHAR Wdieresis
ENCODING 7812
SWIDTH 795 0
DWIDTH 14 0
BBX 14 15 0 0
BITMAP
00208000
00208000
00000000
00000000
600A0060
300A0090
30094090
241580C0
18248180
18309140
0C605240
08502300
05802200
06802A00
03401D00
ENDCHAR
STARTCHAR wdieresis
ENCODING 7813
SWIDTH 682 0
DWIDTH 12 0
BBX 12 12 0 0
BITMAP
008200
008300
000000
901802
602C06
302909
24660C
189218
088224
088160
0641A0
0740D0
ENDCHAR
STARTCHAR uni1E9E
ENCODING 7838
SWIDTH 542 0
DWIDTH 10 0
BBX 8 11 1 0
BITMAP
2AAD
6008
9024
9060
90B8
900A
9006
9002
9006
9009
91A8
ENDCHAR
STARTCHAR Ygrave
ENCODING 7922
SWIDTH 493 0
DWIDTH 9 0
BBX 9 15 0 0
BITMAP
060000
024000
004000
000000
600240
240600
180900
091800
062000
02A000
01C000
00C000
00C000
00C000
00C000
ENDCHAR
STARTCHAR ygrave
ENCODING 7923
SWIDTH 459 0
DWIDTH 8 0
BBX 8 14 0 -2
BITMAP
0600
0180
0000
6006
3009
240C
1818
0C20
0520
0290
02C0
0180
0240
2900
ENDCHAR
STARTCHAR uni200B
ENCODING 8203
SWIDTH 0 0
DWIDTH 0 0
BBX 1 1 0 0
BITMAP
00
ENDCHAR
STARTCHAR uni200C
ENCODING 8204
SWIDTH 0 0
DWIDTH 0 0
BBX 2 19 -1 -4
BITMAP
50
50
50
50
50
50
50
50
50
50
50
50
50
50
50
50
50
50
50
ENDCHAR
STARTCHAR uni200D
ENCODING 8205
SWIDTH 0 0
DWIDTH 0 0
BBX 4 19 -2 -4
BITMAP
41
96
28
7D
96
14
14
14
14
14
14
14
14
14
14
14
14
14
14
ENDCHAR
STARTCHAR endash
ENCODING 8211
SWIDTH 408 0
DWIDTH 7 0
BBX 7 1 0 5
BITMAP
6AA4
ENDCHAR
STARTCHAR emdash
ENCODING 8212
SWIDTH 537 0
DWIDTH 10 0
BBX 9 1 0 5
BITMAP
6AAA80
ENDCHAR
STARTCHAR quoteleft
ENCODING 8216
SWIDTH 179 0
DWIDTH 3 0
BBX 1 4 1 7
BITMAP
40
80
C0
C0
ENDCHAR
STARTCHAR quoteright
ENCODING 8217
SWIDTH 179 0
DWIDTH 3 0
BBX 1 4 1 7
BITMAP
C0
C0
80
40
ENDCHAR
STARTCHAR quotesinglbase
ENCODING 8218
SWIDTH 187 0
DWIDTH 3 0
BBX 1 4 1 -2
BITMAP
80
80
80
40
ENDCHAR
STARTCHAR quotedblleft
ENCODING 8220
SWIDTH 329 0
DWIDTH 6 0
BBX 4 4 1 7
BITMAP
41
82
C2
C2
ENDCHAR
STARTCHAR quotedblright
ENCODING 8221
SWIDTH 329 0
DWIDTH 6 0
BBX 4 4 1 7
BITMAP
C2
C6
86
45
ENDCHAR
STARTCHAR quotedblbase
ENCODING 8222
SWIDTH 337 0
DWIDTH 6 0
BBX 4 4 1 -2
BITMAP
83
82
82
41
ENDCHAR
STARTCHAR dagger
ENCODING 8224
SWIDTH 427 0
DWIDTH 8 0
BBX 6 11 1 0
BITMAP
0900
0900
0900
AEA0
0900
0900
0900
0900
0900
0900
0400
ENDCHAR
STARTCHAR daggerdbl
ENCODING 8225
SWIDTH 427 0
DWIDTH 8 0
BBX 6 11 1 0
BITMAP
0900
0900
0900
AEA0
0900
0900
0900
AFA0
0900
0900
0900
ENDCHAR
STARTCHAR bullet
ENCODING 8226
SWIDTH 273 0
DWIDTH 5 0
BBX 3 3 1 4
BITMAP
74
74
74
ENDCHAR
STARTCHAR ellipsis
ENCODING 8230
SWIDTH 591 0
DWIDTH 11 0
BBX 9 3 1 0
BITMAP
808140
918240
908240
ENDCHAR
STARTCHAR perthousand
ENCODING 8240
SWIDTH 1027 0
DWIDTH 18 0
BBX 17 11 1 0
BITMAP
6A02000000
8142000000
8149000000
8148000000
6A14000000
0020000000
0052A42A40
0085089080
0149088080
0205089080
0602A46A40
ENDCHAR
STARTCHAR guilsinglleft
ENCODING 8249
SWIDTH 290 0
DWIDTH 5 0
BBX 3 6 1 2
BITMAP
04
18
60
80
60
18
ENDCHAR
STARTCHAR guilsinglright
ENCODING 8250
SWIDTH 290 0
DWIDTH 5 0
BBX 3 6 1 2
BITMAP
40
60
18
08
24
90
ENDCHAR
STARTCHAR fraction
ENCODING 8260
SWIDTH 117 0
DWIDTH 2 0
BBX 10 11 -4 0
BITMAP
000050
000180
000200
000800
002400
005000
018000
020000
090000
140000
600000
ENDCHAR
STARTCHAR Euro
ENCODING 8364
SWIDTH 523 0
DWIDTH 9 0
BBX 8 11 0 0
BITMAP
06A9
0C03
0C02
0C00
6EA0
0C00
6EA0
0C00
0C02
0803
06A9
ENDCHAR
STARTCHAR uni20B9
ENCODING 8377
SWIDTH 414 0
DWIDTH 7 0
BBX 7 12 0 -1
BITMAP
6BE8
0080
6AE8
00C0
0180
7A00
2400
1800
0A00
0240
0180
0040
ENDCHAR
STARTCHAR trademark
ENCODING 8482
SWIDTH 591 0
DWIDTH 11 0
BBX 9 4 1 7
BITMAP
B99140
10A240
109940
108040
ENDCHAR
STARTCHAR uni2126
ENCODING 8486
SWIDTH 629 0
DWIDTH 11 0
BBX 11 11 0 0
BITMAP
06AA80
0C0090
180060
180060
180060
180060
180060
180060
180060
080090
6B87E4
ENDCHAR
STARTCHAR partialdiff
ENCODING 8706
SWIDTH 481 0
DWIDTH 9 0
BBX 7 12 1 0
BITMAP
2900
0190
0020
0014
2A94
9028
C018
C018
C018
C018
9024
2A90
ENDCHAR
STARTCHAR uni2206
ENCODING 8710
SWIDTH 594 0
DWIDTH 11 0
BBX 10 11 0 0
BITMAP
007000
00A400
018C00
024900
030600
060300
090140
1800C0
240090
300060
7AAAB0
ENDCHAR
STARTCHAR minus
ENCODING 8722
SWIDTH 523 0
DWIDTH 9 0
BBX 7 1 1 5
BITMAP
AAA8
ENDCHAR
STARTCHAR approxequal
ENCODING 8776
SWIDTH 523 0
DWIDTH 9 0
BBX 7 4 1 4
BITMAP
6AA8
0000
0000
6AA8
ENDCHAR
STARTCHAR notequal
ENCODING 8800
SWIDTH 523 0
DWIDTH 9 0
BBX 7 8 1 2
BITMAP
0050
0080
AAE8
0140
0200
ABA8
0900
0800
ENDCHAR
STARTCHAR lessequal
ENCODING 8804
SWIDTH 523 0
DWIDTH 9 0
BBX 7 7 1 2
BITMAP
0018
1A90
A400
1A40
0068
0000
AAA8
ENDCHAR
STARTCHAR greaterequal
ENCODING 8805
SWIDTH 523 0
DWIDTH 9 0
BBX 7 7 1 2
BITMAP
A400
1A90
002C
06A4
A900
0000
AAA8
ENDCHAR
STARTCHAR uni25CC
ENCODING 9676
SWIDTH 701 0
DWIDTH 13 0
BBX 11 10 1 1
BITMAP
00A600
099690
090090
700024
600024
A00000
600034
280180
0259C0
025800
ENDCHAR
STARTCHAR commaaccent
ENCODING 63171
SWIDTH 0 0
DWIDTH 0 0
BBX 2 4 3 -4
BITMAP
60
50
50
40
ENDCHAR
STARTCHAR .notdef
ENCODING -1
SWIDTH 600 0
DWIDTH 11 0
BBX 7 10 2 0
BITMAP
AAA8
C018
C018
C018
C018
C018
C018
C018
C018
AAA8
ENDCHAR
STARTCHAR .null
ENCODING -1
SWIDTH 0 0
DWIDTH 0 0
BBX 1 1 0 0
BITMAP
00
ENDCHAR
STARTCHAR nonmarkingreturn
ENCODING -1
SWIDTH 333 0
DWIDTH 6 0
BBX 1 1 0 0
BITMAP
00
ENDCHAR
STARTCHAR uni0915094D
ENCODING -1
SWIDTH 519 0
DWIDTH 9 0
BBX 12 12 0 -1
BITMAP
AAAEA9
000C00
0A8DA8
240D05
300C00
300C00
300C00
241C00
0AAC00
000C00
000C00
000400
ENDCHAR
STARTCHAR uni0916094D
ENCODING -1
SWIDTH 468 0
DWIDTH 8 0
BBX 11 12 0 -1
BITMAP
ABEAA4
018000
018000
018680
024C00
7A1800
301800
180C14
0906A0
030000
018000
004000
ENDCHAR
STARTCHAR uni0917094D
ENCODING -1
SWIDTH 264 0
DWIDTH 5 0
BBX 5 7 0 4
BITMAP
AF80
0900
0900
0900
0900
0C00
6400
ENDCHAR
STARTCHAR uni0918094D
ENCODING -1
SWIDTH 321 0
DWIDTH 6 0
BBX 8 10 0 1
BITMAP
AEAA
2400
2000
2400
0F80
1400
2400
2400
1802
0AA9
ENDCHAR
STARTCHAR uni0919094D
ENCODING -1
SWIDTH 505 0
DWIDTH 9 0
BBX 10 15 0 -4
BITMAP
AAAE90
000C00
000C00
0AA800
240000
240140
0AA800
000900
100500
240900
0AA800
000000
008000
006000
001400
ENDCHAR
STARTCHAR uni091A094D
ENCODING -1
SWIDTH 330 0
DWIDTH 6 0
BBX 8 9 0 2
BITMAP
AAAA
0000
0000
6BA0
0900
0800
0800
0902
02A9
ENDCHAR
STARTCHAR uni091B094D
ENCODING -1
SWIDTH 581 0
DWIDTH 10 0
BBX 11 10 0 1
BITMAP
AEAAA8
140000
240A40
2400C0
180080
0F4080
140080
240080
140080
0AAA40
ENDCHAR
STARTCHAR uni091C094D
ENCODING -1
SWIDTH 309 0
DWIDTH 6 0
BBX 8 10 0 1
BITMAP
AAA9
0000
0000
0000
2BA9
0180
00C0
00C0
0180
6A40
ENDCHAR
STARTCHAR uni091D094D
ENCODING -1
SWIDTH 432 0
DWIDTH 8 0
BBX 10 12 0 -1
BITMAP
AABE90
002400
0AB400
240000
240000
240000
0ABE90
000800
200800
2AA400
200000
200000
ENDCHAR
STARTCHAR uni091E094D
ENCODING -1
SWIDTH 359 0
DWIDTH 6 0
BBX 9 10 0 1
BITMAP
AAAA40
000000
000000
2A4000
008000
009000
00BA40
009000
008000
2A4000
ENDCHAR
STARTCHAR uni091F094D
ENCODING -1
SWIDTH 485 0
DWIDTH 9 0
BBX 9 14 0 -3
BITMAP
AAAE80
000800
000800
0AA800
240000
200000
200100
200200
240600
0AA800
000000
008000
006000
002400
ENDCHAR
STARTCHAR uni0920094D
ENCODING -1
SWIDTH 512 0
DWIDTH 9 0
BBX 10 14 0 -3
BITMAP
AAAE90
000800
000C00
0AB800
240600
200300
200300
200300
240600
0AA800
000000
008000
006000
002400
ENDCHAR
STARTCHAR uni0921094D
ENCODING -1
SWIDTH 475 0
DWIDTH 9 0
BBX 9 15 0 -4
BITMAP
AAAE80
000C00
000C00
0AA800
240000
240000
0AA800
000900
100500
240900
0AA800
000000
009000
002000
001400
ENDCHAR
STARTCHAR uni0922094D
ENCODING -1
SWIDTH 485 0
DWIDTH 9 0
BBX 9 14 0 -3
BITMAP
AAAE80
000C00
000C00
0AA800
240000
200000
206900
208200
240200
0AA900
000000
008000
006000
002400
ENDCHAR
STARTCHAR uni0923094D
ENCODING -1
SWIDTH 454 0
DWIDTH 8 0
BBX 9 8 0 3
BITMAP
BEBE40
241800
241800
241800
241800
241800
182400
0AA000
ENDCHAR
STARTCHAR uni0924094D
ENCODING -1
SWIDTH 263 0
DWIDTH 5 0
BBX 7 11 0 0
BITMAP
AAA4
0000
0000
0AA4
2400
2000
2000
2000
2000
2400
0A00
ENDCHAR
STARTCHAR uni0925094D
ENCODING -1
SWIDTH 359 0
DWIDTH 6 0
BBX 8 9 1 2
BITMAP
2A40
6080
50C0
0180
AA40
C000
8000
A005
2AA4
ENDCHAR
STARTCHAR uni0926094D
ENCODING -1
SWIDTH 489 0
DWIDTH 9 0
BBX 9 14 0 -3
BITMAP
AAAF80
000900
000900
0AAC00
280000
200000
200500
200500
240900
0AA900
000500
008000
006000
001400
ENDCHAR
STARTCHAR uni0927094D
ENCODING -1
SWIDTH 321 0
DWIDTH 6 0
BBX 8 10 0 1
BITMAP
AE5A
2400
2000
2400
0F80
1400
2400
2400
1802
0AA9
ENDCHAR
STARTCHAR uni0928094D
ENCODING -1
SWIDTH 233 0
DWIDTH 4 0
BBX 6 8 0 3
BITMAP
AAA0
0000
0000
0000
2AA0
6000
6000
2000
ENDCHAR
STARTCHAR uni092A094D
ENCODING -1
SWIDTH 269 0
DWIDTH 5 0
BBX 7 8 0 3
BITMAP
BEA8
2400
2400
2400
2400
2400
1808
06A4
ENDCHAR
STARTCHAR uni092B094D
ENCODING -1
SWIDTH 530 0
DWIDTH 10 0
BBX 12 11 0 0
BITMAP
BEAFAA
240900
240AA9
240A06
240900
240900
180D00
06A900
000900
000900
000900
ENDCHAR
STARTCHAR uni092C094D
ENCODING -1
SWIDTH 265 0
DWIDTH 5 0
BBX 7 10 0 1
BITMAP
AAA8
0000
0A80
2800
2600
3140
3094
2028
2418
0AA0
ENDCHAR
STARTCHAR uni092D094D
ENCODING -1
SWIDTH 261 0
DWIDTH 5 0
BBX 7 8 0 3
BITMAP
A064
2400
2400
2400
2400
2EA4
2400
1400
ENDCHAR
STARTCHAR uni092E094D
ENCODING -1
SWIDTH 261 0
DWIDTH 5 0
BBX 7 8 0 3
BITMAP
BEA4
2400
2400
2400
2400
2EA4
2400
1400
ENDCHAR
STARTCHAR uni092F094D
ENCODING -1
SWIDTH 323 0
DWIDTH 6 0
BBX 8 9 0 2
BITMAP
ABA9
0180
0080
0180
2A00
2000
2000
1802
06A9
ENDCHAR
STARTCHAR uni0930094D
ENCODING -1
SWIDTH 337 0
DWIDTH 6 0
BBX 7 15 0 -4
BITMAP
ABE4
0180
0180
0180
0240
7A00
3000
1800
0900
0200
0180
0000
0600
0240
0080
ENDCHAR
STARTCHAR uni0932094D
ENCODING -1
SWIDTH 431 0
DWIDTH 8 0
BBX 10 10 0 1
BITMAP
AAAAA0
000000
000000
0A9690
242810
202400
202400
200000
240000
0A8000
ENDCHAR
STARTCHAR uni0933094D
ENCODING -1
SWIDTH 677 0
DWIDTH 12 0
BBX 13 10 0 1
BITMAP
AAAAAA40
00000000
00000000
0A96A000
24281800
20140800
20140800
20140800
24281800
0A96A000
ENDCHAR
STARTCHAR uni0935094D
ENCODING -1
SWIDTH 255 0
DWIDTH 5 0
BBX 7 10 0 1
BITMAP
AAA8
0000
0A80
2400
2000
3000
3004
2008
2408
0AA0
ENDCHAR
STARTCHAR uni0936094D
ENCODING -1
SWIDTH 378 0
DWIDTH 7 0
BBX 5 12 1 -1
BITMAP
2A40
90C0
9080
00C0
0180
EA40
9000
6000
2400
0C00
0600
0100
ENDCHAR
STARTCHAR uni0937094D
ENCODING -1
SWIDTH 282 0
DWIDTH 5 0
BBX 8 8 0 3
BITMAP
BEA9
2800
2600
2480
2460
2418
1809
06A4
ENDCHAR
STARTCHAR uni0938094D
ENCODING -1
SWIDTH 338 0
DWIDTH 6 0
BBX 8 11 0 0
BITMAP
ABEA
0240
0240
0240
0200
7FAA
3000
1800
0800
0600
0240
ENDCHAR
STARTCHAR uni0939094D
ENCODING -1
SWIDTH 457 0
DWIDTH 8 0
BBX 10 12 0 -1
BITMAP
AAAE80
000800
000800
0AAC00
140000
140000
0BAAA0
180000
240000
240000
180000
06A800
ENDCHAR
STARTCHAR uni0915093C094D
ENCODING -1
SWIDTH 519 0
DWIDTH 9 0
BBX 12 12 0 -1
BITMAP
AAAEA9
000C00
0A8DA8
240D05
300C00
300C00
300C00
241C00
0AAC00
000C00
000C00
080400
ENDCHAR
STARTCHAR uni0916093C094D
ENCODING -1
SWIDTH 463 0
DWIDTH 8 0
BBX 11 12 0 -1
BITMAP
ABEAA4
018000
018000
018680
024C00
7A1800
301800
180C14
0906A0
030000
018000
200000
ENDCHAR
STARTCHAR uni0917093C094D
ENCODING -1
SWIDTH 264 0
DWIDTH 5 0
BBX 5 11 0 0
BITMAP
AF80
0900
0900
0900
0900
0C00
6400
0000
0000
0000
0800
ENDCHAR
STARTCHAR uni091C093C094D
ENCODING -1
SWIDTH 314 0
DWIDTH 6 0
BBX 8 12 0 -1
BITMAP
AAA9
0000
0000
0000
2BA9
0180
00C0
00C0
0180
6A40
0000
1400
ENDCHAR
STARTCHAR uni0928093C094D
ENCODING -1
SWIDTH 241 0
DWIDTH 4 0
BBX 6 11 0 0
BITMAP
AAA0
0000
0000
0000
2AA0
2000
2000
1000
0000
0000
0800
ENDCHAR
STARTCHAR uni092B093C094D
ENCODING -1
SWIDTH 530 0
DWIDTH 10 0
BBX 12 12 0 -1
BITMAP
BEAFAA
240900
240AA9
240A06
240900
240900
180D00
06A900
000900
000900
000900
050400
ENDCHAR
STARTCHAR uni092F093C094D
ENCODING -1
SWIDTH 325 0
DWIDTH 6 0
BBX 8 12 0 -1
BITMAP
ABA9
0180
0080
0180
2A00
2000
2000
1802
06A9
0000
0000
0500
ENDCHAR
STARTCHAR uni09080902
ENCODING -1
SWIDTH 478 0
DWIDTH 9 0
BBX 9 16 0 -1
BITMAP
002A00
006000
005100
005000
AAAE80
000C00
000C00
0AA800
240000
240000
0AA800
000900
200500
240900
2AA800
200000
ENDCHAR
STARTCHAR uni09300941
ENCODING -1
SWIDTH 533 0
DWIDTH 10 0
BBX 10 12 0 -1
BITMAP
ABEAA0
018000
018000
01EA00
028240
7A0140
300240
180600
091800
030000
018000
004000
ENDCHAR
STARTCHAR uni09300942
ENCODING -1
SWIDTH 645 0
DWIDTH 12 0
BBX 12 12 0 -1
BITMAP
ABEAAA
018000
018000
0186A0
024C24
7A0814
300014
180060
090280
030100
018000
004000
ENDCHAR
STARTCHAR uni09390941
ENCODING -1
SWIDTH 495 0
DWIDTH 9 0
BBX 9 15 0 -4
BITMAP
AAAE80
000800
0AAC00
140000
140000
0BA400
180900
240500
240000
180000
06A800
000600
200200
180600
06A800
ENDCHAR
STARTCHAR uni09390942
ENCODING -1
SWIDTH 492 0
DWIDTH 9 0
BBX 9 15 0 -4
BITMAP
AAAE80
000800
0AAC00
180000
240000
180000
0BA800
180900
240500
180000
0BA000
081800
180500
180200
0A4200
ENDCHAR
STARTCHAR uni09260943
ENCODING -1
SWIDTH 390 0
DWIDTH 7 0
BBX 7 10 0 1
BITMAP
AAF8
0060
0AA0
2400
2400
0E80
1400
2400
1400
0AA0
ENDCHAR
STARTCHAR uni09390943
ENCODING -1
SWIDTH 519 0
DWIDTH 9 0
BBX 10 13 0 -2
BITMAP
AAAE90
000C00
000C00
0AAC00
240000
240000
0FFA00
248140
20C040
208000
206A00
240000
0AA800
ENDCHAR
STARTCHAR uni094D0930
ENCODING -1
SWIDTH 0 0
DWIDTH 0 0
BBX 5 4 -7 -3
BITMAP
0400
2A00
6240
8080
ENDCHAR
STARTCHAR uni0930094D.1
ENCODING -1
SWIDTH 192 0
DWIDTH 3 0
BBX 7 5 -1 6
BITMAP
2A80
0000
0000
8024
6A90
ENDCHAR
STARTCHAR uni0930094D.2
ENCODING -1
SWIDTH 0 0
DWIDTH 0 0
BBX 4 5 -3 10
BITMAP
29
60
90
90
50
ENDCHAR
STARTCHAR uni0930094D0902
ENCODING -1
SWIDTH 0 0
DWIDTH 0 0
BBX 4 5 -3 10
BITMAP
29
60
98
90
50
ENDCHAR
STARTCHAR uni093E0930094D
ENCODING -1
SWIDTH 231 0
DWIDTH 4 0
BBX 5 15 0 0
BITMAP
0A40
1800
1800
1800
BE40
1800
1800
1800
1800
1800
1800
1800
1800
1800
1800
ENDCHAR
STARTCHAR uni093E0930094D0902
ENCODING -1
SWIDTH 231 0
DWIDTH 4 0
BBX 5 15 0 0
BITMAP
0A40
1800
1840
1800
BE40
1800
1800
1800
1800
1800
1800
1800
1800
1800
1800
ENDCHAR
STARTCHAR uni0930094D.aMatraI
ENCODING -1
SWIDTH 0 0
DWIDTH 0 0
BBX 3 4 -1 11
BITMAP
28
90
C0
C0
ENDCHAR
STARTCHAR uni0902.aMatraI
ENCODING -1
SWIDTH 0 0
DWIDTH 0 0
BBX 2 1 0 13
BITMAP
60
ENDCHAR
STARTCHAR uni0930094D0902.aMatraI
ENCODING -1
SWIDTH 0 0
DWIDTH 0 0
BBX 3 4 -1 11
BITMAP
28
90
C8
C0
ENDCHAR
STARTCHAR uni09400930094D
ENCODING -1
SWIDTH 231 0
DWIDTH 4 0
BBX 8 15 -3 0
BITMAP
2A99
50A0
9060
0060
02F9
0060
0060
0060
0060
0060
0060
0060
0060
0060
0060
ENDCHAR
STARTCHAR uni09400902
ENCODING -1
SWIDTH 231 0
DWIDTH 4 0
BBX 8 15 -3 0
BITMAP
2A80
5095
5060
0060
02F9
0060
0060
0060
0060
0060
0060
0060
0060
0060
0060
ENDCHAR
STARTCHAR uni09400930094D0902
ENCODING -1
SWIDTH 231 0
DWIDTH 4 0
BBX 8 15 -3 0
BITMAP
2A99
50A0
9061
0060
02F9
0060
0060
0060
0060
0060
0060
0060
0060
0060
0060
ENDCHAR
STARTCHAR uni0940.aLong
ENCODING -1
SWIDTH 231 0
DWIDTH 4 0
BBX 12 15 -7 0
BITMAP
6AAA80
C00090
800060
000060
0002F9
000060
000060
000060
000060
000060
000060
000060
000060
000060
000060
ENDCHAR
STARTCHAR uni09400930094D.aLong
ENCODING -1
SWIDTH 231 0
DWIDTH 4 0
BBX 12 15 -7 0
BITMAP
6AAAA9
C000A0
800060
000060
0002F9
000060
000060
000060
000060
000060
000060
000060
000060
000060
000060
ENDCHAR
STARTCHAR uni09400902.aLong
ENCODING -1
SWIDTH 231 0
DWIDTH 4 0
BBX 12 15 -7 0
BITMAP
6AAA80
C00092
400060
000060
0002F9
000060
000060
000060
000060
000060
000060
000060
000060
000060
000060
ENDCHAR
STARTCHAR uni09400930094D0902.aLong
ENCODING -1
SWIDTH 231 0
DWIDTH 4 0
BBX 12 15 -7 0
BITMAP
6AAAA9
C000A0
800061
000060
0002F9
000060
000060
000060
000060
000060
000060
000060
000060
000060
000060
ENDCHAR
STARTCHAR uni09470930094D
ENCODING -1
SWIDTH 0 0
DWIDTH 0 0
BBX 7 4 -6 11
BITMAP
60A4
1940
0A40
0240
ENDCHAR
STARTCHAR uni09470902
ENCODING -1
SWIDTH 0 0
DWIDTH 0 0
BBX 6 5 -6 10
BITMAP
6000
2420
0D00
0700
0180
ENDCHAR
STARTCHAR uni09470901
ENCODING -1
SWIDTH 0 0
DWIDTH 0 0
BBX 10 5 -6 10
BITMAP
600800
248050
0D6A80
070000
018000
ENDCHAR
STARTCHAR uni09470930094D0902
ENCODING -1
SWIDTH 0 0
DWIDTH 0 0
BBX 7 4 -6 11
BITMAP
60A4
1E50
0B40
0240
ENDCHAR
STARTCHAR uni09480930094D
ENCODING -1
SWIDTH 0 0
DWIDTH 0 0
BBX 7 5 -6 10
BITMAP
9264
2280
1640
0A40
0240
ENDCHAR
STARTCHAR uni09480902
ENCODING -1
SWIDTH 0 0
DWIDTH 0 0
BBX 7 5 -6 10
BITMAP
9140
3140
1954
0640
0240
ENDCHAR
STARTCHAR uni09480901
ENCODING -1
SWIDTH 0 0
DWIDTH 0 0
BBX 11 5 -6 10
BITMAP
914140
216008
196418
064AA0
024000
ENDCHAR
STARTCHAR uni09480930094D0902
ENCODING -1
SWIDTH 0 0
DWIDTH 0 0
BBX 7 5 -6 10
BITMAP
9264
2280
1A50
0A40
0240
ENDCHAR
STARTCHAR uni094B0930094D
ENCODING -1
SWIDTH 231 0
DWIDTH 4 0
BBX 7 15 -2 0
BITMAP
60A4
1980
0A80
0280
0BE4
0180
0180
0180
0180
0180
0180
0180
0180
0180
0180
ENDCHAR
STARTCHAR uni094B0902
ENCODING -1
SWIDTH 231 0
DWIDTH 4 0
BBX 6 15 -1 0
BITMAP
8000
6080
2400
0800
2F90
0600
0600
0600
0600
0600
0600
0600
0600
0600
0600
ENDCHAR
STARTCHAR uni094B0930094D0902
ENCODING -1
SWIDTH 231 0
DWIDTH 4 0
BBX 6 15 -1 0
BITMAP
8290
6600
2A10
0A00
2F90
0600
0600
0600
0600
0600
0600
0600
0600
0600
0600
ENDCHAR
STARTCHAR uni094C0930094D
ENCODING -1
SWIDTH 231 0
DWIDTH 4 0
BBX 7 15 -2 0
BITMAP
9364
2680
0A40
0280
0BE4
0180
0180
0180
0180
0180
0180
0180
0180
0180
0180
ENDCHAR
STARTCHAR uni094C0902
ENCODING -1
SWIDTH 231 0
DWIDTH 4 0
BBX 7 15 -2 0
BITMAP
6140
2594
0980
0280
0BE4
0180
0180
0180
0180
0180
0180
0180
0180
0180
0180
ENDCHAR
STARTCHAR uni094C0930094D0902
ENCODING -1
SWIDTH 231 0
DWIDTH 4 0
BBX 7 15 -2 0
BITMAP
9364
2680
0A44
0280
0BE4
0180
0180
0180
0180
0180
0180
0180
0180
0180
0180
ENDCHAR
STARTCHAR uni0915094D0937
ENCODING -1
SWIDTH 656 0
DWIDTH 12 0
BBX 11 11 1 0
BITMAP
1A90A8
202080
302080
242080
2EEAC0
900080
800080
803080
907080
2AB080
003080
ENDCHAR
STARTCHAR uni0915094D0937094D
ENCODING -1
SWIDTH 429 0
DWIDTH 8 0
BBX 9 11 1 0
BITMAP
1A9000
202000
302000
242000
2EEA80
900000
800000
803000
907000
2AB000
003000
ENDCHAR
STARTCHAR uni0915094D0937094D092E
ENCODING -1
SWIDTH 933 0
DWIDTH 17 0
BBX 16 11 1 0
BITMAP
1A91FABA
20209020
30209020
24209020
2EEAD020
9000BAB0
80009020
80309020
90700020
2AB00020
00300020
ENDCHAR
STARTCHAR uni0915094D0937094D092E094D
ENCODING -1
SWIDTH 717 0
DWIDTH 13 0
BBX 14 11 1 0
BITMAP
1A91FAA0
20209000
30209000
24209000
2EEAD000
9000BAA0
80009000
80309000
90700000
2AB00000
00300000
ENDCHAR
STARTCHAR uni0915094D0937094D092E094D092F
ENCODING -1
SWIDTH 1283 0
DWIDTH 23 0
BBX 23 11 1 0
BITMAP
1A91FAABABE4
202090018140
302090018140
242090018140
2EEAD02A0140
9000BAB00140
800090200140
803050280340
9070000AAA40
2A7000000140
003000000140
ENDCHAR
STARTCHAR uni0915094D0937094D092F
ENCODING -1
SWIDTH 989 0
DWIDTH 18 0
BBX 17 11 1 0
BITMAP
1A91BEAE80
2020090800
3020050800
2420090800
2EEAE80800
9000800800
8000800800
8030901C00
90702AA800
2A70000800
0030000800
ENDCHAR
STARTCHAR uni0915094D0937094D0935
ENCODING -1
SWIDTH 936 0
DWIDTH 17 0
BBX 16 11 1 0
BITMAP
1A91AABE
20200024
30202A24
24206024
2EEAD024
90008024
80008024
80309024
90706034
2AB02AA4
00300020
ENDCHAR
STARTCHAR uni091C094D091E
ENCODING -1
SWIDTH 629 0
DWIDTH 11 0
BBX 12 12 0 -1
BITMAP
AAAAF9
000060
000060
0AAAE0
240060
240060
0AA460
000860
200960
240860
2AA460
200000
ENDCHAR
STARTCHAR uni091C094D091E094D
ENCODING -1
SWIDTH 398 0
DWIDTH 7 0
BBX 9 12 0 -1
BITMAP
AAAA80
000000
000000
0AAA80
240000
240000
0AA400
000800
200900
240800
2AA400
200000
ENDCHAR
STARTCHAR uni091C094D091E094D092F
ENCODING -1
SWIDTH 975 0
DWIDTH 18 0
BBX 18 12 0 -1
BITMAP
AAAAAFABA0
0000020300
0000020300
0AAA830300
2400B90300
2400500300
0AA4500300
0008700B00
20091AA700
2408000300
2AA4000300
2000000000
ENDCHAR
STARTCHAR uni0915094D0928
ENCODING -1
SWIDTH 1003 0
DWIDTH 18 0
BBX 19 12 0 -1
BITMAP
AAAEAAABE4
000C000140
0A8DA80140
240D060140
300C07AB40
300C090140
300C090140
241C000140
0AAC000140
000C000140
000C000140
0004000000
ENDCHAR
STARTCHAR uni0916094D0928
ENCODING -1
SWIDTH 958 0
DWIDTH 17 0
BBX 18 12 0 -1
BITMAP
ABEAAAAF90
0180000600
0180000600
0186A00600
0248180600
7A181EAE00
300C180600
1806B80600
0900040600
0300000600
0180000600
0040000000
ENDCHAR
STARTCHAR uni0917094D0928
ENCODING -1
SWIDTH 736 0
DWIDTH 13 0
BBX 14 11 0 0
BITMAP
AFAAAF90
09000600
09000600
09000600
090AAE00
0C180600
64180600
00040600
00000600
00000600
00000600
ENDCHAR
STARTCHAR uni0918094D0928
ENCODING -1
SWIDTH 814 0
DWIDTH 15 0
BBX 15 12 0 -1
BITMAP
AEAAAAE8
240000C0
240000C0
140000C0
1F81AAC0
240300C0
240300C0
140700C0
0AAA00C0
000000C0
000000C0
00000040
ENDCHAR
STARTCHAR uni091A094D0928
ENCODING -1
SWIDTH 829 0
DWIDTH 15 0
BBX 15 11 0 0
BITMAP
AAAAAAF8
00000090
00000090
6BA00090
0900AAD0
08024090
08020090
09034090
02AA4090
00000090
00000090
ENDCHAR
STARTCHAR uni091B094D0928
ENCODING -1
SWIDTH 977 0
DWIDTH 18 0
BBX 18 12 0 -1
BITMAP
AEAAAAABA0
1400000300
240A400300
2400C00300
180086AB00
0F409C0300
2400980300
2400840300
1400800300
0AAA400300
0000000300
0000000100
ENDCHAR
STARTCHAR uni091C094D0928
ENCODING -1
SWIDTH 831 0
DWIDTH 15 0
BBX 15 11 0 0
BITMAP
AAAAAAF8
00000090
00000090
00000090
2BABEAD0
01824090
00C24090
00C00090
01800090
6A400090
00000090
ENDCHAR
STARTCHAR uni091D094D0928
ENCODING -1
SWIDTH 935 0
DWIDTH 17 0
BBX 17 12 0 -1
BITMAP
AABEAAAF80
0024000900
0AB4000900
2400000900
24000AAD00
2400200900
0ABEB00900
0008200900
2008000900
2AA4000900
2000000800
2000000000
ENDCHAR
STARTCHAR uni091F094D0928
ENCODING -1
SWIDTH 494 0
DWIDTH 9 0
BBX 9 15 0 -4
BITMAP
AAAE80
000C00
000C00
0AA800
240000
200100
200300
240600
0AAC00
000C00
000C00
1AAC00
240C00
240C00
000800
ENDCHAR
STARTCHAR uni0920094D0928
ENCODING -1
SWIDTH 516 0
DWIDTH 9 0
BBX 10 15 0 -4
BITMAP
AAAE90
000800
000C00
0AB800
240600
200300
200300
240600
0AAC00
000C00
000C00
1AAC00
240C00
240C00
000800
ENDCHAR
STARTCHAR uni0921094D0928
ENCODING -1
SWIDTH 481 0
DWIDTH 9 0
BBX 9 15 0 -4
BITMAP
AAAE80
000C00
0AAC00
240000
240000
0AA800
000900
200600
240900
0AAC00
000C00
1AAC00
240C00
240C00
000800
ENDCHAR
STARTCHAR uni0924094D0928
ENCODING -1
SWIDTH 756 0
DWIDTH 14 0
BBX 14 11 0 0
BITMAP
AAAAABA0
00000300
00000300
0AA80300
240AAB00
200C0300
200C0300
20040300
20000300
24000300
0A000200
ENDCHAR
STARTCHAR uni0925094D0928
ENCODING -1
SWIDTH 855 0
DWIDTH 15 0
BBX 15 12 1 -1
BITMAP
2A4AAAE4
60800080
50C00080
01800080
AA42AB80
C0060080
80060080
600A0080
2AA50080
00000080
00000080
00000040
ENDCHAR
STARTCHAR uni0926094D0928
ENCODING -1
SWIDTH 955 0
DWIDTH 17 0
BBX 18 15 0 -4
BITMAP
AAAFAAAF90
0009000600
0009000600
0AAC000600
28000AAE00
2000140600
2005140600
2005040600
2409000600
0AA9000600
0005000600
0000000000
0002000000
0001400000
0000800000
ENDCHAR
STARTCHAR uni0927094D0928
ENCODING -1
SWIDTH 814 0
DWIDTH 15 0
BBX 15 12 0 -1
BITMAP
AE46AAE8
240000C0
240000C0
140000C0
1F81AAC0
240300C0
240300C0
140700C0
0AA900C0
000000C0
000000C0
00000040
ENDCHAR
STARTCHAR uni0928094D0928
ENCODING -1
SWIDTH 738 0
DWIDTH 13 0
BBX 14 11 0 0
BITMAP
AAAAAF90
00000600
00000600
00000600
2AAEAE00
20180600
20180600
10040600
00000600
00000600
00000600
ENDCHAR
STARTCHAR uni092A094D0928
ENCODING -1
SWIDTH 782 0
DWIDTH 14 0
BBX 15 11 0 0
BITMAP
BEAAABE4
24000140
24000140
24000140
2402AB40
14090140
180D0140
06A90140
00000140
00000140
00000140
ENDCHAR
STARTCHAR uni092B094D0928
ENCODING -1
SWIDTH 1013 0
DWIDTH 18 0
BBX 19 11 0 0
BITMAP
BEAFAAABE4
2409000180
240AA80180
240A060180
240903AB80
2409060180
180D050180
06A9010180
0009000180
0009000180
0009000180
ENDCHAR
STARTCHAR uni092C094D0928
ENCODING -1
SWIDTH 810 0
DWIDTH 15 0
BBX 15 12 0 -1
BITMAP
AAAAAAE8
000000C0
0A8000C0
280000C0
2601AAC0
314300C0
309200C0
202600C0
241800C0
0AA000C0
000000C0
00000040
ENDCHAR
STARTCHAR uni092D094D0928
ENCODING -1
SWIDTH 757 0
DWIDTH 14 0
BBX 14 12 0 -1
BITMAP
A06AABA0
24000300
24000300
24000300
2406AB00
2EAC0300
24080300
24080300
00000300
00000300
00000300
00000100
ENDCHAR
STARTCHAR uni092E094D0928
ENCODING -1
SWIDTH 757 0
DWIDTH 14 0
BBX 14 12 0 -1
BITMAP
BEAAABA0
24000300
24000300
24000300
2406AB00
2EAC0300
24080300
24080300
00000300
00000300
00000300
00000100
ENDCHAR
STARTCHAR uni092F094D0928
ENCODING -1
SWIDTH 829 0
DWIDTH 15 0
BBX 15 11 0 0
BITMAP
ABAAAAF8
01800090
00800090
01800090
2A00AAD0
20024090
24020090
18074090
06A94090
00000090
00000090
ENDCHAR
STARTCHAR uni0935094D0928
ENCODING -1
SWIDTH 798 0
DWIDTH 14 0
BBX 15 11 0 0
BITMAP
AAAAAAE4
00000080
0A800080
24000080
2002AB80
30060080
30060080
20020080
24180080
0AA00080
00000080
ENDCHAR
STARTCHAR uni0936094D0928
ENCODING -1
SWIDTH 845 0
DWIDTH 15 0
BBX 15 12 1 -1
BITMAP
2A46ABE4
90C00180
90800180
00C00180
0182AB80
EA460180
90050180
60010180
24000180
08000180
06000180
01000000
ENDCHAR
STARTCHAR uni0938094D0928
ENCODING -1
SWIDTH 831 0
DWIDTH 15 0
BBX 15 11 0 0
BITMAP
ABEAAAF8
02400090
02400090
02400090
0200AAD0
7FAB4090
30024090
18014090
08000090
06000090
02400090
ENDCHAR
STARTCHAR uni0939094D0928
ENCODING -1
SWIDTH 500 0
DWIDTH 9 0
BBX 9 13 0 -2
BITMAP
AAAF80
000500
000500
0AAD00
140000
140000
0BAF00
181B00
246200
249200
245100
180000
06A800
ENDCHAR
STARTCHAR uni0915094D0930
ENCODING -1
SWIDTH 725 0
DWIDTH 13 0
BBX 14 12 0 -1
BITMAP
AAAEAA90
000C0000
0A8DA800
240D0600
300C0300
300C0300
300C0300
241C0600
0AECA800
018C0000
02080000
09000000
ENDCHAR
STARTCHAR uni0916094D0930
ENCODING -1
SWIDTH 698 0
DWIDTH 13 0
BBX 13 12 0 -1
BITMAP
ABEAAE80
01800C00
01800C00
01868C00
024C0C00
7A180C00
20180C00
180C1C00
0906EC00
03008C00
01820C00
00080000
ENDCHAR
STARTCHAR uni0917094D0930
ENCODING -1
SWIDTH 494 0
DWIDTH 9 0
BBX 9 11 0 0
BITMAP
AFAF80
090900
090900
090900
090900
0C0900
642D00
006900
018900
020900
090900
ENDCHAR
STARTCHAR uni0918094D0930
ENCODING -1
SWIDTH 559 0
DWIDTH 10 0
BBX 11 12 0 -1
BITMAP
AEABE4
240140
200140
240140
0F8140
140140
240140
240240
180340
0ABA40
009140
024000
ENDCHAR
STARTCHAR uni0919094D0930
ENCODING -1
SWIDTH 505 0
DWIDTH 9 0
BBX 10 14 0 -3
BITMAP
AAAE90
000C00
000C00
0AA800
240000
240140
0AA800
000900
000500
240900
1BE800
036000
092400
180C00
ENDCHAR
STARTCHAR uni091A094D0930
ENCODING -1
SWIDTH 563 0
DWIDTH 10 0
BBX 11 12 0 -1
BITMAP
AAABE4
000180
000180
6BA180
090180
080180
080180
0D0280
06AE80
006580
018140
010000
ENDCHAR
STARTCHAR uni091B094D0930
ENCODING -1
SWIDTH 581 0
DWIDTH 10 0
BBX 11 13 0 -2
BITMAP
AEABE8
140180
240180
240B80
1800C0
0F4080
140080
240080
140080
0AFA40
009800
024900
050200
ENDCHAR
STARTCHAR uni091C094D0930
ENCODING -1
SWIDTH 547 0
DWIDTH 10 0
BBX 10 12 0 -1
BITMAP
AAABE0
000240
000240
2BAB40
018240
00C240
00C240
00C240
018740
6A2A40
009200
004000
ENDCHAR
STARTCHAR uni091D094D0930
ENCODING -1
SWIDTH 684 0
DWIDTH 12 0
BBX 13 12 0 -1
BITMAP
AABEBE40
00241800
0AB41800
24001800
24001800
24001800
0ABEB800
00081800
20082800
2AA49800
20025800
200A0400
ENDCHAR
STARTCHAR uni091E094D0930
ENCODING -1
SWIDTH 598 0
DWIDTH 11 0
BBX 11 12 0 -1
BITMAP
AAAAE8
000080
000080
2A4080
008080
009080
00BAC0
009080
0082C0
2A4980
006480
004000
ENDCHAR
STARTCHAR uni091F094D0930
ENCODING -1
SWIDTH 485 0
DWIDTH 9 0
BBX 9 13 0 -2
BITMAP
AAAE80
000800
000800
0AA800
240000
200000
200000
200200
240600
0BF800
027000
061800
0C0900
ENDCHAR
STARTCHAR uni0920094D0930
ENCODING -1
SWIDTH 512 0
DWIDTH 9 0
BBX 10 13 0 -2
BITMAP
AAAE90
000800
000C00
0AB800
240600
200300
200300
200300
240600
0AF800
027000
061800
080900
ENDCHAR
STARTCHAR uni0921094D0930
ENCODING -1
SWIDTH 475 0
DWIDTH 9 0
BBX 9 14 0 -3
BITMAP
AAAE80
000C00
000C00
0AA800
240000
240000
0AA800
000900
000500
240900
1BF800
026000
092400
080C00
ENDCHAR
STARTCHAR uni0922094D0930
ENCODING -1
SWIDTH 485 0
DWIDTH 9 0
BBX 9 13 0 -2
BITMAP
AAAE80
000C00
000C00
0AA800
240000
200000
206900
208200
240200
0AF900
027000
061800
080900
ENDCHAR
STARTCHAR uni0923094D0930
ENCODING -1
SWIDTH 681 0
DWIDTH 12 0
BBX 13 12 0 -1
BITMAP
BEBEBE40
24181800
24181800
24181800
24181800
24181800
18242800
0AA0A800
00025800
00061800
00181800
00100000
ENDCHAR
STARTCHAR uni0924094D0930
ENCODING -1
SWIDTH 493 0
DWIDTH 9 0
BBX 9 11 0 0
BITMAP
AAAF80
000900
000900
0AA900
240D00
200900
200900
001D00
00A900
024900
190900
ENDCHAR
STARTCHAR uni0925094D0930
ENCODING -1
SWIDTH 593 0
DWIDTH 11 0
BBX 10 12 1 -1
BITMAP
2A42A0
608300
50C300
018300
AA4300
C00300
C00300
A00700
2ABB00
00A300
024200
090000
ENDCHAR
STARTCHAR uni0926094D0930
ENCODING -1
SWIDTH 489 0
DWIDTH 9 0
BBX 9 12 0 -1
BITMAP
AAAF80
000900
000900
0AAC00
280000
200000
200500
200500
240900
0AB900
009500
024000
ENDCHAR
STARTCHAR uni0927094D0930
ENCODING -1
SWIDTH 560 0
DWIDTH 10 0
BBX 11 12 0 -1
BITMAP
AE0BE4
240140
240140
240140
0F8140
180140
240140
240140
180340
0ABE40
006140
014000
ENDCHAR
STARTCHAR uni0928094D0930
ENCODING -1
SWIDTH 473 0
DWIDTH 9 0
BBX 9 12 0 -1
BITMAP
AAAE80
000C00
000C00
000C00
2AAC00
200C00
202C00
109C00
028C00
060C00
180C00
000400
ENDCHAR
STARTCHAR uni092A094D0930
ENCODING -1
SWIDTH 503 0
DWIDTH 9 0
BBX 10 12 0 -1
BITMAP
BEAF90
240500
240500
240500
240500
240500
180900
0AB900
009500
024500
090500
040000
ENDCHAR
STARTCHAR uni092B094D0930
ENCODING -1
SWIDTH 741 0
DWIDTH 13 0
BBX 14 11 0 0
BITMAP
BEAFAA90
24090000
240AA900
240A0300
24090240
24090240
180D0240
06B90300
00896900
02490000
09090000
ENDCHAR
STARTCHAR uni092C094D0930
ENCODING -1
SWIDTH 491 0
DWIDTH 9 0
BBX 9 12 0 -1
BITMAP
AAAF80
000900
0A8900
280900
260900
314900
309900
202D00
241D00
0AE900
018900
050000
ENDCHAR
STARTCHAR uni092D094D0930
ENCODING -1
SWIDTH 491 0
DWIDTH 9 0
BBX 9 12 0 -1
BITMAP
A06F80
240900
240900
240900
240900
2EAD00
241D00
242900
008900
024900
090900
040000
ENDCHAR
STARTCHAR uni092E094D0930
ENCODING -1
SWIDTH 490 0
DWIDTH 9 0
BBX 9 12 0 -1
BITMAP
BEAE80
240800
240800
240800
240800
2EAC00
241C00
246800
008800
024800
090800
040000
ENDCHAR
STARTCHAR uni092F094D0930
ENCODING -1
SWIDTH 564 0
DWIDTH 10 0
BBX 11 12 0 -1
BITMAP
ABABE4
018180
008180
018180
2A0180
200180
200180
180280
0ABE80
006180
018140
020000
ENDCHAR
STARTCHAR uni0935094D0930
ENCODING -1
SWIDTH 484 0
DWIDTH 9 0
BBX 9 12 0 -1
BITMAP
AAAE80
000800
0A8800
240800
200800
300800
300800
241C00
0AEC00
018800
034800
090000
ENDCHAR
STARTCHAR uni0936094D0930
ENCODING -1
SWIDTH 558 0
DWIDTH 10 0
BBX 10 11 0 0
BITMAP
1A91E0
243140
203140
242140
099140
0B8140
646640
001E40
00A140
064140
000140
ENDCHAR
STARTCHAR uni0938094D0930
ENCODING -1
SWIDTH 604 0
DWIDTH 11 0
BBX 11 11 0 0
BITMAP
ABEAF8
024090
024090
024090
020090
7FABD0
300290
180990
082490
061090
024090
ENDCHAR
STARTCHAR uni0939094D0930
ENCODING -1
SWIDTH 505 0
DWIDTH 9 0
BBX 10 13 0 -2
BITMAP
AAAF90
000900
000900
0AAD00
240000
240000
0FAE00
241A00
206200
309200
200100
240000
0AA800
ENDCHAR
STARTCHAR uni0915093C094D0930
ENCODING -1
SWIDTH 725 0
DWIDTH 13 0
BBX 14 13 0 -2
BITMAP
AAAEAA90
000C0000
0A8DA800
240D0600
300C0300
300C0300
300C0300
241C0600
0AECA800
008C0000
02080000
09000000
00800000
ENDCHAR
STARTCHAR uni0916093C094D0930
ENCODING -1
SWIDTH 698 0
DWIDTH 13 0
BBX 13 13 0 -2
BITMAP
ABEAAE80
01800C00
01800C00
01868C00
024C0C00
7A180C00
30180C00
180C1C00
0906EC00
03008C00
01820C00
00490400
00008000
ENDCHAR
STARTCHAR uni0917093C094D0930
ENCODING -1
SWIDTH 494 0
DWIDTH 9 0
BBX 9 13 0 -2
BITMAP
AFAF80
090900
090900
090900
090900
0C0900
642D00
006900
018900
020900
090900
000000
008000
ENDCHAR
STARTCHAR uni091C093C094D0930
ENCODING -1
SWIDTH 547 0
DWIDTH 10 0
BBX 10 12 0 -1
BITMAP
AAABE0
000240
000240
2BAB40
018240
00C240
00C240
00C240
018B40
6A2A40
00A240
504000
ENDCHAR
STARTCHAR uni0921093C094D0930
ENCODING -1
SWIDTH 475 0
DWIDTH 9 0
BBX 9 14 0 -3
BITMAP
AAAE80
000C00
000C00
0AA800
240000
240000
0AA800
000900
000500
240900
1BF800
826000
092400
080C00
ENDCHAR
STARTCHAR uni0922093C094D0930
ENCODING -1
SWIDTH 485 0
DWIDTH 9 0
BBX 9 13 0 -2
BITMAP
AAAE80
000C00
000C00
0AA800
240000
200000
206900
208200
240200
0AF900
02F000
876800
080900
ENDCHAR
STARTCHAR uni0928093C094D0930
ENCODING -1
SWIDTH 473 0
DWIDTH 9 0
BBX 9 13 0 -2
BITMAP
AAAE80
000C00
000C00
000C00
2AAC00
200C00
202C00
109C00
024C00
060C00
180C00
000400
020000
ENDCHAR
STARTCHAR uni092B093C094D0930
ENCODING -1
SWIDTH 741 0
DWIDTH 13 0
BBX 14 13 0 -2
BITMAP
BEAFAA90
24090000
240AA900
240A0300
24090240
24090240
180D0240
06B90300
00996900
02490000
09090000
14000000
01400000
ENDCHAR
STARTCHAR uni092F093C094D0930
ENCODING -1
SWIDTH 564 0
DWIDTH 10 0
BBX 11 13 0 -2
BITMAP
ABABE4
018180
008180
018180
2A0180
200180
200180
180280
0ABE80
007580
01D180
030000
002000
ENDCHAR
STARTCHAR uni0915094D0930094D
ENCODING -1
SWIDTH 518 0
DWIDTH 9 0
BBX 12 12 0 -1
BITMAP
AAAEA9
000C00
0A8DA8
240D05
300C00
300C00
300C00
241C00
0AEC00
018C00
020800
090000
ENDCHAR
STARTCHAR uni0916094D0930094D
ENCODING -1
SWIDTH 469 0
DWIDTH 8 0
BBX 11 12 0 -1
BITMAP
ABEAA4
018000
018000
018680
024C00
7A1800
201800
180C14
0906E0
030080
018200
000800
ENDCHAR
STARTCHAR uni0917094D0930094D
ENCODING -1
SWIDTH 264 0
DWIDTH 5 0
BBX 7 12 0 -1
BITMAP
AF80
0900
0900
0900
0900
0C08
6424
0060
0180
0200
0900
0400
ENDCHAR
STARTCHAR uni0918094D0930094D
ENCODING -1
SWIDTH 319 0
DWIDTH 6 0
BBX 8 12 0 -1
BITMAP
AEA9
2400
2000
2400
0F80
1400
2400
2400
1806
0AB8
0050
0200
ENDCHAR
STARTCHAR uni091A094D0930094D
ENCODING -1
SWIDTH 331 0
DWIDTH 6 0
BBX 8 12 0 -1
BITMAP
AAA9
0000
0000
6BA0
0900
0800
0800
0D02
06BD
0064
0180
0100
ENDCHAR
STARTCHAR uni091C094D0930094D
ENCODING -1
SWIDTH 312 0
DWIDTH 6 0
BBX 8 12 0 -1
BITMAP
AAA9
0000
0000
2BA9
0180
00C0
00C0
00C2
0189
6A64
0090
0040
ENDCHAR
STARTCHAR uni091D094D0930094D
ENCODING -1
SWIDTH 441 0
DWIDTH 8 0
BBX 11 12 0 -1
BITMAP
AABEA0
002400
0AB400
240000
240000
240000
0ABEB0
000824
200820
2AA490
200240
200A00
ENDCHAR
STARTCHAR uni091E094D0930094D
ENCODING -1
SWIDTH 374 0
DWIDTH 7 0
BBX 9 11 0 0
BITMAP
AAAA40
000000
000000
2A4000
008000
009000
00BAC0
009080
008140
2A4900
002400
ENDCHAR
STARTCHAR uni091F094D0930094D
ENCODING -1
SWIDTH 485 0
DWIDTH 9 0
BBX 9 15 0 -4
BITMAP
AAAE80
000800
0AA800
180000
200000
200000
200200
200200
180600
0BF800
026400
090900
009000
002000
001800
ENDCHAR
STARTCHAR uni0920094D0930094D
ENCODING -1
SWIDTH 512 0
DWIDTH 9 0
BBX 10 15 0 -4
BITMAP
AAAE90
000C00
0AB800
180600
200200
200300
200300
200200
180600
0AF800
026400
090800
045000
002000
001800
ENDCHAR
STARTCHAR uni0921094D0930094D
ENCODING -1
SWIDTH 475 0
DWIDTH 9 0
BBX 9 17 0 -6
BITMAP
AAAE80
000C00
000C00
0AA800
240000
240000
0AA800
000900
000500
240900
1BF800
026000
092800
080800
009000
002000
001400
ENDCHAR
STARTCHAR uni0922094D0930094D
ENCODING -1
SWIDTH 485 0
DWIDTH 9 0
BBX 9 16 0 -5
BITMAP
AAAE80
000C00
000C00
0AA800
240000
200000
206900
208200
240200
0AF900
026400
061800
080500
006000
002400
000800
ENDCHAR
STARTCHAR uni0923094D0930094D
ENCODING -1
SWIDTH 457 0
DWIDTH 8 0
BBX 10 12 0 -1
BITMAP
BEBE40
241800
241800
241800
241800
241800
182420
0AA090
000240
000600
001800
001000
ENDCHAR
STARTCHAR uni0924094D0930094D
ENCODING -1
SWIDTH 268 0
DWIDTH 5 0
BBX 8 11 0 0
BITMAP
AAA9
0000
0000
0AA0
2408
2008
2008
0018
00A0
0240
1900
ENDCHAR
STARTCHAR uni0925094D0930094D
ENCODING -1
SWIDTH 358 0
DWIDTH 6 0
BBX 8 12 1 -1
BITMAP
2A40
6080
50C0
0180
AA40
C000
C000
A005
2AB8
0090
0240
0900
ENDCHAR
STARTCHAR uni0926094D0930094D
ENCODING -1
SWIDTH 489 0
DWIDTH 9 0
BBX 9 14 0 -3
BITMAP
AAAF80
000900
000900
0AAC00
280000
200000
200500
200500
240900
0AB900
009500
011000
001400
000900
ENDCHAR
STARTCHAR uni0927094D0930094D
ENCODING -1
SWIDTH 322 0
DWIDTH 6 0
BBX 8 12 0 -1
BITMAP
AE19
2400
2000
2400
0F80
1400
2400
2400
1802
0ABD
0060
0140
ENDCHAR
STARTCHAR uni0928094D0930094D
ENCODING -1
SWIDTH 247 0
DWIDTH 4 0
BBX 7 11 0 0
BITMAP
AAA8
0000
0000
0000
2AA8
2008
2024
10A0
0180
0600
1800
ENDCHAR
STARTCHAR uni092A094D0930094D
ENCODING -1
SWIDTH 270 0
DWIDTH 5 0
BBX 7 12 0 -1
BITMAP
BEA0
2400
2400
2400
2400
2400
1808
06B4
0090
0240
0900
0400
ENDCHAR
STARTCHAR uni092B094D0930094D
ENCODING -1
SWIDTH 523 0
DWIDTH 9 0
BBX 13 11 -1 0
BITMAP
6EABAA40
08030000
08036A00
08034180
08030000
08030000
0A070000
02BB0000
00630000
01830000
06020000
ENDCHAR
STARTCHAR uni092C094D0930094D
ENCODING -1
SWIDTH 267 0
DWIDTH 5 0
BBX 7 12 0 -1
BITMAP
AAA8
0000
0A80
2800
2600
3140
3090
2028
2418
0AE0
0140
0500
ENDCHAR
STARTCHAR uni092D094D0930094D
ENCODING -1
SWIDTH 257 0
DWIDTH 5 0
BBX 7 12 0 -1
BITMAP
A068
2400
2400
2400
2400
2EA8
2418
2460
0080
0240
0900
0400
ENDCHAR
STARTCHAR uni092E094D0930094D
ENCODING -1
SWIDTH 261 0
DWIDTH 5 0
BBX 7 12 0 -1
BITMAP
BEA8
2400
2400
2400
2400
2EA8
2418
2460
0080
0240
0900
0400
ENDCHAR
STARTCHAR uni092F094D0930094D
ENCODING -1
SWIDTH 323 0
DWIDTH 6 0
BBX 8 12 0 -1
BITMAP
ABA8
0180
0080
0180
2A00
2000
2000
1802
0ABD
0074
01C0
0200
ENDCHAR
STARTCHAR uni0935094D0930094D
ENCODING -1
SWIDTH 255 0
DWIDTH 5 0
BBX 7 12 0 -1
BITMAP
AAA0
0000
0A80
2400
2000
3000
3000
2418
0AF4
01D0
0340
0900
ENDCHAR
STARTCHAR uni0938094D0930094D
ENCODING -1
SWIDTH 347 0
DWIDTH 6 0
BBX 9 11 0 0
BITMAP
ABEA00
024000
024000
024000
020000
7FAB40
300200
180900
082400
061000
024000
ENDCHAR
STARTCHAR uni0915093C094D0930094D
ENCODING -1
SWIDTH 518 0
DWIDTH 9 0
BBX 12 13 0 -2
BITMAP
AAAEA9
000C00
0A8DA8
240D05
300C00
300C00
300C00
241C00
0AEC00
008C00
024C00
090000
008000
ENDCHAR
STARTCHAR uni0916093C094D0930094D
ENCODING -1
SWIDTH 466 0
DWIDTH 8 0
BBX 11 13 0 -2
BITMAP
ABEAA4
018000
018000
018680
024C00
7A1800
301800
180C14
0906E0
030080
018240
004900
000080
ENDCHAR
STARTCHAR uni0917093C094D0930094D
ENCODING -1
SWIDTH 264 0
DWIDTH 5 0
BBX 7 13 0 -2
BITMAP
AF80
0900
0900
0900
0900
0C08
6424
0060
0180
0200
0900
0400
0080
ENDCHAR
STARTCHAR uni091C093C094D0930094D
ENCODING -1
SWIDTH 320 0
DWIDTH 6 0
BBX 8 13 0 -2
BITMAP
AAA9
0000
0000
2BA9
0180
00C0
00C0
00C0
0182
6A08
0020
0090
5000
ENDCHAR
STARTCHAR uni0928093C094D0930094D
ENCODING -1
SWIDTH 247 0
DWIDTH 4 0
BBX 7 13 0 -2
BITMAP
AAA8
0000
0000
0000
2AA8
2008
2024
1060
0180
0600
0900
1400
0200
ENDCHAR
STARTCHAR uni092B093C094D0930094D
ENCODING -1
SWIDTH 523 0
DWIDTH 9 0
BBX 13 13 -1 -2
BITMAP
6EABAA40
08030000
08036A00
08034180
08030000
08030000
0A070000
02BB0000
00230000
00830000
02430000
05010000
00800000
ENDCHAR
STARTCHAR uni092F093C094D0930094D
ENCODING -1
SWIDTH 323 0
DWIDTH 6 0
BBX 8 13 0 -2
BITMAP
ABA8
0180
0080
0180
2A00
2000
2000
1802
0ABD
0074
01D0
0200
0020
ENDCHAR
STARTCHAR uni0915094D0915
ENCODING -1
SWIDTH 1255 0
DWIDTH 23 0
BBX 23 12 0 -1
BITMAP
AAAEAAABEAA8
000C00014000
0A8DA9A5AA40
240D0701C090
300C06018050
300C06014050
300C06014050
241C02024090
0AAC01AA4A40
000C00014000
000C00014000
000400000000
ENDCHAR
STARTCHAR uni0915094D0916
ENCODING -1
SWIDTH 1256 0
DWIDTH 23 0
BBX 23 12 0 -1
BITMAP
AAAEAABEAAE8
000C001800C0
0A8DA41800C0
240D091868C0
300C0518C0C0
300C07A080C0
300C020080C0
241C018041C0
0AAC009000C0
000C003000C0
000C001800C0
000400040040
ENDCHAR
STARTCHAR uni0915094D091A
ENCODING -1
SWIDTH 1086 0
DWIDTH 20 0
BBX 20 12 0 -1
BITMAP
AAAEAAAABA
000C000030
0A8DA40030
240D1AF830
300C018030
300C024030
300C024030
241C018070
0AAC00AA70
000C000030
000C000030
0004000010
ENDCHAR
STARTCHAR uni0915094D091C
ENCODING -1
SWIDTH 1071 0
DWIDTH 19 0
BBX 20 12 0 -1
BITMAP
AAAEAAAAF9
000C000060
0A8C000060
240DA2FAE0
300D002060
300C001460
300C001460
241C001460
0AAC002460
000C0A9060
000C000060
0004000000
ENDCHAR
STARTCHAR uni0915094D091F
ENCODING -1
SWIDTH 984 0
DWIDTH 18 0
BBX 18 12 0 -1
BITMAP
AAAEAAABA0
000C000200
0A8DA80200
240D0BAA00
300C090000
300C080000
300C080040
241C080080
0AAC090180
000C02AA00
000C000000
0004000000
ENDCHAR
STARTCHAR uni0915094D0923
ENCODING -1
SWIDTH 1183 0
DWIDTH 21 0
BBX 22 12 0 -1
BITMAP
AAAEAFABAF90
000C05020600
0A8C05020600
240DAD020600
300D05020600
300C05020600
300C06060600
241C01A80600
0AAC00000600
000C00000600
000C00000600
000400000000
ENDCHAR
STARTCHAR uni0915094D0924
ENCODING -1
SWIDTH 761 0
DWIDTH 14 0
BBX 14 11 0 0
BITMAP
AAAFAAA0
00060000
00060000
2BAEA900
09070240
0C060180
0C060180
0C060180
09060240
02962900
00060000
ENDCHAR
STARTCHAR uni0915094D0925
ENCODING -1
SWIDTH 1118 0
DWIDTH 20 0
BBX 21 12 0 -1
BITMAP
AAAE91A81E40
000C03091400
0A8C01051400
240C00091400
300DAAA41400
300D05001400
300C05001400
241C06003400
0AAC01AAA400
000C00001400
000C00001400
000400000000
ENDCHAR
STARTCHAR uni0915094D0926
ENCODING -1
SWIDTH 1009 0
DWIDTH 18 0
BBX 19 11 0 0
BITMAP
AAAEAAABE4
000C000180
0A8DA80180
240D0BEA40
300C060000
300C050000
300C050080
300C050080
241C020180
0A9C01AA80
0008000080
ENDCHAR
STARTCHAR uni0915094D092A
ENCODING -1
SWIDTH 1007 0
DWIDTH 18 0
BBX 19 12 0 -1
BITMAP
AAAEAFABE4
000C050140
0A8C050140
240DAD0140
300D050140
300C050140
300C060240
241C01AA40
0AAC000140
000C000140
000C000140
0004000000
ENDCHAR
STARTCHAR uni0915094D092B
ENCODING -1
SWIDTH 1242 0
DWIDTH 22 0
BBX 23 12 0 -1
BITMAP
AAAEAFABEAA4
000C05024000
0A8C0502AA40
240DAD0280C0
300D05024090
300C05024090
300C06034090
241C01AA40C0
0AAC00025A40
000C00024000
000C00024000
000400000000
ENDCHAR
STARTCHAR uni0915094D092E
ENCODING -1
SWIDTH 994 0
DWIDTH 18 0
BBX 18 12 0 -1
BITMAP
AAAEAFABE0
000C090240
0A8C090240
240DAD0240
300D090240
300C0BAB40
300C090240
241C050240
0AAC000240
000C000240
000C000240
0004000000
ENDCHAR
STARTCHAR uni0915094D092F
ENCODING -1
SWIDTH 1076 0
DWIDTH 19 0
BBX 20 12 0 -1
BITMAP
AAAEAAFAB9
000C002020
0A8C003020
240C002020
300DAE9020
300D090020
300C090060
241C0600A0
0AAC01AA60
000C000020
000C000020
0004000000
ENDCHAR
STARTCHAR uni0915094D0932
ENCODING -1
SWIDTH 1178 0
DWIDTH 21 0
BBX 22 12 0 -1
BITMAP
AAAEAAAAAF90
000C00000600
0A8DA8000600
240D0BA5AA00
300C060A0A00
300C09050600
300C09050600
241C09000600
0AAC06000600
000C02A00600
000C00000600
000400000000
ENDCHAR
STARTCHAR uni0915094D0935
ENCODING -1
SWIDTH 1013 0
DWIDTH 18 0
BBX 19 12 0 -1
BITMAP
AAAEAAABE4
000C000180
0A8DA9A580
240D070180
300C060180
300C060180
300C060180
300C060180
241C020280
0AAC01AA80
000C000180
0004000000
ENDCHAR
STARTCHAR uni0915094D0936
ENCODING -1
SWIDTH 1194 0
DWIDTH 21 0
BBX 22 12 0 -1
BITMAP
AAAEA46A03A0
000C00824200
0A8C01814200
240DA8014200
300D06024200
300C03A90200
300C02400200
241C00800200
0AAC00600200
000C00240200
000C000C0200
000400000100
ENDCHAR
STARTCHAR uni0915094D0938
ENCODING -1
SWIDTH 1143 0
DWIDTH 21 0
BBX 21 12 0 -1
BITMAP
AAAEAABEAE80
000C00140C00
0A8DA4140C00
240D09140C00
300C06240C00
300C03FAAC00
300C02400C00
241C01800C00
0AAC00900C00
000C00300C00
000C00240C00
000400040400
ENDCHAR
STARTCHAR uni0916094D0916
ENCODING -1
SWIDTH 1223 0
DWIDTH 22 0
BBX 22 12 0 -1
BITMAP
ABEAAABAABE0
018000200140
018000200140
01868020A140
024C00324140
7A180A920140
30180A020240
180C1B424240
0906A180AA40
030000900140
018000200140
004000000000
ENDCHAR
STARTCHAR uni0916094D0924
ENCODING -1
SWIDTH 984 0
DWIDTH 18 0
BBX 18 11 0 0
BITMAP
ABEAAAABA0
0180000200
0180000200
0186800200
024C06AB00
7A18090200
20180C0200
180C080200
0906AC0200
02400D0200
0180068200
ENDCHAR
STARTCHAR uni0916094D092E
ENCODING -1
SWIDTH 965 0
DWIDTH 17 0
BBX 18 12 0 -1
BITMAP
ABEAAEAB90
0180080200
0180080200
0186880200
024C080200
7A180EAE00
3018080200
180C180200
0906A00200
0300000200
0180000200
0040000000
ENDCHAR
STARTCHAR uni0916094D092F
ENCODING -1
SWIDTH 1047 0
DWIDTH 19 0
BBX 19 12 0 -1
BITMAP
ABEAABEAF8
0180009090
0180005090
0186809090
024C0E8090
7A18080090
30180C0090
180C1D01D0
0906A6AA90
0300000090
0180000090
0040000000
ENDCHAR
STARTCHAR uni0916094D0935
ENCODING -1
SWIDTH 975 0
DWIDTH 18 0
BBX 18 12 0 -1
BITMAP
ABEAAAABA0
0180000300
018002A300
0186890300
024C0C0300
7A180C0300
30180C0300
180C1C0300
0906A90700
030002A700
0180000300
0040000100
ENDCHAR
STARTCHAR uni0916094D0936
ENCODING -1
SWIDTH 1123 0
DWIDTH 20 0
BBX 21 12 0 -1
BITMAP
ABEA82A41E40
018006081800
018005091800
018684091800
024C000C1800
7A182AA41800
201818001800
180C1D001800
0906A7001800
030002801800
018000901800
004000000000
ENDCHAR
STARTCHAR uni0917094D0917
ENCODING -1
SWIDTH 744 0
DWIDTH 13 0
BBX 14 12 0 -1
BITMAP
AFABAB90
09020200
09020200
09020200
09020200
0C060200
64280200
00000200
00000200
00000200
00000200
00000100
ENDCHAR
STARTCHAR uni0917094D0918
ENCODING -1
SWIDTH 823 0
DWIDTH 15 0
BBX 15 11 0 0
BITMAP
AFAFAAF8
09080090
090C0090
09090090
0907A090
0C090090
640C0090
000C0090
000901D0
0002AA90
00000090
ENDCHAR
STARTCHAR uni0917094D091C
ENCODING -1
SWIDTH 801 0
DWIDTH 14 0
BBX 15 12 0 -1
BITMAP
AFAAAAE4
09000080
09000080
09000080
090BEA80
0C009080
64006080
00006080
00009080
002A8080
00000080
00000040
ENDCHAR
STARTCHAR uni0917094D0923
ENCODING -1
SWIDTH 945 0
DWIDTH 17 0
BBX 17 11 0 0
BITMAP
AFAEAFAF80
0908050900
0908050900
0908050900
0908050900
0C08050900
6409090900
0002A40900
0000000900
0000000900
0000000900
ENDCHAR
STARTCHAR uni0917094D0926
ENCODING -1
SWIDTH 748 0
DWIDTH 13 0
BBX 14 11 0 0
BITMAP
AFAAABA0
09000300
09000300
0902AA00
09090000
0C080000
64080200
00080200
00090300
0002AA00
00000200
ENDCHAR
STARTCHAR uni0917094D0927
ENCODING -1
SWIDTH 823 0
DWIDTH 15 0
BBX 15 11 0 0
BITMAP
AFAF86F8
09080090
090C0090
09090090
0907A090
0C090090
640C0090
000C0090
000901D0
0002AA90
00000090
ENDCHAR
STARTCHAR uni0917094D092C
ENCODING -1
SWIDTH 755 0
DWIDTH 14 0
BBX 14 12 0 -1
BITMAP
AFAAABA0
09000300
0902A300
090A0300
09094300
0C089300
64082700
00080B00
00090B00
0002A700
00000300
00000100
ENDCHAR
STARTCHAR uni0917094D092D
ENCODING -1
SWIDTH 755 0
DWIDTH 14 0
BBX 14 12 0 -1
BITMAP
AFA42BA0
090C0300
09080300
09080300
09080300
0C0AAB00
64080300
00080300
00000300
00000300
00000300
00000100
ENDCHAR
STARTCHAR uni0917094D092E
ENCODING -1
SWIDTH 754 0
DWIDTH 14 0
BBX 14 12 0 -1
BITMAP
AFAEABA0
09080300
09080300
09080300
09080300
0C0AAB00
64080300
00080300
00000300
00000300
00000300
00000100
ENDCHAR
STARTCHAR uni0917094D092F
ENCODING -1
SWIDTH 828 0
DWIDTH 15 0
BBX 15 11 0 0
BITMAP
AFABEAF8
09009090
09005090
09009090
090E8090
0C0C0090
640C0090
000901D0
0002AA90
00000090
00000090
ENDCHAR
STARTCHAR uni0917094D0932
ENCODING -1
SWIDTH 924 0
DWIDTH 17 0
BBX 17 12 0 -1
BITMAP
AFAAAAAE80
0900000C00
0900000C00
0906A6AC00
090C1C1C00
0C18080C00
6418080C00
0018000C00
000C000C00
0006900C00
0000000C00
0000000400
ENDCHAR
STARTCHAR uni0917094D0935
ENCODING -1
SWIDTH 747 0
DWIDTH 13 0
BBX 14 12 0 -1
BITMAP
AFAAABA0
09000200
09029200
09090200
09080200
0C080200
64080200
00080200
00090600
0002A600
00000200
00000100
ENDCHAR
STARTCHAR uni0917094D0938
ENCODING -1
SWIDTH 839 0
DWIDTH 15 0
BBX 16 11 0 0
BITMAP
AFAAEAF9
0900C050
0900C050
0900C050
09018050
0C2FAAD0
64180050
00090050
00020050
00024050
0000C050
ENDCHAR
STARTCHAR uni0918094D092E
ENCODING -1
SWIDTH 818 0
DWIDTH 15 0
BBX 15 12 0 -1
BITMAP
AEABEAE8
24024080
20024080
24024080
0F824080
1402EAC0
24024080
24020080
18030080
0AA90080
00000080
00000040
ENDCHAR
STARTCHAR uni0918094D092F
ENCODING -1
SWIDTH 867 0
DWIDTH 16 0
BBX 16 12 0 -1
BITMAP
AEAAFABA
24002030
20002430
24003030
0F879030
14060030
24060030
24020070
1807EA70
0AA80030
00000030
00000010
ENDCHAR
STARTCHAR uni091A094D091A
ENCODING -1
SWIDTH 868 0
DWIDTH 16 0
BBX 16 12 0 -1
BITMAP
AAAAAABA
00000030
00000030
6B86F930
09018030
08024030
08024030
09028070
02A96A70
00000030
00000030
00000010
ENDCHAR
STARTCHAR uni091A094D091B
ENCODING -1
SWIDTH 922 0
DWIDTH 17 0
BBX 17 10 0 1
BITMAP
AAAAFAAE80
0001800800
0001400800
6BA140A800
0901800800
0800B80900
0801800900
0902400900
02AA800800
0000AAA400
ENDCHAR
STARTCHAR uni091A094D092E
ENCODING -1
SWIDTH 830 0
DWIDTH 15 0
BBX 15 11 0 0
BITMAP
AAABEAF8
00014090
00014090
6BA14090
09014090
0801EAD0
08014090
09024090
02A90090
00000090
00000090
ENDCHAR
STARTCHAR uni091A094D092F
ENCODING -1
SWIDTH 904 0
DWIDTH 16 0
BBX 17 11 0 0
BITMAP
AAAABEBE40
0000181800
00000C1800
6BA0181800
0902A01800
0802401800
0802401800
0902802800
02A96AA800
0000001800
0000001800
ENDCHAR
STARTCHAR uni091B094D092F
ENCODING -1
SWIDTH 1068 0
DWIDTH 19 0
BBX 20 11 0 0
BITMAP
AEAAAAAAF9
1400000060
2400000060
240BEAA060
1800802460
0F40802460
140083A060
2400820060
1400C240A0
0AAA40AA60
0000000060
ENDCHAR
STARTCHAR uni091B094D0935
ENCODING -1
SWIDTH 581 0
DWIDTH 10 0
BBX 11 13 0 -2
BITMAP
AEABE8
140180
240180
180B80
0F40C0
180080
240080
180080
0BAA80
080180
080180
0C0240
06A900
ENDCHAR
STARTCHAR uni091C094D0915
ENCODING -1
SWIDTH 1054 0
DWIDTH 19 0
BBX 19 12 0 -1
BITMAP
AAAAAAEAA8
000000C000
0000A4DA80
000140D060
2BAB00C030
018300C030
00C300C030
00C341C060
0181A9CA80
6A4000C000
000000C000
0000004000
ENDCHAR
STARTCHAR uni091C094D091C
ENCODING -1
SWIDTH 903 0
DWIDTH 16 0
BBX 17 11 0 0
BITMAP
AAAAAABE40
0000001800
0000001800
0000001800
2BA8BEB800
0180091800
00C0051800
00C0051800
0180091800
6A42A41800
0000001800
ENDCHAR
STARTCHAR uni091C094D091D
ENCODING -1
SWIDTH 990 0
DWIDTH 18 0
BBX 18 12 0 -1
BITMAP
AAAAABEBA0
0000024200
0000AB0200
0001400200
2BAB000200
0182400200
00C1ABAB00
00C0018200
0183018200
6A43AA4200
0003000200
0002000000
ENDCHAR
STARTCHAR uni091C094D091F
ENCODING -1
SWIDTH 815 0
DWIDTH 15 0
BBX 15 10 0 1
BITMAP
AAAAAAE8
00000080
00000080
0000AA80
2BAB4000
01830000
00C30000
00C30020
01824060
6A00AA80
ENDCHAR
STARTCHAR uni091C094D0921
ENCODING -1
SWIDTH 797 0
DWIDTH 14 0
BBX 15 11 0 0
BITMAP
AAAAABE4
00000180
00000180
2BABEA80
01830000
00C20000
00C1AA40
00C00080
01810090
6A030080
0001AA40
ENDCHAR
STARTCHAR uni091C094D0924
ENCODING -1
SWIDTH 830 0
DWIDTH 15 0
BBX 15 11 0 0
BITMAP
AAAAAAF8
00000090
00000090
00000090
2BAAAAD0
01824090
00C20090
00C20090
01820090
6A024090
0000A090
ENDCHAR
STARTCHAR uni091C094D0926
ENCODING -1
SWIDTH 817 0
DWIDTH 15 0
BBX 15 11 0 0
BITMAP
AAAAAAE8
00000080
00000080
0000AAC0
2BAB4000
01820000
00C30050
00C30090
01824090
6A40AA90
00000050
ENDCHAR
STARTCHAR uni091C094D092C
ENCODING -1
SWIDTH 820 0
DWIDTH 15 0
BBX 15 12 0 -1
BITMAP
AAAAAAE8
00000080
0000A880
00018080
2BAB8080
01832080
00C30880
00C302C0
018241C0
6A40AA80
00000080
00000040
ENDCHAR
STARTCHAR uni091C094D092E
ENCODING -1
SWIDTH 813 0
DWIDTH 15 0
BBX 15 12 0 -1
BITMAP
AAABAAE8
000200C0
000200C0
000200C0
2BAB00C0
0182AAC0
00C200C0
00C200C0
018000C0
6A4000C0
000000C0
00000040
ENDCHAR
STARTCHAR uni091C094D092F
ENCODING -1
SWIDTH 893 0
DWIDTH 16 0
BBX 17 11 0 0
BITMAP
AAAABABE40
0000141400
0000181400
2BA9181400
0183A01400
00C3001400
00C2001400
00C1803400
01806AA400
6A00001400
0000001400
ENDCHAR
STARTCHAR uni091C094D0935
ENCODING -1
SWIDTH 813 0
DWIDTH 15 0
BBX 15 12 0 -1
BITMAP
AAAAAAE8
000000C0
000068C0
000140C0
2BAB00C0
018300C0
00C300C0
00C300C0
018241C0
6A40AAC0
000000C0
00000040
ENDCHAR
STARTCHAR uni091D094D092E
ENCODING -1
SWIDTH 936 0
DWIDTH 17 0
BBX 17 12 0 -1
BITMAP
AABEBEAF80
0024240900
0AB4240900
2400240900
2400240900
24002EAD00
0ABEB40900
0008240900
2008000900
2AA4000900
2000000900
2000000000
ENDCHAR
STARTCHAR uni091D094D092F
ENCODING -1
SWIDTH 1000 0
DWIDTH 18 0
BBX 18 12 0 -1
BITMAP
AABEABABE0
0024014240
0AB4018240
2400014240
24002A0240
2400300240
0ABEB00240
0008240340
20080AAA40
2AA4000240
2000000140
2000000000
ENDCHAR
STARTCHAR uni091E094D091B
ENCODING -1
SWIDTH 913 0
DWIDTH 16 0
BBX 17 10 0 1
BITMAP
AAAAEABE40
0001401800
2A42401800
008240B800
0081400C00
00BBF40800
0082400800
0082400800
6A41400800
0000AAA400
ENDCHAR
STARTCHAR uni091E094D091C
ENCODING -1
SWIDTH 932 0
DWIDTH 17 0
BBX 17 12 0 -1
BITMAP
AAAAAAAE80
0000000800
0000000800
0000000800
2A40AEAC00
00C0060800
00B9030800
0090030800
0080060800
2A41A90800
0000000800
0000000400
ENDCHAR
STARTCHAR uni091E094D0936
ENCODING -1
SWIDTH 975 0
DWIDTH 18 0
BBX 18 12 0 -1
BITMAP
AAA46A03A0
0000C14300
0000818300
2A40818300
0080024300
00BBAA0300
0091800300
0080900300
2A40300300
0000180300
0000090300
0000000100
ENDCHAR
STARTCHAR uni091F094D091F
ENCODING -1
SWIDTH 494 0
DWIDTH 9 0
BBX 9 16 0 -5
BITMAP
AAAE80
000800
000800
0AA800
240000
300000
300200
240600
0AAC00
000800
0AA800
240000
300000
300200
240600
0AA800
ENDCHAR
STARTCHAR uni091F094D0920
ENCODING -1
SWIDTH 495 0
DWIDTH 9 0
BBX 9 16 0 -5
BITMAP
AAAE80
000800
000800
0AA800
240000
300000
300200
240600
0AAC00
000C00
0AB800
240600
200200
200200
240600
0AA800
ENDCHAR
STARTCHAR uni091F094D092F
ENCODING -1
SWIDTH 990 0
DWIDTH 18 0
BBX 18 11 0 0
BITMAP
AAAEAAABE0
0008000240
0008000240
0AAEAA4240
240000C240
200000C240
20011A4240
2002140240
2406180740
0AA806AA40
0000000240
ENDCHAR
STARTCHAR uni091F094D0935
ENCODING -1
SWIDTH 501 0
DWIDTH 9 0
BBX 9 13 0 -2
BITMAP
AAAE80
000C00
000C00
0AA800
240000
200100
200300
240600
0FAA00
180600
240600
180900
0AA400
ENDCHAR
STARTCHAR uni0920094D092F
ENCODING -1
SWIDTH 998 0
DWIDTH 18 0
BBX 18 11 0 0
BITMAP
AAAEAAABE0
000C000240
000C000240
0AB8AA4240
2407408240
2003008240
20031A4240
2003180240
2406080740
0AA806AA40
0000000240
ENDCHAR
STARTCHAR uni0921094D0921
ENCODING -1
SWIDTH 493 0
DWIDTH 9 0
BBX 9 16 0 -5
BITMAP
AAAE80
000C00
0AA800
240000
240000
0AA800
000900
200600
240900
1EA800
240000
240000
0AA800
100500
240500
1AA800
ENDCHAR
STARTCHAR uni0921094D0922
ENCODING -1
SWIDTH 493 0
DWIDTH 9 0
BBX 9 15 0 -4
BITMAP
AAAE80
000C00
0AA800
240000
240000
0AA800
000900
200600
240900
0FA800
146900
209200
208200
240600
0AA900
ENDCHAR
STARTCHAR uni0921094D092F
ENCODING -1
SWIDTH 973 0
DWIDTH 18 0
BBX 18 11 0 0
BITMAP
AAAEAAABA0
000C000300
000C000300
0AAEAA0300
2400018300
2400018300
0AA82A0300
0009200300
1005240B00
24090AA700
0AA8000200
ENDCHAR
STARTCHAR uni0921094D0935
ENCODING -1
SWIDTH 493 0
DWIDTH 9 0
BBX 9 14 0 -3
BITMAP
AAAE80
000C00
0AA800
240000
240000
0AA800
000900
200600
240A00
0FAA00
180600
240500
180900
0AA400
ENDCHAR
STARTCHAR uni0922094D092F
ENCODING -1
SWIDTH 981 0
DWIDTH 18 0
BBX 18 12 0 -1
BITMAP
AAAEAAABA0
000C000300
000C000300
0AAEAA0300
2400018300
2000018300
20692A0300
2082240300
2402180700
0AA906A700
0000000300
0000000100
ENDCHAR
STARTCHAR uni0923094D091F
ENCODING -1
SWIDTH 908 0
DWIDTH 16 0
BBX 17 10 0 1
BITMAP
BEBEAABE40
2418001400
2418001400
24181AB400
2418300000
2418200000
1824600000
0AA0200500
0000300900
00001AA400
ENDCHAR
STARTCHAR uni0923094D0920
ENCODING -1
SWIDTH 936 0
DWIDTH 17 0
BBX 17 10 0 1
BITMAP
BEBEAABE80
2418001800
2418001800
24181AB400
2418300900
2418200500
1824600600
0AA0200500
0000300900
00001AA400
ENDCHAR
STARTCHAR uni0923094D0921
ENCODING -1
SWIDTH 892 0
DWIDTH 16 0
BBX 17 11 0 0
BITMAP
BEBEAABE40
2418001400
2418001400
24181AB400
2418200000
2418200000
18241AA400
0AA0000800
0000100C00
0000200800
00001AA400
ENDCHAR
STARTCHAR uni0923094D0922
ENCODING -1
SWIDTH 908 0
DWIDTH 16 0
BBX 17 10 0 1
BITMAP
BEBEAABE40
2418001800
2418001800
24181AA400
2418300000
2418200000
182420A800
0AA0208500
0000300900
00001AA800
ENDCHAR
STARTCHAR uni0923094D0923
ENCODING -1
SWIDTH 1127 0
DWIDTH 20 0
BBX 21 11 0 0
BITMAP
BEBEBEAEBE40
241824081800
241824081800
241824081800
241824081800
241814181800
182418141800
0AA006A01800
000000001800
000000001800
000000001800
ENDCHAR
STARTCHAR uni0923094D092E
ENCODING -1
SWIDTH 932 0
DWIDTH 17 0
BBX 17 12 0 -1
BITMAP
BEBEBEAE80
2418240800
2418240800
2418240800
2418240800
24182EAC00
1824240800
0AA0240800
0000000800
0000000800
0000000800
0000000400
ENDCHAR
STARTCHAR uni0923094D092F
ENCODING -1
SWIDTH 998 0
DWIDTH 18 0
BBX 18 11 0 0
BITMAP
BEBEABABE0
2418014240
2418018240
2418024240
24183A0240
2418300240
1824300240
0AA0240740
00000AAA40
0000000240
0000000240
ENDCHAR
STARTCHAR uni0923094D0935
ENCODING -1
SWIDTH 923 0
DWIDTH 17 0
BBX 17 12 0 -1
BITMAP
BEBEAAAE80
2418000C00
24180A8C00
2418240C00
2418300C00
2418300C00
1824300C00
0AA0300C00
0000241C00
00000AAC00
0000000C00
0000000400
ENDCHAR
STARTCHAR uni0924094D0915
ENCODING -1
SWIDTH 992 0
DWIDTH 18 0
BBX 18 11 0 0
BITMAP
AAAAABAAA0
0000020000
000292AA00
0AAD034280
2408020080
2008020080
2008020080
2009060280
2006A62A00
2400020000
0A00020000
ENDCHAR
STARTCHAR uni0924094D0916
ENCODING -1
SWIDTH 1014 0
DWIDTH 18 0
BBX 19 11 0 0
BITMAP
AAAABEABE4
0000240180
0000240180
0AA4246580
2408218180
200B924180
3006024180
3002418280
2000906980
2400200180
0A00140180
ENDCHAR
STARTCHAR uni0924094D0924
ENCODING -1
SWIDTH 542 0
DWIDTH 10 0
BBX 10 11 0 0
BITMAP
AAABA0
000200
000200
000200
6BAB00
090200
0C0200
0C0200
0C0200
090200
028200
ENDCHAR
STARTCHAR uni0924094D0925
ENCODING -1
SWIDTH 869 0
DWIDTH 16 0
BBX 16 11 0 0
BITMAP
AA82A42A
00060830
00050C30
00001830
0AAEA030
240C0030
200C0030
30090070
2002AA70
24000030
0A000020
ENDCHAR
STARTCHAR uni0924094D092A
ENCODING -1
SWIDTH 757 0
DWIDTH 14 0
BBX 15 11 -1 0
BITMAP
6AABAAE8
000300C0
000300C0
02AB00C0
090300C0
080200C0
0C0241C0
0C00AAC0
080000C0
090000C0
02800080
ENDCHAR
STARTCHAR uni0924094D092B
ENCODING -1
SWIDTH 992 0
DWIDTH 18 0
BBX 19 11 -1 0
BITMAP
6AABAAEAA8
0003008000
000300AA80
02AB00D090
0903008020
0802008020
0C02428020
0C00A98090
0800008A80
0900008000
0280008000
ENDCHAR
STARTCHAR uni0924094D092E
ENCODING -1
SWIDTH 764 0
DWIDTH 14 0
BBX 14 11 0 0
BITMAP
AAAFABA0
00090200
00090200
0AAD0200
24090200
200BAB00
20090200
20090200
20000200
24000200
0A000200
ENDCHAR
STARTCHAR uni0924094D092F
ENCODING -1
SWIDTH 830 0
DWIDTH 15 0
BBX 15 11 0 0
BITMAP
AAAAEAF8
00005090
00006090
00009090
0AAE8090
240C0090
200C0090
300901D0
2002AA90
24000090
0A000050
ENDCHAR
STARTCHAR uni0924094D0932
ENCODING -1
SWIDTH 957 0
DWIDTH 17 0
BBX 18 11 0 0
BITMAP
AAAAAAAF90
0000000600
0000000600
0AA6A5AA00
240E0A0A00
2009050600
3009050600
3009000600
2006000600
2402A00600
0A00000500
ENDCHAR
STARTCHAR uni0924094D0935
ENCODING -1
SWIDTH 751 0
DWIDTH 14 0
BBX 14 11 0 0
BITMAP
AAAAABA0
00000300
00029300
0AAD0300
240C0300
20080300
20080300
200C0300
20090700
2402A700
0A000200
ENDCHAR
STARTCHAR uni0924094D0938
ENCODING -1
SWIDTH 876 0
DWIDTH 16 0
BBX 16 11 0 0
BITMAP
AAAAFABA
00006020
00006020
0AA06020
24189020
200EEAB0
30090020
30030020
20018020
24009020
0A006020
ENDCHAR
STARTCHAR uni0925094D092F
ENCODING -1
SWIDTH 931 0
DWIDTH 17 0
BBX 16 12 1 -1
BITMAP
2A4AFABA
60802020
50C02420
01802420
AA439020
C0060020
80020020
A0074070
2AA8AAA0
00000020
00000020
00000010
ENDCHAR
STARTCHAR uni0925094D0935
ENCODING -1
SWIDTH 862 0
DWIDTH 16 0
BBX 15 12 1 -1
BITMAP
2A4AAAE8
608000C0
50C0A4C0
018240C0
AA4300C0
C00200C0
800200C0
A00700C0
2AA641C0
0000A9C0
000000C0
00000040
ENDCHAR
STARTCHAR uni0926094D0917
ENCODING -1
SWIDTH 489 0
DWIDTH 9 0
BBX 9 13 0 -2
BITMAP
AAAF80
000900
000900
0AAC00
240000
200000
200500
240900
0BA900
020500
020500
060000
290000
ENDCHAR
STARTCHAR uni0926094D0918
ENCODING -1
SWIDTH 686 0
DWIDTH 12 0
BBX 13 12 0 -1
BITMAP
AAAAAE40
00000800
00000800
001AA800
1AB00000
30600000
30600800
1E600C00
20301C00
201EAC00
30180800
1AA40000
ENDCHAR
STARTCHAR uni0926094D0926
ENCODING -1
SWIDTH 506 0
DWIDTH 9 0
BBX 10 12 0 -1
BITMAP
AAAF90
000500
000500
0AAD00
240000
140000
0F9000
140000
240200
140600
0AAA00
000200
ENDCHAR
STARTCHAR uni0926094D0927
ENCODING -1
SWIDTH 686 0
DWIDTH 12 0
BBX 13 12 0 -1
BITMAP
AAAAAE40
00000800
00000800
001AA800
19300000
30600000
30600800
1E600C00
20301C00
201EAC00
30180800
1AA40000
ENDCHAR
STARTCHAR uni0926094D092C
ENCODING -1
SWIDTH 481 0
DWIDTH 9 0
BBX 9 13 0 -2
BITMAP
AAAF80
000900
000900
0AAC00
280000
200000
200000
200500
240900
0FA900
164500
246900
0AA400
ENDCHAR
STARTCHAR uni0926094D092D
ENCODING -1
SWIDTH 499 0
DWIDTH 9 0
BBX 9 14 0 -3
BITMAP
AAAF80
000900
0AAD00
180000
240000
240900
180900
0AA900
640900
080900
090900
0BAD00
090900
040900
ENDCHAR
STARTCHAR uni0926094D092E
ENCODING -1
SWIDTH 706 0
DWIDTH 13 0
BBX 13 12 0 -1
BITMAP
AAAEAE80
00080C00
0AA80C00
24000C00
30000C00
30080C00
241C0C00
0AAC0C00
000EAC00
00080C00
00000C00
00000400
ENDCHAR
STARTCHAR uni0926094D092F
ENCODING -1
SWIDTH 583 0
DWIDTH 11 0
BBX 11 12 0 -1
BITMAP
AAFAE8
0050C0
0AD0C0
2400C0
1400C0
0E80C0
1400C0
2400C0
1401C0
0AAAC0
0000C0
000040
ENDCHAR
STARTCHAR uni0926094D0935
ENCODING -1
SWIDTH 483 0
DWIDTH 9 0
BBX 9 13 0 -2
BITMAP
AAAF80
000900
000900
0AAC00
280000
200000
200000
200500
240900
0FA900
140500
140900
0AA400
ENDCHAR
STARTCHAR uni0927094D092E
ENCODING -1
SWIDTH 817 0
DWIDTH 15 0
BBX 15 12 0 -1
BITMAP
AE4BEAE8
24024080
20024080
24024080
0F824080
1402EAC0
24024080
24024080
18030080
0AA90080
00000080
00000040
ENDCHAR
STARTCHAR uni0927094D092F
ENCODING -1
SWIDTH 886 0
DWIDTH 16 0
BBX 16 11 0 0
BITMAP
AE4ABABE
24001424
20001824
24002424
0F83A024
14030024
24030024
24024074
1806AAA4
0AA80024
00000024
ENDCHAR
STARTCHAR uni0927094D0935
ENCODING -1
SWIDTH 810 0
DWIDTH 15 0
BBX 15 12 0 -1
BITMAP
AE4AAAE8
240000C0
2000A8C0
240240C0
0F8300C0
140300C0
240300C0
240300C0
180341C0
0AA9AAC0
000000C0
00000040
ENDCHAR
STARTCHAR uni0928094D0915
ENCODING -1
SWIDTH 973 0
DWIDTH 18 0
BBX 18 11 0 0
BITMAP
AAAAAFAAA0
0000050000
000686A900
0008060200
2AB4050140
6014050140
2014050140
0018090200
0006A92900
0000050000
0000050000
ENDCHAR
STARTCHAR uni0928094D091A
ENCODING -1
SWIDTH 820 0
DWIDTH 15 0
BBX 15 12 0 -1
BITMAP
AAAAAAE8
00000080
00000080
001BE480
00060080
2A950080
60050080
200601C0
0001AA80
00000080
00000080
00000040
ENDCHAR
STARTCHAR uni0928094D091B
ENCODING -1
SWIDTH 781 0
DWIDTH 14 0
BBX 15 10 0 1
BITMAP
AABEABE4
00300240
00300240
00201B40
2AB00180
202E4080
20300080
20300080
00200280
001AAA00
ENDCHAR
STARTCHAR uni0928094D091F
ENCODING -1
SWIDTH 715 0
DWIDTH 13 0
BBX 13 10 0 1
BITMAP
AAAAAE80
00000C00
00000C00
000AA800
2AB80000
60240000
60240100
00240300
00180600
000AA800
ENDCHAR
STARTCHAR uni0928094D0921
ENCODING -1
SWIDTH 705 0
DWIDTH 13 0
BBX 13 11 0 0
BITMAP
AAAAAE80
00000800
00000800
000AAC00
2AB40000
60140000
600AA800
10000500
00100600
00140900
000AA800
ENDCHAR
STARTCHAR uni0928094D0924
ENCODING -1
SWIDTH 717 0
DWIDTH 13 0
BBX 13 11 0 0
BITMAP
AAAAAF80
00000900
00000900
00000900
2ABEAD00
60240900
60200900
10200900
00200900
00240900
000A0900
ENDCHAR
STARTCHAR uni0928094D0925
ENCODING -1
SWIDTH 804 0
DWIDTH 14 0
BBX 15 12 0 -1
BITMAP
AA0A90E8
00246080
00102080
00006080
2ABA8080
60200080
60200080
10240280
000AA980
00000080
00000080
00000040
ENDCHAR
STARTCHAR uni0928094D0926
ENCODING -1
SWIDTH 724 0
DWIDTH 13 0
BBX 14 11 0 0
BITMAP
AAAAAF90
00000500
00000500
000AAD00
2AB80000
60240000
60240200
10140600
00180A00
0006AA00
00000200
ENDCHAR
STARTCHAR uni0928094D0927
ENCODING -1
SWIDTH 753 0
DWIDTH 14 0
BBX 14 12 0 -1
BITMAP
AABD2BA0
00200300
00600300
00200300
2ABE4300
60300300
60600300
10200300
00300700
001AA700
00000300
00000100
ENDCHAR
STARTCHAR uni0928094D092A
ENCODING -1
SWIDTH 742 0
DWIDTH 13 0
BBX 14 11 0 0
BITMAP
AABEAB90
00180200
00180200
00180200
00180200
2AA80600
200C0A00
2006A600
00000200
00000200
00000200
ENDCHAR
STARTCHAR uni0928094D092B
ENCODING -1
SWIDTH 970 0
DWIDTH 17 0
BBX 18 11 0 0
BITMAP
AABEAFAAA0
0018090000
00180AA900
00180A0200
2AB8090240
6018090240
60080D0240
1006A90200
0000096900
0000090000
0000090000
ENDCHAR
STARTCHAR uni0928094D092D
ENCODING -1
SWIDTH 739 0
DWIDTH 13 0
BBX 14 11 0 0
BITMAP
AAA02F90
00180600
00080600
00080600
00080600
2AAEAE00
20080600
20080600
00000600
00000600
00000600
ENDCHAR
STARTCHAR uni0928094D092E
ENCODING -1
SWIDTH 735 0
DWIDTH 13 0
BBX 14 11 0 0
BITMAP
AABEAF90
00180600
00180600
00180600
00180600
2AAEAE00
20180600
20080600
00000600
00000600
00000600
ENDCHAR
STARTCHAR uni0928094D092F
ENCODING -1
SWIDTH 801 0
DWIDTH 14 0
BBX 15 12 0 -1
BITMAP
AAABEAE4
00008080
0000C080
0000C080
2ABA4080
60240080
20140080
00180280
0006A980
00000080
00000080
00000040
ENDCHAR
STARTCHAR uni0928094D0935
ENCODING -1
SWIDTH 732 0
DWIDTH 13 0
BBX 14 11 0 0
BITMAP
AAAAAF90
00000600
00069600
000C0600
2AB80600
60140600
60140600
20180600
00080A00
0006AA00
00000600
ENDCHAR
STARTCHAR uni0928094D0938
ENCODING -1
SWIDTH 867 0
DWIDTH 16 0
BBX 16 12 0 -1
BITMAP
AAAAFABA
00005030
00005030
00005030
2AA49030
601FEAB0
60090030
00060030
00024030
0000C030
00009030
00001010
ENDCHAR
STARTCHAR uni0928094D0939
ENCODING -1
SWIDTH 714 0
DWIDTH 13 0
BBX 13 12 0 -1
BITMAP
AAAAAF80
00000900
00000900
000AAD00
2AB80000
20080000
200BA800
10180900
00140600
00140000
00180000
0006A900
ENDCHAR
STARTCHAR uni092A094D091F
ENCODING -1
SWIDTH 489 0
DWIDTH 9 0
BBX 9 11 0 0
BITMAP
BEAF80
240500
240500
240500
180500
0FA900
240000
200100
200200
240600
0AA800
ENDCHAR
STARTCHAR uni092A094D0920
ENCODING -1
SWIDTH 506 0
DWIDTH 9 0
BBX 10 11 0 0
BITMAP
BEAF90
240600
240600
240600
180900
0FBC00
240600
200200
200200
240600
0AA800
ENDCHAR
STARTCHAR uni092A094D0924
ENCODING -1
SWIDTH 495 0
DWIDTH 9 0
BBX 9 11 0 0
BITMAP
BEAF80
240900
240900
240900
180900
0FAD00
240900
200900
200900
240900
0A0900
ENDCHAR
STARTCHAR uni092A094D092A
ENCODING -1
SWIDTH 770 0
DWIDTH 14 0
BBX 14 11 0 0
BITMAP
BEAEABE0
24080240
24080240
24080240
24080240
24080240
180A0340
06A6AA40
00000240
00000240
00000240
ENDCHAR
STARTCHAR uni092A094D092B
ENCODING -1
SWIDTH 1003 0
DWIDTH 18 0
BBX 19 12 0 -1
BITMAP
BEAEABAAA4
2408030000
240803AA00
2408034180
24080300C0
24080300C0
18090700C0
06A6A70180
0000032A00
0000030000
0000030000
0000010000
ENDCHAR
STARTCHAR uni092A094D092E
ENCODING -1
SWIDTH 774 0
DWIDTH 14 0
BBX 14 11 0 0
BITMAP
BEAFABE0
24050240
24050240
24050240
24050240
180BAB40
06A90240
00050240
00000240
00000240
00000240
ENDCHAR
STARTCHAR uni092A094D092F
ENCODING -1
SWIDTH 855 0
DWIDTH 15 0
BBX 16 12 0 -1
BITMAP
BEAAFAB9
24002020
24003020
24002020
24069020
24090020
18090060
06AA00A0
0001AA60
00000020
00000020
00000010
ENDCHAR
STARTCHAR uni092A094D0932
ENCODING -1
SWIDTH 960 0
DWIDTH 17 0
BBX 18 11 0 0
BITMAP
BEAAAAAF90
2400000600
2400000600
2402A5AA00
24060A0A00
2409050600
1809050600
06A9050600
0006000600
0002A00600
0000000600
ENDCHAR
STARTCHAR uni092A094D0935
ENCODING -1
SWIDTH 780 0
DWIDTH 14 0
BBX 15 11 0 0
BITMAP
BEAAABE4
24000140
2401A140
24060140
24050140
24090140
18090140
06A90240
00060340
0001AA40
00000140
ENDCHAR
STARTCHAR uni092A094D0938
ENCODING -1
SWIDTH 880 0
DWIDTH 16 0
BBX 16 12 0 -1
BITMAP
BEAAFABE
24006024
24006024
24006024
24005024
240AEAB4
180D0024
06A70024
00018024
0000C024
00006024
00001000
ENDCHAR
STARTCHAR uni092B094D091C
ENCODING -1
SWIDTH 1100 0
DWIDTH 20 0
BBX 20 11 0 0
BITMAP
BEAFAAAABA
2409000020
2409000020
240AA4BAB0
240A001820
2409000C20
180D000C20
06A9000C20
0009001820
00090AA020
0009000020
ENDCHAR
STARTCHAR uni092B094D091F
ENCODING -1
SWIDTH 1006 0
DWIDTH 18 0
BBX 19 11 0 0
BITMAP
BEAFAAABE4
2409000240
240AA90240
240A07AB00
2409020000
2409050000
180D050000
06A9050080
00090600C0
000901AA40
0009000000
ENDCHAR
STARTCHAR uni092B094D0924
ENCODING -1
SWIDTH 1034 0
DWIDTH 19 0
BBX 19 11 0 0
BITMAP
BEAFAAAAE8
24090000C0
24090000C0
240AA900C0
240A07AAC0
24090300C0
180D0200C0
06A90200C0
00090200C0
00090300C0
000801A080
ENDCHAR
STARTCHAR uni092B094D092A
ENCODING -1
SWIDTH 1021 0
DWIDTH 18 0
BBX 19 11 0 0
BITMAP
BEAFAFAAE4
2409060080
2409060080
240AAA0080
240A060080
2409060180
180D030280
06A901AA80
0009000080
0009000080
0009000080
ENDCHAR
STARTCHAR uni092B094D092B
ENCODING -1
SWIDTH 1256 0
DWIDTH 23 0
BBX 23 11 0 0
BITMAP
BEAFAFABEAA8
240906018000
24090601AA40
240AAA01C090
240A06018050
240906018050
180D03028050
06A901AA8090
000900018A40
000900018000
000900018000
ENDCHAR
STARTCHAR uni092B094D092F
ENCODING -1
SWIDTH 1120 0
DWIDTH 20 0
BBX 20 12 0 -1
BITMAP
BEAFAAFABA
2409002030
2409002430
2409002030
240AAB9030
240A060030
180D060030
06A9030070
000901AAB0
0009000030
0009000030
0000000010
ENDCHAR
STARTCHAR uni092B094D0932
ENCODING -1
SWIDTH 1202 0
DWIDTH 22 0
BBX 22 12 0 -1
BITMAP
BEAFAAAAABA0
240900000300
240AA9000300
240A07E8AB00
240903074700
240906020300
180D06020300
06A906010300
000903000300
000901A40300
000900000300
000000000100
ENDCHAR
STARTCHAR uni092B094D0936
ENCODING -1
SWIDTH 1211 0
DWIDTH 22 0
BBX 22 12 0 -1
BITMAP
BEAFA86A42A0
240900818200
240900C08200
240AA8808200
240A06018200
240907AA0200
180D02400200
06A901800200
000900900200
000900200200
000900180200
000000040000
ENDCHAR
STARTCHAR uni092C094D091C
ENCODING -1
SWIDTH 883 0
DWIDTH 16 0
BBX 16 11 0 0
BITMAP
AAAAAABE
00000024
00000024
0A800024
2C01BAB4
36000824
31800824
30600824
24140C24
0AAEA424
00000024
ENDCHAR
STARTCHAR uni092C094D091D
ENCODING -1
SWIDTH 962 0
DWIDTH 17 0
BBX 18 13 0 -2
BITMAP
AAAAAFAF90
0000060600
0A82AA0600
2805000600
2609000600
3149000600
309AAFAE00
2028020600
241C024600
0AA6020600
0002A90100
0002000000
0002000000
ENDCHAR
STARTCHAR uni092C094D0924
ENCODING -1
SWIDTH 786 0
DWIDTH 14 0
BBX 15 11 0 0
BITMAP
AAAAABE4
00000140
0A800140
28000140
2902AB40
32060140
30890140
20290140
241D0140
0AAA0140
00029140
ENDCHAR
STARTCHAR uni092C094D0926
ENCODING -1
SWIDTH 775 0
DWIDTH 14 0
BBX 14 11 0 0
BITMAP
AAAAABE0
00000240
0A800240
2802AB40
29060000
32490000
30990180
202D0180
241E0280
0AA1AA80
00000180
ENDCHAR
STARTCHAR uni092C094D0927
ENCODING -1
SWIDTH 844 0
DWIDTH 15 0
BBX 16 11 0 0
BITMAP
AAAB82F9
00050060
0A890060
28060060
2602E060
31460060
30990060
20290060
241E00A0
0AA6AAA0
00000060
ENDCHAR
STARTCHAR uni092C094D092C
ENCODING -1
SWIDTH 783 0
DWIDTH 14 0
BBX 15 11 0 0
BITMAP
AAAAABE4
00000140
0A81A140
28070140
26098140
31496140
30991940
20290740
241E0340
0AA5AA40
00000140
ENDCHAR
STARTCHAR uni092C094D092D
ENCODING -1
SWIDTH 764 0
DWIDTH 14 0
BBX 14 12 0 -1
BITMAP
AAA41BA0
00080200
0A890200
28090200
29090200
324BAB00
30990200
20290200
241C0200
0AA40200
00000200
00000100
ENDCHAR
STARTCHAR uni092C094D092F
ENCODING -1
SWIDTH 852 0
DWIDTH 15 0
BBX 16 11 0 0
BITMAP
AAAAFAF9
00002060
0A803060
28006060
2A0A9060
31890060
30690060
201E00A0
2419AA60
0AA00060
00000060
ENDCHAR
STARTCHAR uni092C094D0932
ENCODING -1
SWIDTH 961 0
DWIDTH 17 0
BBX 18 11 0 0
BITMAP
AAAAAAAF90
0000000600
0A80000600
2801A5AA00
29060A0A00
3249050600
3099050600
2029050600
041E000600
0006A00600
0000000600
ENDCHAR
STARTCHAR uni092C094D0935
ENCODING -1
SWIDTH 776 0
DWIDTH 14 0
BBX 14 11 0 0
BITMAP
AAAAABE0
00000240
0A81A240
28060240
29090240
32490240
30990240
20290240
241E0340
0AA5AA40
00000240
ENDCHAR
STARTCHAR uni092C094D0936
ENCODING -1
SWIDTH 926 0
DWIDTH 17 0
BBX 17 12 0 -1
BITMAP
AA91A80A80
0003060C00
0A82060C00
2800060C00
2600090C00
3187A80C00
305B000C00
202E800C00
2418C00C00
0AA0600C00
0000240C00
0000000400
ENDCHAR
STARTCHAR uni092C094D0938
ENCODING -1
SWIDTH 897 0
DWIDTH 16 0
BBX 17 11 0 0
BITMAP
AAAABABE40
0000301800
0A80301800
2800301800
2600201800
3147EAB800
309A001800
202A401800
2418C01800
0AA0901800
0000301800
ENDCHAR
STARTCHAR uni092D094D092F
ENCODING -1
SWIDTH 827 0
DWIDTH 15 0
BBX 15 11 0 0
BITMAP
A06BEAF8
24009090
24005090
24009090
240E8090
2EAC0090
240C0090
140901D0
0002AA90
00000090
00000090
ENDCHAR
STARTCHAR uni092D094D0932
ENCODING -1
SWIDTH 941 0
DWIDTH 17 0
BBX 17 11 0 0
BITMAP
A06AAAAF80
2400000900
2400000900
2402A2A900
24090D0D00
2EAC080900
240C080900
140C040900
0009000900
0006A00900
0000000900
ENDCHAR
STARTCHAR uni092D094D0935
ENCODING -1
SWIDTH 755 0
DWIDTH 14 0
BBX 14 12 0 -1
BITMAP
A06AABA0
24000300
2402A300
24090300
240C0300
2EAC0300
240C0300
240C0300
10090700
0002AB00
00000300
00000100
ENDCHAR
STARTCHAR uni092E094D0924
ENCODING -1
SWIDTH 765 0
DWIDTH 14 0
BBX 14 11 0 0
BITMAP
BEAAABA0
24000200
24000200
24000200
2406AB00
2EAD0200
240C0200
140C0200
000C0200
00090200
00028200
ENDCHAR
STARTCHAR uni092E094D0926
ENCODING -1
SWIDTH 766 0
DWIDTH 14 0
BBX 14 11 0 0
BITMAP
BEAAABE0
24000240
24000240
2402AB00
240A0000
2EAC0000
24080140
24080140
00050240
0002AA40
00000140
ENDCHAR
STARTCHAR uni092E094D092A
ENCODING -1
SWIDTH 762 0
DWIDTH 14 0
BBX 14 12 0 -1
BITMAP
BEAEABA0
240C0200
240C0200
240C0200
240C0200
2EAC0200
24090700
1402AA00
00000200
00000200
00000200
00000100
ENDCHAR
STARTCHAR uni092E094D092C
ENCODING -1
SWIDTH 768 0
DWIDTH 14 0
BBX 14 11 0 0
BITMAP
BEAAABE0
24000240
2402A240
240A0240
24098240
2EAC9240
240C2640
24080B40
00090740
0002AA40
00000240
ENDCHAR
STARTCHAR uni092E094D092D
ENCODING -1
SWIDTH 768 0
DWIDTH 14 0
BBX 14 11 0 0
BITMAP
BEA81BE0
24090240
24090240
24090240
24090240
2EAFAB40
24090240
24090240
00000240
00000240
00000240
ENDCHAR
STARTCHAR uni092E094D092E
ENCODING -1
SWIDTH 759 0
DWIDTH 14 0
BBX 14 12 0 -1
BITMAP
BEAEABA0
24080300
24080300
24080300
24080300
2EAFAB00
24080300
24080300
00000300
00000300
00000300
00000100
ENDCHAR
STARTCHAR uni092E094D092F
ENCODING -1
SWIDTH 834 0
DWIDTH 15 0
BBX 15 11 0 0
BITMAP
BEAAEAF8
24005090
24006090
24005090
240A8090
2EAC0090
240C0090
140900D0
0002AA90
00000090
00000090
ENDCHAR
STARTCHAR uni092E094D0932
ENCODING -1
SWIDTH 945 0
DWIDTH 17 0
BBX 17 11 0 0
BITMAP
BEAAAAAF80
2400000900
2400000900
2402A6A900
24090D0900
2EAC090900
240C080900
140C000900
0009000900
0002A00900
0000000900
ENDCHAR
STARTCHAR uni092E094D0935
ENCODING -1
SWIDTH 761 0
DWIDTH 14 0
BBX 14 12 0 -1
BITMAP
BEAAABA0
24000200
2402A200
24090200
24080200
2EAC0200
240C0200
24080300
10090700
0002AA00
00000200
00000100
ENDCHAR
STARTCHAR uni092E094D0936
ENCODING -1
SWIDTH 884 0
DWIDTH 16 0
BBX 16 12 0 -1
BITMAP
BE86A42E
24090824
24080C24
24000C24
24001824
2EAEA024
24080024
24060024
00024024
0000C024
00006024
00001000
ENDCHAR
STARTCHAR uni092E094D0938
ENCODING -1
SWIDTH 816 0
DWIDTH 15 0
BBX 15 12 0 -1
BITMAP
BEABEAE8
24018080
24018080
24018080
24024080
2EBBAAC0
24240080
240C0080
00090080
00030080
00018080
00004040
ENDCHAR
STARTCHAR uni092E094D0939
ENCODING -1
SWIDTH 758 0
DWIDTH 14 0
BBX 14 12 0 -1
BITMAP
BEAAABA0
24000200
24000200
2402AB00
24090000
2EAD0000
2403E900
24060240
00090240
00090000
00060000
0002AA00
ENDCHAR
STARTCHAR uni092F094D092F
ENCODING -1
SWIDTH 897 0
DWIDTH 16 0
BBX 17 11 0 0
BITMAP
ABAABABE40
0180181400
0080081400
0180181400
2A02A01400
2002001400
2002001400
1802802400
06A86AA400
0000001400
0000001400
ENDCHAR
STARTCHAR uni0930094D092F
ENCODING -1
SWIDTH 713 0
DWIDTH 13 0
BBX 13 11 0 0
BITMAP
AABEAF80
00090900
00050900
90090900
2AE80900
00800900
00800900
00901D00
002AA900
00000900
00000900
ENDCHAR
STARTCHAR uni0930094D0939
ENCODING -1
SWIDTH 619 0
DWIDTH 11 0
BBX 12 12 0 -1
BITMAP
AAAAF9
000060
000060
406A90
6AC000
008000
007A80
00C060
018020
008000
00D000
006A90
ENDCHAR
STARTCHAR uni0932094D0915
ENCODING -1
SWIDTH 1182 0
DWIDTH 21 0
BBX 22 11 0 0
BITMAP
AAAAAAAFAA90
000000090000
00000689A900
0A96A80A0700
242824090200
202424090240
202424090200
2000180D0300
24000AA96900
0A8000090000
000000090000
ENDCHAR
STARTCHAR uni0932094D0916
ENCODING -1
SWIDTH 1195 0
DWIDTH 22 0
BBX 22 12 0 -1
BITMAP
AAAAAAFAABA0
000000600300
000000600300
0A9690619300
242820930300
20241E860300
20240C060300
201406030700
24000241A700
0A8000C00300
000000600300
000000100100
ENDCHAR
STARTCHAR uni0932094D0917
ENCODING -1
SWIDTH 950 0
DWIDTH 17 0
BBX 18 11 0 0
BITMAP
AAAAAFAF90
0000050500
0000050500
0A96850500
2428050500
2024090500
2024680500
2000000500
2400000500
0A80000500
0000000500
ENDCHAR
STARTCHAR uni0932094D091C
ENCODING -1
SWIDTH 1035 0
DWIDTH 19 0
BBX 19 12 0 -1
BITMAP
AAAAAAAAE8
00000000C0
00000000C0
0A968AEAC0
24280050C0
20240020C0
20240020C0
20100020C0
24000060C0
0A802A80C0
00000000C0
0000000040
ENDCHAR
STARTCHAR uni0932094D091F
ENCODING -1
SWIDTH 929 0
DWIDTH 17 0
BBX 17 10 0 1
BITMAP
AAAAAAAE80
0000000800
0000000800
0A969AA800
2428240000
2024200000
2024200100
2000200200
2400240600
0A800AA800
ENDCHAR
STARTCHAR uni0932094D0920
ENCODING -1
SWIDTH 953 0
DWIDTH 17 0
BBX 18 10 0 1
BITMAP
AAAAAAAE90
0000000C00
0000000C00
0A969AB800
2428240600
2024200200
2024300200
2000300200
2400240600
0A800AA800
ENDCHAR
STARTCHAR uni0932094D0921
ENCODING -1
SWIDTH 916 0
DWIDTH 16 0
BBX 17 11 0 0
BITMAP
AAAAAAAE80
0000000800
0000000800
0A969AA800
2428240000
2024240000
20240AA800
2000000900
2400200900
0A80240900
00000AA800
ENDCHAR
STARTCHAR uni0932094D0922
ENCODING -1
SWIDTH 924 0
DWIDTH 17 0
BBX 17 10 0 1
BITMAP
AAAAAAAE80
0000000800
0000000800
0A969AA800
2428240000
2024200000
2024306900
2010308200
2400240600
0A800AA800
ENDCHAR
STARTCHAR uni0932094D0924
ENCODING -1
SWIDTH 929 0
DWIDTH 17 0
BBX 17 11 0 0
BITMAP
AAAAAAAE80
0000000800
0000000800
0A96900800
24283EAC00
2024240800
2024300800
2000300800
2400300800
0A80240800
00001A0800
ENDCHAR
STARTCHAR uni0932094D0925
ENCODING -1
SWIDTH 1061 0
DWIDTH 19 0
BBX 20 11 0 0
BITMAP
AAAA46A079
00000C2450
0000082450
0A96902450
2428202050
20242E9050
2024240050
20001800D0
240006AA90
0A80000050
0000000050
ENDCHAR
STARTCHAR uni0932094D0926
ENCODING -1
SWIDTH 939 0
DWIDTH 17 0
BBX 17 11 0 0
BITMAP
AAAAAAAF80
0000000900
0000000900
0A969AAD00
2428280000
2024240000
2024240600
2000140600
2400040A00
0A80000600
0000000600
ENDCHAR
STARTCHAR uni0932094D092A
ENCODING -1
SWIDTH 939 0
DWIDTH 17 0
BBX 17 11 0 0
BITMAP
AAAABEAF80
0000240900
0000240900
0A96B40900
2428240900
2024240900
2024180D00
20100AA900
2400000900
0A80000900
0000000900
ENDCHAR
STARTCHAR uni0932094D092B
ENCODING -1
SWIDTH 1176 0
DWIDTH 21 0
BBX 22 12 0 -1
BITMAP
AAAABEAEAA90
000024080000
0000240AA800
0A96B4090600
242824080200
202424080200
2024181C0200
201006A80600
240000086800
0A8000080000
000000080000
000000040000
ENDCHAR
STARTCHAR uni0932094D092C
ENCODING -1
SWIDTH 949 0
DWIDTH 17 0
BBX 18 11 0 0
BITMAP
AAAAAAAF90
0000000500
0000068500
0A96AC0500
24282A0500
2024258500
2024246500
2014141900
2400040D00
0A80000500
0000000500
ENDCHAR
STARTCHAR uni0932094D092D
ENCODING -1
SWIDTH 931 0
DWIDTH 17 0
BBX 17 12 0 -1
BITMAP
AAAA906E80
0000200800
0000240800
0A96B40800
2428240800
20242EAC00
2024240800
2000100800
2400000800
0A80000800
0000000800
0000000400
ENDCHAR
STARTCHAR uni0932094D092E
ENCODING -1
SWIDTH 931 0
DWIDTH 17 0
BBX 17 12 0 -1
BITMAP
AAAABEAE80
0000240800
0000240800
0A96B40800
2428240800
20242EAC00
2024240800
2000100800
2400000800
0A80000800
0000000800
0000000400
ENDCHAR
STARTCHAR uni0932094D092F
ENCODING -1
SWIDTH 1033 0
DWIDTH 19 0
BBX 19 12 0 -1
BITMAP
AAAAABEAE8
00000080C0
00000090C0
0A9AA080C0
24282E40C0
20241800C0
20141800C0
20000C01C0
240006A9C0
0A800000C0
00000000C0
0000000040
ENDCHAR
STARTCHAR uni0932094D0932
ENCODING -1
SWIDTH 1112 0
DWIDTH 20 0
BBX 20 11 0 0
BITMAP
AAAAAAAABE
0000000024
0000000024
0A969A9AA4
2428243424
2024302424
2024302024
2000300024
2400240024
0A800A8024
0000000024
ENDCHAR
STARTCHAR uni0932094D0935
ENCODING -1
SWIDTH 940 0
DWIDTH 17 0
BBX 17 11 0 0
BITMAP
AAAAAAAF80
0000000900
0000068900
0A96A80900
2428240900
2024240900
2024240900
2014140900
2400040D00
0A80000900
0000000900
ENDCHAR
STARTCHAR uni0932094D0938
ENCODING -1
SWIDTH 1068 0
DWIDTH 19 0
BBX 20 11 0 0
BITMAP
AAAAAAEAF9
0000008060
0000008060
0A96908060
2428208060
20242FEAE0
2024080060
2000090060
2400030060
0A80018060
000000C060
ENDCHAR
STARTCHAR uni0932094D0939
ENCODING -1
SWIDTH 922 0
DWIDTH 17 0
BBX 17 12 0 -1
BITMAP
AAAAAAAE80
0000000C00
0000000C00
0A969AA800
2428240000
2024140000
20240FA800
2000180900
2400240500
0A80240000
0000180000
00000AA800
ENDCHAR
STARTCHAR uni0933094D092F
ENCODING -1
SWIDTH 1050 0
DWIDTH 19 0
BBX 19 11 0 0
BITMAP
AAAAABEAF8
0000009090
0A96A05090
2428149090
20140E8090
2014080090
20140C0090
20140D01D0
242816AA90
0A96A00090
0000000090
ENDCHAR
STARTCHAR uni0935094D092F
ENCODING -1
SWIDTH 852 0
DWIDTH 15 0
BBX 16 11 0 0
BITMAP
AAAAFAF9
00002060
0A803060
24006060
200A9060
30090060
30090060
200A00A0
2409AA60
0AA00060
00000060
ENDCHAR
STARTCHAR uni0935094D0932
ENCODING -1
SWIDTH 961 0
DWIDTH 17 0
BBX 18 11 0 0
BITMAP
AAAAAAAF90
0000000600
0A80000600
2401A5AA00
20060A0A00
3009050600
3009050600
2009050600
240E000600
0AA6A00600
0000000600
ENDCHAR
STARTCHAR uni0935094D0935
ENCODING -1
SWIDTH 776 0
DWIDTH 14 0
BBX 14 11 0 0
BITMAP
AAAAABE0
00000240
0A81A240
24060240
20090240
30090240
30090240
20090240
240E0340
0AA5AA40
00000240
ENDCHAR
STARTCHAR uni0935094D0939
ENCODING -1
SWIDTH 754 0
DWIDTH 14 0
BBX 14 12 0 -1
BITMAP
AAAAABA0
00000300
0A800300
2402AA00
20090000
30090000
3003E900
20050200
241C0240
0AAC0100
000A0000
0002AA00
ENDCHAR
STARTCHAR uni0936094D0915
ENCODING -1
SWIDTH 1093 0
DWIDTH 20 0
BBX 19 12 1 -1
BITMAP
2A46ABEAA8
90C0018000
8081A5AA40
00C201C090
0186018060
EA46018060
9006018060
6002028090
2401AA8A40
0800018000
0600018000
0100000000
ENDCHAR
STARTCHAR uni0936094D091A
ENCODING -1
SWIDTH 950 0
DWIDTH 17 0
BBX 17 12 1 -1
BITMAP
2A46AABE40
90C0001400
9080001400
00C6BA1400
0180801400
EA40801400
9000801400
6000D02400
24006AA400
0C00001400
0600001400
0100000000
ENDCHAR
STARTCHAR uni0936094D091B
ENCODING -1
SWIDTH 968 0
DWIDTH 17 0
BBX 18 12 0 -1
BITMAP
0A91BAAF90
2430500600
2030900600
0030902E00
0060500300
7A807D0200
2400900200
1800900200
0900500700
03002AA900
0180000000
0040000000
ENDCHAR
STARTCHAR uni0936094D091F
ENCODING -1
SWIDTH 854 0
DWIDTH 15 0
BBX 15 12 1 -1
BITMAP
2A46ABE4
90C00140
90800140
00C1AB40
01830000
EA420000
90020010
60020050
24030090
0801AA40
06000000
01000000
ENDCHAR
STARTCHAR uni0936094D0924
ENCODING -1
SWIDTH 864 0
DWIDTH 16 0
BBX 15 11 1 0
BITMAP
2A46AAE8
90C000C0
908000C0
40C000C0
0181AAC0
EA4300C0
900600C0
200600C0
180600C0
090300C0
0201A080
ENDCHAR
STARTCHAR uni0936094D092E
ENCODING -1
SWIDTH 885 0
DWIDTH 16 0
BBX 15 12 1 -1
BITMAP
2A47EAF8
90C14090
90814090
40C14090
01814090
EA41EAD0
90014090
60014090
24000090
08000090
06000090
01000000
ENDCHAR
STARTCHAR uni0936094D092F
ENCODING -1
SWIDTH 940 0
DWIDTH 17 0
BBX 16 12 1 -1
BITMAP
2A46FABE
90C02424
90801824
40C02424
0183A024
EA430024
90030024
60024074
2400AAA4
0C000024
06000024
01000000
ENDCHAR
STARTCHAR uni0936094D0932
ENCODING -1
SWIDTH 1039 0
DWIDTH 19 0
BBX 18 12 1 -1
BITMAP
2A46AAABA0
90C0000200
9080000200
00C1A9AB00
0183074700
EA46030300
9006030200
6006000200
2403000200
0C01A40200
0600000200
0100000100
ENDCHAR
STARTCHAR uni0936094D0935
ENCODING -1
SWIDTH 850 0
DWIDTH 15 0
BBX 15 12 1 -1
BITMAP
2A46ABE4
90C00180
8081A580
00C30180
01860180
EA460180
90060180
60060180
24030280
0C01A980
06000180
01000000
ENDCHAR
STARTCHAR uni0936094D0936
ENCODING -1
SWIDTH 1009 0
DWIDTH 18 0
BBX 18 12 1 -1
BITMAP
2A40A90790
90C1430600
9082420600
00C0020600
0180030600
EA43A90600
9002400600
6000C00600
2400600600
0C00240600
0600180600
0100040000
ENDCHAR
STARTCHAR uni0937094D0915
ENCODING -1
SWIDTH 1039 0
DWIDTH 19 0
BBX 19 11 0 0
BITMAP
BEAAABEAA8
2800018000
2601A5AA40
248201C090
2426018060
241A018060
180A018060
06A7028090
0001AA8A40
0000018000
0000018000
ENDCHAR
STARTCHAR uni0937094D091F
ENCODING -1
SWIDTH 493 0
DWIDTH 9 0
BBX 9 11 0 0
BITMAP
BEAF80
290600
264600
246600
181D00
0FA900
240000
200100
200200
240600
0AA800
ENDCHAR
STARTCHAR uni0937094D0920
ENCODING -1
SWIDTH 511 0
DWIDTH 9 0
BBX 10 11 0 0
BITMAP
BFFF90
2FFE00
2FFE00
2FFE00
1FFD00
0EAD00
240200
200300
200300
240600
0AA800
ENDCHAR
STARTCHAR uni0937094D0923
ENCODING -1
SWIDTH 980 0
DWIDTH 18 0
BBX 18 12 0 -1
BITMAP
BEABABABA0
2802020300
2602020300
2482020300
2462020300
241A020300
180B020300
06A5A90300
0000000300
0000000300
0000000300
0000000100
ENDCHAR
STARTCHAR uni0937094D092A
ENCODING -1
SWIDTH 980 0
DWIDTH 18 0
BBX 18 12 0 -1
BITMAP
BEABABABA0
2802020300
2602020300
2482020300
2462020300
241A020300
180B020300
06A5A90300
0000000300
0000000300
0000000300
0000000100
ENDCHAR
STARTCHAR uni0937094D092B
ENCODING -1
SWIDTH 1036 0
DWIDTH 19 0
BBX 19 11 0 0
BITMAP
BEABABEAA8
2806018000
260601AA40
248601C090
2466018060
241A018060
180B028060
06A5AA8090
0000018A40
0000018000
0000018000
ENDCHAR
STARTCHAR uni0937094D092E
ENCODING -1
SWIDTH 791 0
DWIDTH 14 0
BBX 15 11 0 0
BITMAP
BEABABE4
28020180
26020180
25820180
24620180
241BAB80
180E0180
06A60180
00000180
00000180
00000180
ENDCHAR
STARTCHAR uni0937094D092F
ENCODING -1
SWIDTH 877 0
DWIDTH 16 0
BBX 16 11 0 0
BITMAP
BEAAFABA
28002420
26001420
24802420
2463A020
241A0020
180A0020
06A64070
0000AAA0
00000020
00000020
ENDCHAR
STARTCHAR uni0937094D0935
ENCODING -1
SWIDTH 802 0
DWIDTH 14 0
BBX 15 12 0 -1
BITMAP
BEAAAAE4
28000080
2600A480
24824080
24220080
241A0080
180A0080
06A60080
00024280
0000A980
00000080
00000040
ENDCHAR
STARTCHAR uni0937094D0937
ENCODING -1
SWIDTH 804 0
DWIDTH 14 0
BBX 15 12 0 -1
BITMAP
BEABAAE8
28034080
26029080
24822480
24620980
241A0280
180B0280
06A5A980
00000080
00000080
00000080
00000040
ENDCHAR
STARTCHAR uni0938094D0915
ENCODING -1
SWIDTH 1089 0
DWIDTH 20 0
BBX 20 11 0 0
BITMAP
ABEAAAFAAA
0240006000
0240696A90
0240807024
0201806014
7FAB806018
3001806014
180080A024
08006AA290
0600006000
0240006000
ENDCHAR
STARTCHAR uni0938094D0916
ENCODING -1
SWIDTH 990 0
DWIDTH 18 0
BBX 18 11 0 0
BITMAP
ABEABAABA0
0240300200
0240300200
024030A200
0200624200
7FAE830200
3009030200
1803024300
080180AA00
0600900200
0240300200
ENDCHAR
STARTCHAR uni0938094D091C
ENCODING -1
SWIDTH 970 0
DWIDTH 17 0
BBX 18 12 0 -1
BITMAP
ABEAAAABA0
0240000200
0240000200
0240000200
02002BAA00
7FAA024200
3000018200
1800018200
0800024200
0600AA0200
0240000200
0000000100
ENDCHAR
STARTCHAR uni0938094D091F
ENCODING -1
SWIDTH 844 0
DWIDTH 15 0
BBX 16 11 0 0
BITMAP
ABEAAAF9
02400090
02400090
02406AD0
02008000
7FAB8000
30018010
18018024
08008020
06006A90
02400000
ENDCHAR
STARTCHAR uni0938094D0924
ENCODING -1
SWIDTH 852 0
DWIDTH 15 0
BBX 16 11 0 0
BITMAP
ABEAAAF9
02400060
02400060
02400060
0200AAE0
7FAB8060
20014060
18014060
09014060
06018060
02406420
ENDCHAR
STARTCHAR uni0938094D0925
ENCODING -1
SWIDTH 960 0
DWIDTH 17 0
BBX 18 11 0 0
BITMAP
ABE86A0790
0240914600
0240818600
0240818600
0200024600
7FAAEA0600
3001800600
1800C00A00
08006AA600
0600000600
0240000600
ENDCHAR
STARTCHAR uni0938094D0926
ENCODING -1
SWIDTH 851 0
DWIDTH 15 0
BBX 16 11 0 0
BITMAP
ABEAAAF9
02400060
02400060
02406AA0
0200C000
7FAB8000
30018020
18018030
09008070
06006AB0
02400020
ENDCHAR
STARTCHAR uni0938094D092A
ENCODING -1
SWIDTH 857 0
DWIDTH 15 0
BBX 16 12 0 -1
BITMAP
ABEAEABA
02408020
02408020
02408020
02008020
7FAA8020
30008060
18006A60
08000020
06000020
02400020
00000010
ENDCHAR
STARTCHAR uni0938094D092B
ENCODING -1
SWIDTH 1092 0
DWIDTH 20 0
BBX 20 11 0 0
BITMAP
ABEAEAFAAA
0241806000
0241806A90
0241807024
0201806018
7FAA806018
300080A018
18006AA024
0800006290
0600006000
0240006000
ENDCHAR
STARTCHAR uni0938094D092C
ENCODING -1
SWIDTH 857 0
DWIDTH 15 0
BBX 16 12 0 -1
BITMAP
ABEAAAB9
02400020
02406920
0240D020
0201A420
7FAB8820
30018260
180180A0
080080A0
06006A60
02400020
00000010
ENDCHAR
STARTCHAR uni0938094D092E
ENCODING -1
SWIDTH 850 0
DWIDTH 15 0
BBX 16 11 0 0
BITMAP
ABEAEAF9
02408060
02408060
02408060
02008060
7FAAEAE0
30008060
18008060
08000060
06000060
02400060
ENDCHAR
STARTCHAR uni0938094D092F
ENCODING -1
SWIDTH 920 0
DWIDTH 17 0
BBX 17 12 0 -1
BITMAP
ABEABEAE80
0240080C00
0240080C00
02400C0C00
0201E40C00
7FAB800C00
3001800C00
1800801C00
08006A9C00
0600000C00
0240000C00
0000000400
ENDCHAR
STARTCHAR uni0938094D0932
ENCODING -1
SWIDTH 1027 0
DWIDTH 18 0
BBX 19 12 0 -1
BITMAP
ABEAAAAAE8
02400000C0
02400000C0
02406A6AC0
02018281C0
7FAB4180C0
30014180C0
18014000C0
08018000C0
06006900C0
02400000C0
0000000040
ENDCHAR
STARTCHAR uni0938094D0935
ENCODING -1
SWIDTH 842 0
DWIDTH 15 0
BBX 16 11 0 0
BITMAP
ABEAAAF9
02400060
02406960
0240C060
02018060
7FAB4060
30014060
18018060
080080A0
06006AA0
02400060
ENDCHAR
STARTCHAR uni0938094D0938
ENCODING -1
SWIDTH 871 0
DWIDTH 16 0
BBX 16 12 0 -1
BITMAP
ABEAFABA
02406030
02406030
02406030
02009030
7FAEEAB0
30090030
18020030
08024030
0600C030
02406030
00001010
ENDCHAR
STARTCHAR uni0939094D0923
ENCODING -1
SWIDTH 1136 0
DWIDTH 20 0
BBX 21 15 0 -4
BITMAP
AAAEBEAEAE80
0008180C0800
0AAC180C0800
1800180C0800
2400180C0800
180018080800
0BA818180800
180906A00800
240500000800
180000000800
0AA800000000
000000000000
006000000000
002400000000
000800000000
ENDCHAR
STARTCHAR uni0939094D092E
ENCODING -1
SWIDTH 746 0
DWIDTH 13 0
BBX 14 13 0 -2
BITMAP
AAAEAB90
00080200
00080200
0AAC0200
24000200
24000200
0FA80200
18080200
200BAA00
20080200
20080200
18000200
0AA80100
ENDCHAR
STARTCHAR uni0939094D092F
ENCODING -1
SWIDTH 785 0
DWIDTH 14 0
BBX 15 13 0 -2
BITMAP
AAAEABE4
00080140
00080140
0AAC0140
24000140
24000140
0FAA8140
24009140
20009140
201E4140
20080340
2406AA40
0AA00140
ENDCHAR
STARTCHAR uni0939094D0932
ENCODING -1
SWIDTH 1110 0
DWIDTH 20 0
BBX 20 15 0 -4
BITMAP
AAAEAAAABE
0008000024
0AAC0A9AA4
1400243434
1400302024
0BA4302024
1808301024
2409300024
2404240024
18000A8024
06A8000000
0000000000
0050000000
0020000000
0018000000
ENDCHAR
STARTCHAR uni0939094D0935
ENCODING -1
SWIDTH 920 0
DWIDTH 17 0
BBX 17 15 0 -4
BITMAP
AAAEAAAE80
0008000C00
0AAC0A8C00
1800240C00
2400300C00
1800300C00
0BA8300C00
1809241C00
24050AAC00
1800000C00
0AA8000000
0000000000
0050000000
0020000000
0018000000
ENDCHAR
STARTCHAR uni0915093C094D0915093C
ENCODING -1
SWIDTH 1275 0
DWIDTH 23 0
BBX 23 12 0 -1
BITMAP
AAAEAAAAEAA8
000C0000C000
0A8DA8A4EA80
240D0740D060
300C0300C020
300C0300C030
300C0300C020
241C0241C060
0AAC00A9CA80
000C0000C000
000C0000C000
050000800000
ENDCHAR
STARTCHAR uni0915093C094D0924
ENCODING -1
SWIDTH 1016 0
DWIDTH 18 0
BBX 19 12 0 -1
BITMAP
AAAEAAABE4
000C000180
0A8DA80180
240D090180
300C03AB80
300C060180
300C050180
241C050180
0AAC050180
000C060180
0008019180
0500000000
ENDCHAR
STARTCHAR uni0915093C094D092B
ENCODING -1
SWIDTH 1246 0
DWIDTH 22 0
BBX 23 12 0 -1
BITMAP
AAAEAFABEAA4
000C05024000
0A8C0502AA40
240DAD0280C0
300D05024090
300C05024090
300C02034090
241C01AA4080
0AAC00025A40
000C00024000
000C00024000
050000000000
ENDCHAR
STARTCHAR uni0915093C094D092B093C
ENCODING -1
SWIDTH 1247 0
DWIDTH 22 0
BBX 23 12 0 -1
BITMAP
AAAEAFABEAA8
000C05024000
0A8C0502AA40
240DAD028080
300D05024090
300C06024090
300C02034090
241C01AA4080
0AAC00025A40
000C00024000
000C00024000
050001400000
ENDCHAR
STARTCHAR uni0915093C094D092C
ENCODING -1
SWIDTH 1043 0
DWIDTH 19 0
BBX 19 12 0 -1
BITMAP
AAAEAAAAE8
000C000080
0A8DA8A880
240D078080
300C036080
300C032480
300C030980
300C0302C0
241C0241C0
0AAC00AA80
000C000080
0500000000
ENDCHAR
STARTCHAR uni0915093C094D092E
ENCODING -1
SWIDTH 998 0
DWIDTH 18 0
BBX 18 12 0 -1
BITMAP
AAAEAFABE0
000C050240
0A8C050240
240DAD0240
300D050240
300C07AB40
300C050240
241C050240
0AAC000240
000C000240
000C000240
0500000000
ENDCHAR
STARTCHAR uni0916093C094D0924
ENCODING -1
SWIDTH 984 0
DWIDTH 18 0
BBX 18 12 0 -1
BITMAP
ABEAAAABA0
0180000200
0180000200
0186800200
024C06AB00
7A18090200
20180C0200
180C080200
0906AC0200
02400D0200
0180068200
0000800000
ENDCHAR
STARTCHAR uni0916093C094D092E
ENCODING -1
SWIDTH 965 0
DWIDTH 17 0
BBX 18 12 0 -1
BITMAP
ABEAAEAB90
0180080200
0180080200
0186880200
024C080200
7A180EAE00
3018080200
180C180200
0906A00200
0300000200
0180000200
0000800000
ENDCHAR
STARTCHAR uni0916093C094D092F
ENCODING -1
SWIDTH 1045 0
DWIDTH 19 0
BBX 19 12 0 -1
BITMAP
ABEAABEAE8
0180009090
0180005090
0186809090
024C0E8090
7A18080090
3018080090
180C1D01D0
0906A6AA90
0300000090
0180000090
0041400040
ENDCHAR
STARTCHAR uni0916093C094D0935
ENCODING -1
SWIDTH 972 0
DWIDTH 18 0
BBX 18 12 0 -1
BITMAP
ABEAAAABA0
0180000300
0180029300
0186890300
024C0C0300
7A18080300
3018080300
180C1C0300
0906A90700
030002A700
0180000300
0041400100
ENDCHAR
STARTCHAR uni0916093C094D0936
ENCODING -1
SWIDTH 1123 0
DWIDTH 20 0
BBX 21 12 0 -1
BITMAP
ABEA82A41E40
018006081800
018005091800
018684091800
024C000C1800
7A182AA41800
201818001800
180C1D001800
0906A7001800
030002801800
018000901800
004140000000
ENDCHAR
STARTCHAR uni0916093C094D0938
ENCODING -1
SWIDTH 1066 0
DWIDTH 19 0
BBX 20 12 0 -1
BITMAP
ABEAAAEAF9
0180008060
0180008060
0186808060
024C008060
7A181FAAE0
2018180060
180C1D0060
0906A70060
0300024060
018000C060
0041400000
ENDCHAR
STARTCHAR uni091C093C094D091C093C
ENCODING -1
SWIDTH 934 0
DWIDTH 17 0
BBX 17 12 0 -1
BITMAP
AAAAAABE40
0000001800
0000001800
0000001800
2BA8BEB800
0180091800
00C0051800
00C0051800
0180091800
6A42A41800
0000001800
1400500000
ENDCHAR
STARTCHAR uni091C093C094D092F
ENCODING -1
SWIDTH 893 0
DWIDTH 16 0
BBX 17 12 0 -1
BITMAP
AAAABABE40
0000141400
0000181400
2BA9181400
0183A01400
00C3001400
00C2001400
00C1803400
01806AA400
6A00001400
0000001400
1400000000
ENDCHAR
STARTCHAR uni092B093C094D091C093C
ENCODING -1
SWIDTH 1100 0
DWIDTH 20 0
BBX 20 12 0 -1
BITMAP
BEAFAAAABA
2409000020
2409000020
240AA4BAB0
240A001820
2409000C20
180D000C20
06A9000C20
0009001820
00090AA020
0009000020
0800008000
ENDCHAR
STARTCHAR uni092B093C094D0924
ENCODING -1
SWIDTH 1036 0
DWIDTH 19 0
BBX 19 12 0 -1
BITMAP
BEAFAAAAE8
24090000C0
24090000C0
240AA800C0
240A06AAC0
24090300C0
180D0200C0
06A90200C0
00090200C0
00090300C0
000801A080
0800000000
ENDCHAR
STARTCHAR uni092B093C094D092B093C
ENCODING -1
SWIDTH 1256 0
DWIDTH 23 0
BBX 23 12 0 -1
BITMAP
BEAFAFABEAA8
240906018000
24090601AA40
240AAA01C090
240A06018050
240906018050
180D03028050
06A901AA8090
000900018A40
000900018000
000900018000
080400804000
ENDCHAR
STARTCHAR uni092B093C094D0938
ENCODING -1
SWIDTH 1141 0
DWIDTH 21 0
BBX 21 12 0 -1
BITMAP
BEAFAABEAE80
240900140C00
240900140C00
240AA8140C00
240A09240C00
240907FAAC00
180D02400C00
06A901800C00
000900900C00
000900600C00
000900240C00
080400040400
ENDCHAR
STARTCHAR uni092C094D091C093C
ENCODING -1
SWIDTH 883 0
DWIDTH 16 0
BBX 16 12 0 -1
BITMAP
AAAAAABE
00000024
00000024
0A800024
2C01BAB4
36000824
31800824
30600824
24140C24
0AAEA424
00000024
00014000
ENDCHAR
STARTCHAR uni0932094D091C093C
ENCODING -1
SWIDTH 1062 0
DWIDTH 19 0
BBX 19 12 0 -1
BITMAP
AAAAAAAAE8
00000000C0
00000000C0
0A968AEAC0
24280050C0
20240020C0
20240020C0
20100020C0
24000060C0
0A802A80C0
0000000080
0000080000
ENDCHAR
STARTCHAR uni0936094D0915093C
ENCODING -1
SWIDTH 1093 0
DWIDTH 20 0
BBX 19 12 1 -1
BITMAP
2A46ABEAA8
90C0018000
8081A5AA40
00C201C090
0186018060
EA46018060
9006018060
6002028090
2401AA8A40
0800018000
0600018000
0100800000
ENDCHAR
STARTCHAR uni0924094D0924094D
ENCODING -1
SWIDTH 309 0
DWIDTH 6 0
BBX 8 11 0 0
BITMAP
AAA9
0000
0000
0000
6BA9
0800
0C00
0C00
0C00
0900
0680
ENDCHAR
STARTCHAR uni0928094D092D094D
ENCODING -1
SWIDTH 505 0
DWIDTH 9 0
BBX 11 8 0 3
BITMAP
AAA028
001800
001800
001800
2AA800
601EA8
601800
100400
ENDCHAR
STARTCHAR uni0928094D0938094D
ENCODING -1
SWIDTH 635 0
DWIDTH 11 0
BBX 14 12 0 -1
BITMAP
AAAAFA90
00006000
00006000
00006000
2AA49000
200EEA90
20090000
00030000
00014000
0000C000
00006000
00001000
ENDCHAR
STARTCHAR uni092E094D092D094D
ENCODING -1
SWIDTH 533 0
DWIDTH 10 0
BBX 12 8 0 3
BITMAP
BEA419
240800
240900
240900
240900
2EAFA9
240900
140400
ENDCHAR
STARTCHAR uni0932094D092D094D
ENCODING -1
SWIDTH 694 0
DWIDTH 12 0
BBX 15 10 0 1
BITMAP
AAAA9064
00002000
00002400
0A96B400
24282400
20242EA4
20242400
20001000
24000000
0A800000
ENDCHAR
STARTCHAR uni0938094D0924094D0930094D
ENCODING -1
SWIDTH 575 0
DWIDTH 10 0
BBX 13 12 0 -1
BITMAP
ABEAA800
02400000
02400000
0241AA00
02030140
7FAA0080
30000080
18000240
08001900
06006000
02428000
00010000
ENDCHAR
STARTCHAR uni0915094D0924094D092F
ENCODING -1
SWIDTH 1356 0
DWIDTH 24 0
BBX 25 11 0 0
BITMAP
AAAEAAAABEAE40
000C0000080800
0A8DA8000C0800
240D0900080800
300C03ABA40800
300C0602400800
300C0601400800
241C0501802800
0AAC06006A9800
000C0600000800
000801A0000800
ENDCHAR
STARTCHAR uni0915094D0924094D0930
ENCODING -1
SWIDTH 997 0
DWIDTH 18 0
BBX 18 12 0 -1
BITMAP
AAAEAAABE0
000C000240
0A8DA80240
240D06AA40
300C090340
300C080240
300C040240
241C000B40
0AAC002640
000C009240
000C064240
0004000000
ENDCHAR
STARTCHAR uni0915094D0924094D0935
ENCODING -1
SWIDTH 1242 0
DWIDTH 22 0
BBX 23 11 0 0
BITMAP
AAAEAAAAAAE4
000C00000080
0A8DA801A480
240D07AB4080
300C09060080
300C0C060080
300C0C060080
300C0C020180
241C0C024280
0AAC0901A980
000802800080
ENDCHAR
STARTCHAR uni0915094D092A094D0930
ENCODING -1
SWIDTH 1007 0
DWIDTH 18 0
BBX 19 12 0 -1
BITMAP
AAAEAFABE4
000C050140
0A8C050140
240DAD0140
300D050140
300C050140
300C060240
241C01AE40
0AAC002540
000C009140
0008024140
0000010000
ENDCHAR
STARTCHAR uni0915094D0935094D092F
ENCODING -1
SWIDTH 1384 0
DWIDTH 25 0
BBX 25 12 0 -1
BITMAP
AAAEAAAABEAF80
000C0000090900
0A8DA9A4060900
240D0B00090900
300C0600E80900
300C0600C00900
300C0600C00900
300C0600D01D00
241C03016AA900
0A9C01A9000900
000C0000000900
00040000000000
ENDCHAR
STARTCHAR uni0915094D0938094D091F
ENCODING -1
SWIDTH 1376 0
DWIDTH 25 0
BBX 25 12 0 -1
BITMAP
AAAEAABEAAAE80
000C0018000C00
0A8DA818000C00
240D05180AA800
300C0224180000
300C03BAB00000
300C0240200100
241C00C0200300
0AAC0090280600
000C00300AA800
000C0018000000
00040004000000
ENDCHAR
STARTCHAR uni0915094D0938094D0921
ENCODING -1
SWIDTH 1388 0
DWIDTH 25 0
BBX 25 11 0 0
BITMAP
AAAEAABEAAAF80
000C0018000900
0A8DA818000900
240D06180AAD00
300C0224180000
300C03BAA80000
300C024006A900
241C00C0000600
0AAC0060140300
000C0024080600
0008001806A900
ENDCHAR
STARTCHAR uni0915094D0938094D0924
ENCODING -1
SWIDTH 1423 0
DWIDTH 26 0
BBX 26 11 0 0
BITMAP
AAAEAABEAAABA0
000C0018000300
0A8DA818000300
240D0518000300
300C022406AB00
300C03BAAC0300
300C0240080300
241C00C0080300
0AAC0060080300
000C0024080300
00080018068200
ENDCHAR
STARTCHAR uni0915094D0938094D092A094D0930
ENCODING -1
SWIDTH 1437 0
DWIDTH 26 0
BBX 26 11 0 0
BITMAP
AAAEAABEAEABE0
000C0018080240
0A8DA818080240
240D0518080240
300C0224080240
300C03BAAD0240
300C0240060340
241C00C002AE40
0AAC0060002240
000C0024009240
00080018024240
ENDCHAR
STARTCHAR uni0915094D0938094D092A094D0932
ENCODING -1
SWIDTH 1866 0
DWIDTH 34 0
BBX 34 12 0 -1
BITMAP
AAAEAABEAEAAAAABA0
000C00180800000300
0A8DA8180800000300
240D05180801A9AB00
300C02240802070700
300C03BAAD06020300
300C02400606020300
241C00C002AA010300
0AAC00900003000300
000C00300001A40300
000C00180000000300
000400040000000100
ENDCHAR
STARTCHAR uni0917094D0927094D092F
ENCODING -1
SWIDTH 1156 0
DWIDTH 21 0
BBX 21 11 0 0
BITMAP
AFAF86BEAE80
090800090900
090C00050900
090900090900
0907A0E80900
0C0900800900
640C00800900
000C00901D00
000901AAA900
0002AA000900
000000000900
ENDCHAR
STARTCHAR uni0917094D0927094D0935
ENCODING -1
SWIDTH 1084 0
DWIDTH 20 0
BBX 20 12 0 -1
BITMAP
AFAF86AABA
0908000030
090C002930
0909009030
0907A0C030
0C09008030
640C008030
000C008030
000900D070
0002AA6A70
0000000030
0000000010
ENDCHAR
STARTCHAR uni0917094D0928094D092F
ENCODING -1
SWIDTH 1069 0
DWIDTH 19 0
BBX 20 11 0 0
BITMAP
AFAAAAFAF9
0900006060
0900002060
0900006060
090AAE8060
0C14080060
6414090060
00000600A0
000001AA60
0000000060
0000000060
ENDCHAR
STARTCHAR uni0917094D092D094D092F
ENCODING -1
SWIDTH 1102 0
DWIDTH 20 0
BBX 20 11 0 0
BITMAP
AFA81AFABE
0908002424
0909001424
0909002424
090903A024
0C0BAA0024
6409020024
0004024074
000000AAA4
0000000024
0000000024
ENDCHAR
STARTCHAR uni0917094D0930094D092F
ENCODING -1
SWIDTH 817 0
DWIDTH 15 0
BBX 15 12 0 -1
BITMAP
AFABEAE8
09008080
09009080
09008080
091E4080
0C180080
641800C0
000D01C0
0006AE80
00002880
00009080
00014000
ENDCHAR
STARTCHAR uni091A094D091B094D0935
ENCODING -1
SWIDTH 913 0
DWIDTH 16 0
BBX 17 13 0 -2
BITMAP
AAAAEABE80
0001401800
0002401800
6BA180B800
0900B80C00
0801800900
0802400800
0902800800
02A9BAA800
0000C01800
0000801800
0000802400
00006A9000
ENDCHAR
STARTCHAR uni091C094D091C094D091E
ENCODING -1
SWIDTH 945 0
DWIDTH 17 0
BBX 18 12 0 -1
BITMAP
AAAAAAAF90
0000000900
0000000900
0001AAAD00
2BAB000900
0183000900
00C1AA4900
00C000C900
018200C900
6A43408900
0003AA4900
0002000000
ENDCHAR
STARTCHAR uni091C094D091C094D092F
ENCODING -1
SWIDTH 1252 0
DWIDTH 23 0
BBX 23 12 0 -1
BITMAP
AAAAAAABEAE8
0000000080C0
0000000080C0
00000000C0C0
2BA8BEBE40C0
0080081400C0
00C0091800C0
00C0090C02C0
01C00806A9C0
6A46A40000C0
0000000000C0
000000000040
ENDCHAR
STARTCHAR uni091C094D091C094D0935
ENCODING -1
SWIDTH 1243 0
DWIDTH 22 0
BBX 22 11 0 0
BITMAP
AAAAAAAAAF90
000000000600
000000029600
000000080600
2BA8BEA80600
008008140600
00C009140600
00C009180600
01C0080C0A00
6A46A406AA00
000000000600
ENDCHAR
STARTCHAR uni0924094D0915094D092F
ENCODING -1
SWIDTH 1346 0
DWIDTH 24 0
BBX 25 11 0 0
BITMAP
AAAAABAABEBE40
00000200181800
00029200081800
0AAD0200181800
240C02ABA01800
20080342001800
200C0202401800
20090601802800
2002A6006AA800
24000200001800
0A000200001400
ENDCHAR
STARTCHAR uni0924094D0915094D0930
ENCODING -1
SWIDTH 995 0
DWIDTH 18 0
BBX 18 12 0 -1
BITMAP
AAAAABAAA0
0000020000
000292AA00
0AAD034180
240C030080
2008020080
200C020080
2009060180
2002BA2A00
2400620000
0A01820000
0002000000
ENDCHAR
STARTCHAR uni0924094D0915094D0935
ENCODING -1
SWIDTH 1282 0
DWIDTH 23 0
BBX 24 11 0 0
BITMAP
AAAAABAAAAF9
000002000050
000293AA6850
0AAD03428050
240C03014050
200802024050
200802024050
200C02014050
200906008090
2402A6006A90
0A0002000050
ENDCHAR
STARTCHAR uni0924094D0915094D0937
ENCODING -1
SWIDTH 943 0
DWIDTH 17 0
BBX 17 11 0 0
BITMAP
AAA4A90780
0002420900
0002424900
0001420900
0AA6EFAD00
2409000900
2009000900
3009020900
2005034900
2402AA4900
0A00020500
ENDCHAR
STARTCHAR uni0924094D0916094D0930
ENCODING -1
SWIDTH 1008 0
DWIDTH 18 0
BBX 19 12 0 -1
BITMAP
AAAABEABE4
0000240140
0000240140
0AA424A540
2408318140
200A924140
3006024140
3002418240
200080AE40
2400601540
0A00246140
0000018000
ENDCHAR
STARTCHAR uni0924094D0924094D092F
ENCODING -1
SWIDTH 888 0
DWIDTH 16 0
BBX 16 11 0 0
BITMAP
AAAABABE
00001424
00001824
6BA81424
0903A024
0C030024
0C030024
0C024034
0C00AAA4
09000024
02800014
ENDCHAR
STARTCHAR uni0924094D0924094D0935
ENCODING -1
SWIDTH 788 0
DWIDTH 14 0
BBX 15 11 0 0
BITMAP
AAAAABE4
00000180
0000A580
00020180
6BAA0180
08050180
0C050180
0C060180
0C030280
0901AA80
06800140
ENDCHAR
STARTCHAR uni0924094D0928094D092F
ENCODING -1
SWIDTH 1098 0
DWIDTH 20 0
BBX 20 11 0 0
BITMAP
AAAAAAFABA
0000002420
0000002420
0AA8002420
240BAB9020
200C060020
3008020020
3000024070
200000AAA0
2400000020
0A00000020
ENDCHAR
STARTCHAR uni0924094D092A094D0930
ENCODING -1
SWIDTH 763 0
DWIDTH 14 0
BBX 14 11 0 0
BITMAP
AAAEABA0
000C0200
000C0200
0AAC0200
240C0200
20080200
20090700
2002BA00
20002200
24008200
0A020200
ENDCHAR
STARTCHAR uni0924094D092A094D0932
ENCODING -1
SWIDTH 1219 0
DWIDTH 22 0
BBX 22 11 0 0
BITMAP
AAAEAAAAABE0
000C00000240
000C00000240
0AAC00A9AA40
240C02434340
200803020240
200907020240
2002AB010240
200002400240
240001A80240
0A0000000140
ENDCHAR
STARTCHAR uni0924094D092E094D092F
ENCODING -1
SWIDTH 1096 0
DWIDTH 20 0
BBX 20 11 0 0
BITMAP
AAAEAAFABA
000C002020
000C002420
0AAC002420
240C039020
200EAA0020
200C060030
2008024070
200000AAA0
2400000020
0A00000020
ENDCHAR
STARTCHAR uni0924094D0930094D092F
ENCODING -1
SWIDTH 848 0
DWIDTH 15 0
BBX 16 11 0 0
BITMAP
AAAAFAF9
00002060
00003060
0AA46060
240E9060
30090060
10090060
002A00A0
0091AA60
06400060
18000060
ENDCHAR
STARTCHAR uni0924094D0938094D092F
ENCODING -1
SWIDTH 1234 0
DWIDTH 22 0
BBX 23 11 0 0
BITMAP
AAAABAABABE4
000020018180
000020008180
0AA420018180
2408202A0180
200BFAB00180
300200240180
300140180280
2000C006AA80
240060000180
0A0024000140
ENDCHAR
STARTCHAR uni0924094D0938094D0935
ENCODING -1
SWIDTH 1155 0
DWIDTH 21 0
BBX 21 11 0 0
BITMAP
AAAABAAAAE80
000020000800
0000200A8800
0AA420180800
240820200800
200BFAB00800
300200200800
300140200800
2000C0181C00
2400600AA800
0A0024000800
ENDCHAR
STARTCHAR uni0926094D0917094D0930
ENCODING -1
SWIDTH 493 0
DWIDTH 9 0
BBX 9 15 0 -4
BITMAP
AAAF80
000900
000900
0AAC00
240000
200000
200500
240A00
0BAA00
020600
020A00
061E00
296600
018600
020000
ENDCHAR
STARTCHAR uni0926094D092C094D0930
ENCODING -1
SWIDTH 483 0
DWIDTH 9 0
BBX 9 15 0 -4
BITMAP
AAAF80
000900
000900
0AAC00
280000
200000
200000
200500
240900
0FA900
1A4500
146900
0AB800
006000
018000
ENDCHAR
STARTCHAR uni0926094D092F094D092D
ENCODING -1
SWIDTH 607 0
DWIDTH 11 0
BBX 11 14 0 -3
BITMAP
AABAF8
002090
0AA090
180090
180090
0B8090
180090
1800D0
0AAF90
001890
6A6090
02C090
009090
001050
ENDCHAR
STARTCHAR uni0926094D092F094D0930
ENCODING -1
SWIDTH 595 0
DWIDTH 11 0
BBX 11 12 0 -1
BITMAP
AAFAE8
006080
0AA080
240080
240080
0E8080
140080
240080
1401C0
0AAEC0
001880
005000
ENDCHAR
STARTCHAR uni0927094D0928094D092F
ENCODING -1
SWIDTH 1138 0
DWIDTH 20 0
BBX 21 12 0 -1
BITMAP
AE4AAABEAE80
240000080C00
240000080C00
1400000C0C00
1F82AAA40C00
240601400C00
240601400C00
140700802C00
0AAA006A9C00
000000000C00
000000000C00
000000000400
ENDCHAR
STARTCHAR uni0928094D0915094D0938
ENCODING -1
SWIDTH 1384 0
DWIDTH 25 0
BBX 25 12 0 -1
BITMAP
AAAAAFAAAEAF80
00000500080900
000686A8080900
00080606080900
2AB40502180900
60140502BAAD00
60140501800900
00180900800900
0006A900600900
00000500240900
00000500180900
00000000040000
ENDCHAR
STARTCHAR uni0928094D0924094D092F
ENCODING -1
SWIDTH 1073 0
DWIDTH 19 0
BBX 20 11 0 0
BITMAP
AAAAAAFAF9
0000002060
0000003060
0000006060
2AAFAE9060
6018090060
6014090060
10140600A0
001401AA60
0018000060
0006400020
ENDCHAR
STARTCHAR uni0928094D0924094D0930
ENCODING -1
SWIDTH 732 0
DWIDTH 13 0
BBX 14 11 0 0
BITMAP
AAAAAF90
00000600
00000600
000AAA00
2AB80A00
60240600
60140600
10001E00
00006600
00028600
00090600
ENDCHAR
STARTCHAR uni0928094D0924094D0938
ENCODING -1
SWIDTH 1134 0
DWIDTH 20 0
BBX 21 11 0 0
BITMAP
AAAAAABEAE40
000000240800
000000240800
000AA8240800
2AB809200800
601407FAA800
601403000800
101401800800
001400900800
001800200800
000640140800
ENDCHAR
STARTCHAR uni0928094D0925094D092F
ENCODING -1
SWIDTH 1168 0
DWIDTH 21 0
BBX 22 11 0 0
BITMAP
AA46A1AEAF90
000C24050900
000824060900
000024050900
2ABA90A80900
601400C00900
201400800900
100801D00D00
0006AA2AA900
000000000900
000000000900
ENDCHAR
STARTCHAR uni0928094D0925094D0935
ENCODING -1
SWIDTH 1089 0
DWIDTH 20 0
BBX 20 12 0 -1
BITMAP
AA46A1AABA
000C240030
0004242A30
0000249030
2ABA90C030
601400C030
201400C030
100801C030
0006AA5070
0000002A70
0000000030
0000000010
ENDCHAR
STARTCHAR uni0928094D0926094D0930
ENCODING -1
SWIDTH 734 0
DWIDTH 13 0
BBX 14 12 0 -1
BITMAP
AAAAAF90
00000600
00000600
000AA900
2ABC0000
60180000
60180200
10180300
00080700
0006BB00
00006200
00018000
ENDCHAR
STARTCHAR uni0928094D0926094D0935
ENCODING -1
SWIDTH 732 0
DWIDTH 13 0
BBX 14 13 0 -2
BITMAP
AAAAAF90
00000600
00000600
000AA900
2ABC0000
60180000
60140100
20180300
00080700
000BAB00
00080200
00080600
0006A800
ENDCHAR
STARTCHAR uni0928094D0927094D092F
ENCODING -1
SWIDTH 1097 0
DWIDTH 20 0
BBX 20 12 0 -1
BITMAP
AAAE1AFABA
0024002020
0024002420
0024002420
2AAF839020
2018060020
2024020030
0024024070
001806AAA0
000AA80020
0000000020
0000000010
ENDCHAR
STARTCHAR uni0928094D0927094D0930
ENCODING -1
SWIDTH 783 0
DWIDTH 14 0
BBX 15 12 0 -1
BITMAP
AAAE0BE4
00240140
00240140
00140140
2AAF8140
20180140
20240140
20240140
00180240
000ABE40
00006140
00014000
ENDCHAR
STARTCHAR uni0928094D0927094D0935
ENCODING -1
SWIDTH 1036 0
DWIDTH 19 0
BBX 19 12 0 -1
BITMAP
AAAE1AAAE8
00240000C0
002400A8C0
00240240C0
2AAF8300C0
20180300C0
20240300C0
20240300C0
00180241C0
000AA9AAC0
00000000C0
0000000040
ENDCHAR
STARTCHAR uni0928094D0928094D092F
ENCODING -1
SWIDTH 1071 0
DWIDTH 19 0
BBX 20 11 0 0
BITMAP
AAAAAAFAF9
0000002060
0000003060
0000006060
2AAEAE9060
6014090060
2014090060
00000600A0
000001AA60
0000000060
0000000060
ENDCHAR
STARTCHAR uni0928094D092A094D0930
ENCODING -1
SWIDTH 737 0
DWIDTH 13 0
BBX 14 12 0 -1
BITMAP
AABEAF90
00180600
00180600
00180600
2AB80600
60180600
60080A00
1006BA00
00005600
00024600
000A0600
00040000
ENDCHAR
STARTCHAR uni0928094D092B094D0930
ENCODING -1
SWIDTH 975 0
DWIDTH 18 0
BBX 18 12 0 -1
BITMAP
AABEAFAAA0
0018050000
001806A900
0018060240
2AB8050140
6018050140
6008090140
2006B90240
0000952900
0002450000
0009050000
0004000000
ENDCHAR
STARTCHAR uni0928094D092D094D092F
ENCODING -1
SWIDTH 1071 0
DWIDTH 19 0
BBX 20 11 0 0
BITMAP
AAA02AFAF9
0018006060
0018003060
0018006060
2AB80A8060
601EAD0060
6018090060
10040600A0
000001AA60
0000000060
0000000060
ENDCHAR
STARTCHAR uni0928094D092D094D0935
ENCODING -1
SWIDTH 995 0
DWIDTH 18 0
BBX 18 11 0 0
BITMAP
AAA02AABE0
0018000240
001801A240
0018060240
2AB8090240
601EAD0240
6018090240
2018090240
0004060340
000001AA40
0000000240
ENDCHAR
STARTCHAR uni0928094D092E094D092F
ENCODING -1
SWIDTH 1071 0
DWIDTH 19 0
BBX 20 11 0 0
BITMAP
AABEAAFAF9
0018006060
0018003060
0018006060
2AA80A8060
601EAD0060
6018090060
10040600A0
000001AA60
0000000060
0000000060
ENDCHAR
STARTCHAR uni0928094D0938094D091F
ENCODING -1
SWIDTH 1113 0
DWIDTH 20 0
BBX 21 11 0 0
BITMAP
AAAAFAAABA40
000090002000
000090002000
0000901AB000
2AA080600000
201FEAD00000
200C00500400
000600500800
000300600C00
0001801AA400
000090000000
ENDCHAR
STARTCHAR uni0928094D0938094D092E094D092F
ENCODING -1
SWIDTH 1453 0
DWIDTH 26 0
BBX 27 11 0 0
BITMAP
AAAAEAFAABABE4
00008060018180
00008060008180
0000C060018180
2AA080602A0180
602FAAFAB00180
20180060200180
00090060180280
0003000006AA80
00024000000180
0000C000000180
ENDCHAR
STARTCHAR uni0928094D0938094D092F
ENCODING -1
SWIDTH 1194 0
DWIDTH 21 0
BBX 22 11 0 0
BITMAP
AAAAEAAFAF90
000080020600
000080030600
0000C0060600
2AA080690600
602FAAD00600
201800900600
000900600A00
0003001AA600
000240000600
0000C0000600
ENDCHAR
STARTCHAR uni092A094D0924094D092F
ENCODING -1
SWIDTH 1119 0
DWIDTH 20 0
BBX 21 11 0 0
BITMAP
BEAAAABABE40
240000181800
240000081800
240000181800
2402ABA01800
240602001800
180902001800
06A901802800
0009006AA800
000600001800
000290001400
ENDCHAR
STARTCHAR uni092C094D091C094D092F
ENCODING -1
SWIDTH 1235 0
DWIDTH 22 0
BBX 23 11 0 0
BITMAP
AAAAAAABEBE4
000000018180
000000008180
0A81BAA18180
2800182A0180
320008240180
308008240180
306008180280
24181806A980
0AAEA4000180
000000000180
ENDCHAR
STARTCHAR uni092C094D0927094D0935
ENCODING -1
SWIDTH 1097 0
DWIDTH 20 0
BBX 20 12 0 -1
BITMAP
AAAB91AABA
0006000020
0A89002A20
2806006020
2602E08020
3146008020
3095008020
2029008020
241E00A070
0AA6AA6AA0
0000000020
0000000010
ENDCHAR
STARTCHAR uni092C094D092D094D0930
ENCODING -1
SWIDTH 764 0
DWIDTH 14 0
BBX 14 12 0 -1
BITMAP
AAA41BA0
00080200
0A890200
28090200
2A090200
328BAB00
30A90700
202D0B00
241C2600
0AA49200
00024200
00010100
ENDCHAR
STARTCHAR uni092C094D0932094D092F
ENCODING -1
SWIDTH 480 0
DWIDTH 9 0
BBX 24 12 0 -1
BITMAP
AAAAAAAAFABA
000000002020
0A8000002420
2802A5A82420
25060A0B9020
314905060020
306905060030
201D00034070
241E0001AA60
0AA2A0000020
000000000020
000000000010
ENDCHAR
STARTCHAR uni092D094D0930094D092F
ENCODING -1
SWIDTH 830 0
DWIDTH 15 0
BBX 15 12 0 -1
BITMAP
A06AEAF8
24009090
24006090
24009090
240E8090
2EAC0090
241C0090
142901D0
0082AA90
02000090
09000090
04000000
ENDCHAR
STARTCHAR uni092E094D092A094D0930
ENCODING -1
SWIDTH 765 0
DWIDTH 14 0
BBX 14 11 0 0
BITMAP
BEAEABA0
24080200
24080200
24080200
24080200
2EAC0200
24090700
2402BA00
00002200
00008200
00020200
ENDCHAR
STARTCHAR uni092E094D092C094D092F
ENCODING -1
SWIDTH 1124 0
DWIDTH 20 0
BBX 21 11 0 0
BITMAP
BEAAAABEBE40
240000181800
2402A0081800
240A00181800
240E42A01800
2EAC92401800
240C16401800
140C07802800
0009066A9800
0002A8001800
000000001800
ENDCHAR
STARTCHAR uni092E094D092C094D0930
ENCODING -1
SWIDTH 768 0
DWIDTH 14 0
BBX 14 12 0 -1
BITMAP
BEAAABE0
24000240
2402A240
240A0240
24098240
2EAC9240
240C2640
24080B40
00090740
0002BA40
00006240
00014000
ENDCHAR
STARTCHAR uni092E094D092D094D092F
ENCODING -1
SWIDTH 1101 0
DWIDTH 20 0
BBX 20 11 0 0
BITMAP
BEA41AFABA
2408002420
2409001420
2409002420
240903A020
2EAFAA0020
2409020020
1404024070
000000AAA0
0000000020
0000000020
ENDCHAR
STARTCHAR uni092E094D092D094D0930
ENCODING -1
SWIDTH 759 0
DWIDTH 14 0
BBX 14 12 0 -1
BITMAP
BEA41BA0
240C0300
24080300
24080300
24080300
2EAFAB00
24080700
24081B00
00002300
00008300
00024300
00000100
ENDCHAR
STARTCHAR uni092E094D092D094D0935
ENCODING -1
SWIDTH 1028 0
DWIDTH 19 0
BBX 19 12 0 -1
BITMAP
BEA41AAAE8
24080000C0
240900A4C0
24090240C0
24090300C0
2EAFAA00C0
24090200C0
24090300C0
10040241C0
000000A9C0
00000000C0
0000000040
ENDCHAR
STARTCHAR uni0932094D0915094D092F
ENCODING -1
SWIDTH 1534 0
DWIDTH 28 0
BBX 28 12 0 -1
BITMAP
AAAAAAAFAAFABA
00000009002030
00000689002430
0A969809002030
24283409AB9030
2024240A060030
20242409060030
2010280D020070
24000AA901AA70
0A800009000030
00000009000030
00000000000010
ENDCHAR
STARTCHAR uni0932094D0925094D092F
ENCODING -1
SWIDTH 1397 0
DWIDTH 25 0
BBX 26 11 0 0
BITMAP
AAAA46A1AEAF90
00000C24060600
00000824020600
0A969024060600
24282020A80600
20242E90800600
20242400800600
20001800A00A00
240006AA1AA600
0A800000000600
00000000000600
ENDCHAR
STARTCHAR uni0932094D0926094D0930
ENCODING -1
SWIDTH 933 0
DWIDTH 17 0
BBX 17 12 0 -1
BITMAP
AAAAAAAF80
0000000900
0000000900
0A969AAC00
2428280000
2024200000
2024200500
2000200500
2400040900
0A80007900
000001D500
0000024000
ENDCHAR
STARTCHAR uni0932094D0932094D092F
ENCODING -1
SWIDTH 1476 0
DWIDTH 27 0
BBX 27 12 0 -1
BITMAP
AAAAAAAAABEAE8
000000000080C0
000000000090C0
0A9A9A9AA0C0C0
242824282E40C0
202420241800C0
201420141800C0
200020000C01C0
2400140006A9C0
0A800A800000C0
000000000000C0
00000000000040
ENDCHAR
STARTCHAR uni0932094D0935094D0921
ENCODING -1
SWIDTH 1247 0
DWIDTH 22 0
BBX 23 11 0 0
BITMAP
AAAAAAAAAAE8
000000000080
000006800080
0A969801AA80
242824024000
202424024000
20242401AA80
201024090090
2400040D0090
0A8000090090
00000002AA80
ENDCHAR
STARTCHAR uni0937094D0915094D0930
ENCODING -1
SWIDTH 1042 0
DWIDTH 19 0
BBX 19 12 0 -1
BITMAP
BEAAABEAA8
2800018000
2601A5AA80
248201C090
2426018060
241A018060
180A018060
06A7028090
0001AE8A80
0000198000
0000608000
0000800000
ENDCHAR
STARTCHAR uni0937094D091F094D092F
ENCODING -1
SWIDTH 997 0
DWIDTH 18 0
BBX 18 11 0 0
BITMAP
BEAFAAABE0
2D06000240
2646000240
2457AA4240
181A00C240
0FA900C240
24001A4240
2000140240
2002080740
240606AA40
0AA8000140
ENDCHAR
STARTCHAR uni0937094D091F094D0930
ENCODING -1
SWIDTH 493 0
DWIDTH 9 0
BBX 9 14 0 -3
BITMAP
BEAF80
290600
264600
246600
181D00
0FA900
240000
200000
200200
240600
0BF800
027000
061800
0C0900
ENDCHAR
STARTCHAR uni0937094D091F094D0935
ENCODING -1
SWIDTH 493 0
DWIDTH 9 0
BBX 9 14 0 -3
BITMAP
BEAF80
290600
264600
246600
181D00
0FAD00
240000
200200
240600
0FAD00
180900
240900
180800
0AA400
ENDCHAR
STARTCHAR uni0937094D0920094D092F
ENCODING -1
SWIDTH 1006 0
DWIDTH 18 0
BBX 19 11 0 0
BITMAP
BFFFAAABE4
1FFE000140
2FFE000140
1FFFAA4140
1FFE009140
0BFD009140
18061E4140
2403180140
24030D0340
180606A940
0AA8000140
ENDCHAR
STARTCHAR uni0937094D0920094D0930
ENCODING -1
SWIDTH 512 0
DWIDTH 9 0
BBX 10 14 0 -3
BITMAP
BFFF90
2FFE00
2FFE00
2FFE00
1FFD00
0AAD00
240200
200300
200300
280600
0BF800
027000
091800
080900
ENDCHAR
STARTCHAR uni0937094D0923094D092F
ENCODING -1
SWIDTH 1273 0
DWIDTH 23 0
BBX 23 11 0 0
BITMAP
BEAFABABEAF8
280603009090
260603006090
248603009090
2466030E8090
241A030C0090
180A060C0090
06A5A80901D0
00000002AA90
000000000090
000000000090
ENDCHAR
STARTCHAR uni0937094D092A094D0930
ENCODING -1
SWIDTH 798 0
DWIDTH 14 0
BBX 15 12 0 -1
BITMAP
BEAFAAE4
28060080
26060080
24860080
24660080
241A0180
180B0280
06A5AE80
00001480
00006080
00018080
00010000
ENDCHAR
STARTCHAR uni0937094D092E094D092F
ENCODING -1
SWIDTH 1121 0
DWIDTH 20 0
BBX 21 11 0 0
BITMAP
BEAFAABABE40
280600181800
260600081800
258600181800
246602A01800
241BAB001800
180E02001800
06A601802800
0000006AA800
000000001800
000000001800
ENDCHAR
STARTCHAR uni0938094D0915094D0930
ENCODING -1
SWIDTH 1084 0
DWIDTH 20 0
BBX 20 12 0 -1
BITMAP
ABEAAAFAAA
0240005000
0240686A90
0240806020
0201405014
7FAB405014
2001405014
1801809020
09006B9290
0600095000
0240245000
0000500000
ENDCHAR
STARTCHAR uni0938094D0915094D0935
ENCODING -1
SWIDTH 1369 0
DWIDTH 25 0
BBX 25 12 0 -1
BITMAP
ABEAAAFAAAAE80
02400050000C00
0240686A9A8C00
02408060340C00
02014050300C00
7FAB4050300C00
30014050300C00
18014050300C00
08008090241C00
06006A900AAC00
02400050000C00
00000000000400
ENDCHAR
STARTCHAR uni0938094D0924094D092F
ENCODING -1
SWIDTH 1185 0
DWIDTH 21 0
BBX 22 11 0 0
BITMAP
ABEAAAAFAF90
024000020600
024000030600
024000020600
02006AE90600
7FAB80900600
200140900600
180140600A00
0901401AA600
060180000600
024064000200
ENDCHAR
STARTCHAR uni0938094D0924094D0930
ENCODING -1
SWIDTH 818 0
DWIDTH 15 0
BBX 15 12 0 -1
BITMAP
ABEAAAE8
02400080
02400080
0240AAC0
020241C0
7FAA00C0
30000080
180002C0
08000980
06006480
02418080
00010040
ENDCHAR
STARTCHAR uni0938094D0924094D0935
ENCODING -1
SWIDTH 1126 0
DWIDTH 20 0
BBX 21 11 0 0
BITMAP
ABEAAAAABE40
024000001800
0240001A5800
02406AB01800
020180601800
7FAB40601800
200140601800
180140601800
090140302800
0601801AA800
024064001800
ENDCHAR
STARTCHAR uni0938094D0925094D092F
ENCODING -1
SWIDTH 1303 0
DWIDTH 23 0
BBX 24 12 0 -1
BITMAP
ABE86A0AFABA
024091802020
024081802020
024002403020
0201EA069020
7FAB80050020
300180050020
1800D00A00A0
08002AA5AA60
060000000020
024000000020
000000000010
ENDCHAR
STARTCHAR uni0938094D092A094D0930
ENCODING -1
SWIDTH 850 0
DWIDTH 15 0
BBX 16 12 0 -1
BITMAP
ABEBEAF9
02418060
02418060
02418060
02018060
7FAB8060
200080A0
18006BA0
09000560
06002860
0240A060
00004000
ENDCHAR
STARTCHAR uni0938094D092E094D092F
ENCODING -1
SWIDTH 1189 0
DWIDTH 21 0
BBX 22 12 0 -1
BITMAP
ABEBEAAFAB90
024180020200
024180030200
024180020200
020180690200
7FAAEAD00200
300180500600
180080600A00
0800001AA600
060000000200
024000000200
000000000100
ENDCHAR
STARTCHAR uni093F.a01
ENCODING -1
SWIDTH 231 0
DWIDTH 4 0
BBX 9 15 0 0
BITMAP
0AAA00
180180
180080
180000
BE4000
180000
180000
180000
180000
180000
180000
180000
180000
180000
180000
ENDCHAR
STARTCHAR uni093F.a04
ENCODING -1
SWIDTH 231 0
DWIDTH 4 0
BBX 12 15 0 0
BITMAP
0AAAA8
180009
180009
180000
BE4000
180000
180000
180000
180000
180000
180000
180000
180000
180000
180000
ENDCHAR
STARTCHAR uni093F.a05
ENCODING -1
SWIDTH 231 0
DWIDTH 4 0
BBX 12 15 0 0
BITMAP
0AAAA9
180003
180002
180000
BE4000
180000
180000
180000
180000
180000
180000
180000
180000
180000
180000
ENDCHAR
STARTCHAR uni093F.a06
ENCODING -1
SWIDTH 231 0
DWIDTH 4 0
BBX 13 15 0 0
BITMAP
0AAAAA40
180000C0
18000080
18000000
BE400000
18000000
18000000
18000000
18000000
18000000
18000000
18000000
18000000
18000000
18000000
ENDCHAR
STARTCHAR uni093F.a07
ENCODING -1
SWIDTH 231 0
DWIDTH 4 0
BBX 14 15 0 0
BITMAP
0AAAAA90
18000060
18000020
18000000
BE400000
18000000
18000000
18000000
18000000
18000000
18000000
18000000
18000000
18000000
18000000
ENDCHAR
STARTCHAR uni093F.a08
ENCODING -1
SWIDTH 231 0
DWIDTH 4 0
BBX 15 15 0 0
BITMAP
0AAAAAA0
18000018
18000008
18000000
BE400000
18000000
18000000
18000000
18000000
18000000
18000000
18000000
18000000
18000000
18000000
ENDCHAR
STARTCHAR uni093F.a09
ENCODING -1
SWIDTH 231 0
DWIDTH 4 0
BBX 16 15 0 0
BITMAP
0AAAAAA8
18000005
18000006
18000000
BE400000
18000000
18000000
18000000
18000000
18000000
18000000
18000000
18000000
18000000
18000000
ENDCHAR
STARTCHAR uni093F.a10
ENCODING -1
SWIDTH 231 0
DWIDTH 4 0
BBX 17 15 0 0
BITMAP
0AAAAAAA00
1800000240
1800000140
1800000000
BE40000000
1800000000
1800000000
1800000000
1800000000
1800000000
1800000000
1800000000
1800000000
1800000000
1800000000
ENDCHAR
STARTCHAR uni093F.a11
ENCODING -1
SWIDTH 231 0
DWIDTH 4 0
BBX 18 15 0 0
BITMAP
0AAAAAAA40
1800000080
1800000090
1800000000
BE40000000
1800000000
1800000000
1800000000
1800000000
1800000000
1800000000
1800000000
1800000000
1800000000
1800000000
ENDCHAR
STARTCHAR uni093F.a12
ENCODING -1
SWIDTH 231 0
DWIDTH 4 0
BBX 18 15 0 0
BITMAP
0AAAAAAA90
1800000030
1800000020
1800000000
BE40000000
1800000000
1800000000
1800000000
1800000000
1800000000
1800000000
1800000000
1800000000
1800000000
1800000000
ENDCHAR
STARTCHAR uni093F.a13
ENCODING -1
SWIDTH 231 0
DWIDTH 4 0
BBX 19 15 0 0
BITMAP
0AAAAAAAA4
1800000008
1800000008
1800000000
BE40000000
1800000000
1800000000
1800000000
1800000000
1800000000
1800000000
1800000000
1800000000
1800000000
1800000000
ENDCHAR
STARTCHAR uni093F.a14
ENCODING -1
SWIDTH 231 0
DWIDTH 4 0
BBX 20 15 0 0
BITMAP
0AAAAAAAA8
1800000006
1800000002
1800000000
BE40000000
1800000000
1800000000
1800000000
1800000000
1800000000
1800000000
1800000000
1800000000
1800000000
1800000000
ENDCHAR
STARTCHAR uni093F.a15
ENCODING -1
SWIDTH 231 0
DWIDTH 4 0
BBX 21 15 0 0
BITMAP
0AAAAAAAAA00
180000000180
180000000180
180000000000
BE4000000000
180000000000
180000000000
180000000000
180000000000
180000000000
180000000000
180000000000
180000000000
180000000000
180000000000
ENDCHAR
STARTCHAR uni093F.a16
ENCODING -1
SWIDTH 231 0
DWIDTH 4 0
BBX 22 15 0 0
BITMAP
0AAAAAAAAA80
180000000090
180000000050
180000000000
BE4000000000
180000000000
180000000000
180000000000
180000000000
180000000000
180000000000
180000000000
180000000000
180000000000
180000000000
ENDCHAR
STARTCHAR uni093F.a17
ENCODING -1
SWIDTH 231 0
DWIDTH 4 0
BBX 23 15 0 0
BITMAP
0AAAAAAAAAA0
180000000024
180000000024
180000000000
BE4000000000
180000000000
180000000000
180000000000
180000000000
180000000000
180000000000
180000000000
180000000000
180000000000
180000000000
ENDCHAR
STARTCHAR uni093F.a18
ENCODING -1
SWIDTH 231 0
DWIDTH 4 0
BBX 24 15 0 0
BITMAP
0AAAAAAAAAA4
18000000000C
180000000009
180000000000
BE4000000000
180000000000
180000000000
180000000000
180000000000
180000000000
180000000000
180000000000
180000000000
180000000000
180000000000
ENDCHAR
STARTCHAR uni093F.a19
ENCODING -1
SWIDTH 231 0
DWIDTH 4 0
BBX 24 15 0 0
BITMAP
0AAAAAAAAAA9
180000000003
180000000002
180000000000
BE4000000000
180000000000
180000000000
180000000000
180000000000
180000000000
180000000000
180000000000
180000000000
180000000000
180000000000
ENDCHAR
STARTCHAR uni093F.a20
ENCODING -1
SWIDTH 231 0
DWIDTH 4 0
BBX 25 15 0 0
BITMAP
0AAAAAAAAAAA40
18000000000180
18000000000080
18000000000000
BE400000000000
18000000000000
18000000000000
18000000000000
18000000000000
18000000000000
18000000000000
18000000000000
18000000000000
18000000000000
18000000000000
ENDCHAR
STARTCHAR uni093F.a21
ENCODING -1
SWIDTH 231 0
DWIDTH 4 0
BBX 26 15 0 0
BITMAP
0AAAAAAAAAAA80
18000000000060
18000000000020
18000000000000
BE400000000000
18000000000000
18000000000000
18000000000000
18000000000000
18000000000000
18000000000000
18000000000000
18000000000000
18000000000000
18000000000000
ENDCHAR
STARTCHAR uni093F.a22
ENCODING -1
SWIDTH 231 0
DWIDTH 4 0
BBX 27 15 0 0
BITMAP
0AAAAAAAAAAAA0
18000000000014
18000000000018
18000000000000
BE400000000000
18000000000000
18000000000000
18000000000000
18000000000000
18000000000000
18000000000000
18000000000000
18000000000000
18000000000000
18000000000000
ENDCHAR
STARTCHAR uni093F.a23
ENCODING -1
SWIDTH 231 0
DWIDTH 4 0
BBX 28 15 0 0
BITMAP
0AAAAAAAAAAAA8
18000000000009
18000000000005
18000000000000
BE400000000000
18000000000000
18000000000000
18000000000000
18000000000000
18000000000000
18000000000000
18000000000000
18000000000000
18000000000000
18000000000000
ENDCHAR
STARTCHAR uni093F.a24
ENCODING -1
SWIDTH 231 0
DWIDTH 4 0
BBX 29 15 0 0
BITMAP
0AAAAAAAAAAAA900
1800000000000200
1800000000000240
1800000000000000
BE40000000000000
1800000000000000
1800000000000000
1800000000000000
1800000000000000
1800000000000000
1800000000000000
1800000000000000
1800000000000000
1800000000000000
1800000000000000
ENDCHAR
STARTCHAR uni093F.a25
ENCODING -1
SWIDTH 231 0
DWIDTH 4 0
BBX 29 15 0 0
BITMAP
0AAAAAAAAAAAAA40
18000000000000C0
1800000000000080
1800000000000000
BE40000000000000
1800000000000000
1800000000000000
1800000000000000
1800000000000000
1800000000000000
1800000000000000
1800000000000000
1800000000000000
1800000000000000
1800000000000000
ENDCHAR
STARTCHAR uni093F.a26
ENCODING -1
SWIDTH 231 0
DWIDTH 4 0
BBX 30 15 0 0
BITMAP
0AAAAAAAAAAAAA90
1800000000000020
1800000000000020
1800000000000000
BE40000000000000
1800000000000000
1800000000000000
1800000000000000
1800000000000000
1800000000000000
1800000000000000
1800000000000000
1800000000000000
1800000000000000
1800000000000000
ENDCHAR
STARTCHAR uni093F.a32
ENCODING -1
SWIDTH 231 0
DWIDTH 4 0
BBX 37 15 0 0
BITMAP
0AAAAAAAAAAAAAAAAA00
18000000000000000240
18000000000000000140
18000000000000000000
BE400000000000000000
18000000000000000000
18000000000000000000
18000000000000000000
18000000000000000000
18000000000000000000
18000000000000000000
18000000000000000000
18000000000000000000
18000000000000000000
18000000000000000000
ENDCHAR
STARTCHAR uni093E0901
ENCODING -1
SWIDTH 231 0
DWIDTH 4 0
BBX 6 15 -1 0
BITMAP
0500
9020
2A90
0000
2F90
0600
0600
0600
0600
0600
0600
0600
0600
0600
0600
ENDCHAR
STARTCHAR dvNG_GA
ENCODING -1
SWIDTH 562 0
DWIDTH 10 0
BBX 11 16 0 -5
BITMAP
AAABA4
000300
0AAA00
140000
240050
240000
0AAA00
000240
240240
1BAE00
020900
020900
0A0900
280900
000900
000800
ENDCHAR
STARTCHAR dvNG_MA
ENCODING -1
SWIDTH 728 0
DWIDTH 13 0
BBX 14 15 0 -4
BITMAP
AAAEAF90
000C0500
0AAC0500
24008500
24000500
0AA80500
00090500
20060500
24090500
0AB80500
00240500
002EAD00
00240500
00100500
00000500
ENDCHAR
STARTCHAR dvNY_CA
ENCODING -1
SWIDTH 963 0
DWIDTH 17 0
BBX 18 11 0 0
BITMAP
AAAAAAAF90
0000000600
0000000600
2A41AE8600
0080240600
0090300600
00B9300600
0090240A00
00800AA600
2A40000600
0000000600
ENDCHAR
STARTCHAR dvTT_GA
ENCODING -1
SWIDTH 510 0
DWIDTH 9 0
BBX 10 15 0 -4
BITMAP
AAAF90
000900
000900
0AAD00
240000
200000
200140
240240
0BAD00
020900
020900
060900
280900
000900
000800
ENDCHAR
STARTCHAR dvTTH_TTHA
ENCODING -1
SWIDTH 511 0
DWIDTH 9 0
BBX 10 16 0 -5
BITMAP
AAAE90
000800
000C00
0AB800
240600
200200
200200
240600
0AAC00
000C00
0AB800
240600
200300
200200
240600
0AA800
ENDCHAR
STARTCHAR dvDD_GA
ENCODING -1
SWIDTH 541 0
DWIDTH 10 0
BBX 10 16 0 -5
BITMAP
AAABA0
000200
0AAA00
140000
240000
240000
0AAA00
000240
240240
1BAE00
020900
020900
0A0900
280900
000900
000800
ENDCHAR
STARTCHAR dvDDH_DDHA
ENCODING -1
SWIDTH 487 0
DWIDTH 9 0
BBX 9 15 0 -4
BITMAP
AAAE80
000C00
000C00
0AA800
246900
209200
208200
240600
0FA800
180000
242900
209200
244200
180600
0AA800
ENDCHAR
STARTCHAR dvSHA_MatraVocalicR
ENCODING -1
SWIDTH 558 0
DWIDTH 10 0
BBX 11 15 0 -4
BITMAP
1A91E4
243140
203140
146140
0A8140
1A9140
642A40
000240
000140
000140
000B40
002400
002000
002414
001AA0
ENDCHAR
STARTCHAR dvT_KH_NA
ENCODING -1
SWIDTH 1341 0
DWIDTH 24 0
BBX 25 11 0 0
BITMAP
AAAABEAAAABE40
00002400001400
00002400001400
0AA424A9001400
240831826AB400
200A9241D01400
30060241D01400
30024182501400
200080A9001400
24006000001400
0A002400001400
ENDCHAR
STARTCHAR dvT_S_NA
ENCODING -1
SWIDTH 1169 0
DWIDTH 21 0
BBX 22 11 0 0
BITMAP
AAAABAAAAF90
000020000500
000020000500
0AA420000500
2408200AAD00
200BFAB40500
300200240500
300140000500
2000C0000500
240060000500
0A0024000500
ENDCHAR
ENDFONT
